<mxfile host="65bd71144e">
    <diagram name="Page-1" id="Xa4HiU06uu2VXl8qRVdY">
        <mxGraphModel dx="3607" dy="2877" grid="1" gridSize="10" guides="1" tooltips="1" connect="1" arrows="1" fold="1" page="1" pageScale="1" pageWidth="850" pageHeight="1100" math="0" shadow="0">
            <root>
                <mxCell id="0"/>
                <mxCell id="1" parent="0"/>
                <mxCell id="of-Or63fq2WvLNfduHY4-37" value="&lt;font data-font-src=&quot;https://fonts.googleapis.com/css?family=Sarabun&quot; face=&quot;Sarabun&quot;&gt;โจทย์ปัญหา&lt;/font&gt;" style="swimlane;whiteSpace=wrap;html=1;" parent="1" vertex="1">
                    <mxGeometry x="-2320" y="-2170" width="630" height="350" as="geometry"/>
                </mxCell>
                <mxCell id="of-Or63fq2WvLNfduHY4-38" value="&lt;font data-font-src=&quot;https://fonts.googleapis.com/css?family=Sarabun&quot; face=&quot;Sarabun&quot; style=&quot;font-size: 14px;&quot;&gt;จงเขียน Flowchart เพื่อแสดงขั้นตอนการทำงาน ของเครื่องขายน้ำอัตโนมัติที่ชื่อว่า &quot;ตะพาบลอย&quot;&lt;br&gt;โดยจะต้องมีสินค้าดังนี้&lt;br&gt;&lt;u&gt;ประเภทน้ำ&lt;span style=&quot;white-space: pre;&quot;&gt;&#x9;&lt;/span&gt;&lt;span style=&quot;white-space: pre;&quot;&gt;&#x9;&lt;/span&gt;&lt;span style=&quot;white-space: pre;&quot;&gt;&#x9;&lt;/span&gt;&lt;span style=&quot;white-space: pre;&quot;&gt;&#x9;&lt;/span&gt;&lt;span style=&quot;white-space: pre;&quot;&gt;&#x9;&lt;/span&gt;&lt;span style=&quot;white-space: pre;&quot;&gt;&#x9;&lt;span style=&quot;white-space: pre;&quot;&gt;&#x9;&lt;/span&gt;ข&lt;/span&gt;นม&lt;/u&gt;&lt;br&gt;&lt;span style=&quot;white-space: pre;&quot;&gt;&#x9;&lt;/span&gt;- โค้ก กระป๋องละ 10 บาท&lt;span style=&quot;white-space: pre;&quot;&gt;&#x9;&lt;/span&gt;&lt;span style=&quot;white-space: pre;&quot;&gt;&#x9;&lt;/span&gt;&lt;span style=&quot;white-space: pre;&quot;&gt;&#x9;&lt;/span&gt;&lt;span style=&quot;white-space: pre;&quot;&gt;&#x9;&lt;/span&gt;- เมล็ดทานตะวัน 13 บาท&lt;br&gt;&lt;span style=&quot;white-space: pre;&quot;&gt;&#x9;&lt;/span&gt;- น้ำเขียว กระป๋องละ 12 บาท&lt;span style=&quot;white-space: pre;&quot;&gt;&#x9;&lt;/span&gt;&lt;span style=&quot;white-space: pre;&quot;&gt;&#x9;&lt;/span&gt;&lt;span style=&quot;white-space: pre;&quot;&gt;&#x9;&lt;/span&gt;- ถั่วแปบ 20 บาท&lt;br&gt;&lt;span style=&quot;white-space: pre;&quot;&gt;&#x9;&lt;/span&gt;- อเมริกาโน่ 30 บาท&lt;span style=&quot;white-space: pre;&quot;&gt;&#x9;&lt;/span&gt;&lt;span style=&quot;white-space: pre;&quot;&gt;&#x9;&lt;/span&gt;&lt;span style=&quot;white-space: pre;&quot;&gt;&#x9;&lt;/span&gt;&lt;span style=&quot;white-space: pre;&quot;&gt;&#x9;&lt;/span&gt;&lt;span style=&quot;white-space: pre;&quot;&gt;&#x9;&lt;/span&gt;- จิ้นส้มหมก 15 บาท&lt;br&gt;&lt;span style=&quot;white-space: pre;&quot;&gt;&#x9;&lt;/span&gt;- ลาเต้ หวานเจี๊ยบ 35 บาท&lt;span style=&quot;white-space: pre;&quot;&gt;&#x9;&lt;/span&gt;&lt;br&gt;&lt;br&gt;&lt;u&gt;สิ่งที่ระบบควรจะทำได้&lt;/u&gt;&lt;br&gt;&lt;span style=&quot;white-space: pre;&quot;&gt;&#x9;&lt;/span&gt;- ลูกค้าเลือกสินค้า, ระบบจะต้องรวมยอดขาย และรวมรายการสินค้าทั้งหมดที่ลูกค้าเลือก&lt;br&gt;&lt;span style=&quot;white-space: pre;&quot;&gt;&#x9;&lt;/span&gt;- สรุปยอดว่าเหลือเงินในตู้อีกเท่าไหร่ เหลือเหรียญอะไรบ้าง? ธนบัตรอะไรบ้าง? อย่างละเท่าไหร่?&lt;br&gt;&lt;br&gt;&lt;br&gt;&lt;/font&gt;" style="text;html=1;align=left;verticalAlign=middle;resizable=0;points=[];autosize=1;strokeColor=none;fillColor=none;fontSize=14;" parent="of-Or63fq2WvLNfduHY4-37" vertex="1">
                    <mxGeometry x="40" y="70" width="580" height="240" as="geometry"/>
                </mxCell>
                <mxCell id="of-Or63fq2WvLNfduHY4-1" value="ทบทวนสัญลักษณ์" style="swimlane;fontFamily=Sarabun;fontSource=https%3A%2F%2Ffonts.googleapis.com%2Fcss%3Ffamily%3DSarabun;" parent="1" vertex="1">
                    <mxGeometry x="-2263" y="-1729.99" width="640" height="240" as="geometry"/>
                </mxCell>
                <mxCell id="of-Or63fq2WvLNfduHY4-2" value="&lt;font data-font-src=&quot;https://fonts.googleapis.com/css?family=Sarabun&quot; face=&quot;Sarabun&quot;&gt;เริ่มต้น&lt;/font&gt;" style="ellipse;whiteSpace=wrap;html=1;" parent="of-Or63fq2WvLNfduHY4-1" vertex="1">
                    <mxGeometry x="20" y="40" width="130" height="30" as="geometry"/>
                </mxCell>
                <mxCell id="of-Or63fq2WvLNfduHY4-3" value="" style="endArrow=classic;html=1;rounded=0;" parent="of-Or63fq2WvLNfduHY4-1" edge="1">
                    <mxGeometry width="50" height="50" relative="1" as="geometry">
                        <mxPoint x="84.5" y="70" as="sourcePoint"/>
                        <mxPoint x="84.5" y="120" as="targetPoint"/>
                    </mxGeometry>
                </mxCell>
                <mxCell id="of-Or63fq2WvLNfduHY4-4" value="&lt;font face=&quot;Sarabun&quot;&gt;สิ้นสุด&lt;/font&gt;" style="ellipse;whiteSpace=wrap;html=1;" parent="of-Or63fq2WvLNfduHY4-1" vertex="1">
                    <mxGeometry x="150" y="90" width="130" height="30" as="geometry"/>
                </mxCell>
                <mxCell id="of-Or63fq2WvLNfduHY4-5" value="" style="endArrow=classic;html=1;rounded=0;" parent="of-Or63fq2WvLNfduHY4-1" edge="1">
                    <mxGeometry width="50" height="50" relative="1" as="geometry">
                        <mxPoint x="214.5" y="40" as="sourcePoint"/>
                        <mxPoint x="214.5" y="90" as="targetPoint"/>
                    </mxGeometry>
                </mxCell>
                <mxCell id="of-Or63fq2WvLNfduHY4-6" value="กระบวนการ" style="rounded=0;whiteSpace=wrap;html=1;fontFamily=Sarabun;fontSource=https%3A%2F%2Ffonts.googleapis.com%2Fcss%3Ffamily%3DSarabun;" parent="of-Or63fq2WvLNfduHY4-1" vertex="1">
                    <mxGeometry x="320" y="70" width="120" height="30" as="geometry"/>
                </mxCell>
                <mxCell id="of-Or63fq2WvLNfduHY4-7" value="" style="endArrow=classic;html=1;rounded=0;" parent="of-Or63fq2WvLNfduHY4-1" edge="1">
                    <mxGeometry width="50" height="50" relative="1" as="geometry">
                        <mxPoint x="379" y="40" as="sourcePoint"/>
                        <mxPoint x="379.5" y="70" as="targetPoint"/>
                    </mxGeometry>
                </mxCell>
                <mxCell id="of-Or63fq2WvLNfduHY4-8" value="" style="endArrow=classic;html=1;rounded=0;" parent="of-Or63fq2WvLNfduHY4-1" edge="1">
                    <mxGeometry width="50" height="50" relative="1" as="geometry">
                        <mxPoint x="379.75" y="100" as="sourcePoint"/>
                        <mxPoint x="380.25" y="130" as="targetPoint"/>
                    </mxGeometry>
                </mxCell>
                <mxCell id="of-Or63fq2WvLNfduHY4-9" value="ประโยคเงื่อนไข" style="rhombus;whiteSpace=wrap;html=1;fontFamily=Sarabun;fontSource=https%3A%2F%2Ffonts.googleapis.com%2Fcss%3Ffamily%3DSarabun;" parent="of-Or63fq2WvLNfduHY4-1" vertex="1">
                    <mxGeometry x="490" y="60" width="100" height="60" as="geometry"/>
                </mxCell>
                <mxCell id="of-Or63fq2WvLNfduHY4-10" value="" style="endArrow=classic;html=1;rounded=0;" parent="of-Or63fq2WvLNfduHY4-1" edge="1">
                    <mxGeometry width="50" height="50" relative="1" as="geometry">
                        <mxPoint x="539.71" y="30" as="sourcePoint"/>
                        <mxPoint x="540.21" y="60" as="targetPoint"/>
                    </mxGeometry>
                </mxCell>
                <mxCell id="of-Or63fq2WvLNfduHY4-11" value="" style="endArrow=classic;html=1;rounded=0;" parent="of-Or63fq2WvLNfduHY4-1" edge="1">
                    <mxGeometry width="50" height="50" relative="1" as="geometry">
                        <mxPoint x="539.71" y="120" as="sourcePoint"/>
                        <mxPoint x="540" y="175" as="targetPoint"/>
                    </mxGeometry>
                </mxCell>
                <mxCell id="of-Or63fq2WvLNfduHY4-12" value="จริง" style="edgeLabel;html=1;align=center;verticalAlign=middle;resizable=0;points=[];fontFamily=Sarabun;fontSource=https%3A%2F%2Ffonts.googleapis.com%2Fcss%3Ffamily%3DSarabun;" parent="of-Or63fq2WvLNfduHY4-11" vertex="1" connectable="0">
                    <mxGeometry x="-0.4142" y="-1" relative="1" as="geometry">
                        <mxPoint as="offset"/>
                    </mxGeometry>
                </mxCell>
                <mxCell id="of-Or63fq2WvLNfduHY4-13" value="" style="endArrow=classic;html=1;rounded=0;exitX=1;exitY=0.5;exitDx=0;exitDy=0;" parent="of-Or63fq2WvLNfduHY4-1" source="of-Or63fq2WvLNfduHY4-9" edge="1">
                    <mxGeometry width="50" height="50" relative="1" as="geometry">
                        <mxPoint x="620" y="95" as="sourcePoint"/>
                        <mxPoint x="610" y="175" as="targetPoint"/>
                        <Array as="points">
                            <mxPoint x="610" y="90"/>
                        </Array>
                    </mxGeometry>
                </mxCell>
                <mxCell id="of-Or63fq2WvLNfduHY4-14" value="&lt;font data-font-src=&quot;https://fonts.googleapis.com/css?family=Sarabun&quot; face=&quot;Sarabun&quot;&gt;เท็จ&lt;/font&gt;" style="edgeLabel;html=1;align=center;verticalAlign=middle;resizable=0;points=[];" parent="of-Or63fq2WvLNfduHY4-13" vertex="1" connectable="0">
                    <mxGeometry x="-0.0019" y="-2" relative="1" as="geometry">
                        <mxPoint as="offset"/>
                    </mxGeometry>
                </mxCell>
                <mxCell id="of-Or63fq2WvLNfduHY4-15" value="&lt;font data-font-src=&quot;https://fonts.googleapis.com/css?family=Sarabun&quot; face=&quot;Sarabun&quot;&gt;ฟังก์ชัน/โมดูล&lt;/font&gt;" style="shape=process;whiteSpace=wrap;html=1;backgroundOutline=1;" parent="of-Or63fq2WvLNfduHY4-1" vertex="1">
                    <mxGeometry x="25" y="180" width="120" height="30" as="geometry"/>
                </mxCell>
                <mxCell id="of-Or63fq2WvLNfduHY4-16" value="" style="endArrow=classic;html=1;rounded=0;" parent="of-Or63fq2WvLNfduHY4-1" edge="1">
                    <mxGeometry width="50" height="50" relative="1" as="geometry">
                        <mxPoint x="84.70999999999998" y="150" as="sourcePoint"/>
                        <mxPoint x="85.20999999999998" y="180" as="targetPoint"/>
                    </mxGeometry>
                </mxCell>
                <mxCell id="of-Or63fq2WvLNfduHY4-17" value="" style="endArrow=classic;html=1;rounded=0;" parent="of-Or63fq2WvLNfduHY4-1" edge="1">
                    <mxGeometry width="50" height="50" relative="1" as="geometry">
                        <mxPoint x="84.70999999999998" y="210" as="sourcePoint"/>
                        <mxPoint x="85.20999999999998" y="240" as="targetPoint"/>
                    </mxGeometry>
                </mxCell>
                <mxCell id="of-Or63fq2WvLNfduHY4-18" value="" style="strokeWidth=2;html=1;shape=mxgraph.flowchart.start_2;whiteSpace=wrap;" parent="of-Or63fq2WvLNfduHY4-1" vertex="1">
                    <mxGeometry x="205" y="185" width="20" height="20" as="geometry"/>
                </mxCell>
                <mxCell id="of-Or63fq2WvLNfduHY4-19" value="" style="endArrow=classic;html=1;rounded=0;" parent="of-Or63fq2WvLNfduHY4-1" edge="1">
                    <mxGeometry width="50" height="50" relative="1" as="geometry">
                        <mxPoint x="214.70999999999998" y="155" as="sourcePoint"/>
                        <mxPoint x="215.20999999999998" y="185" as="targetPoint"/>
                    </mxGeometry>
                </mxCell>
                <mxCell id="of-Or63fq2WvLNfduHY4-20" value="" style="endArrow=classic;html=1;rounded=0;entryX=0;entryY=0.5;entryDx=0;entryDy=0;entryPerimeter=0;" parent="of-Or63fq2WvLNfduHY4-1" target="of-Or63fq2WvLNfduHY4-18" edge="1">
                    <mxGeometry width="50" height="50" relative="1" as="geometry">
                        <mxPoint x="189.99999999999997" y="155" as="sourcePoint"/>
                        <mxPoint x="190.49999999999997" y="185" as="targetPoint"/>
                        <Array as="points">
                            <mxPoint x="190" y="180"/>
                        </Array>
                    </mxGeometry>
                </mxCell>
                <mxCell id="of-Or63fq2WvLNfduHY4-21" value="" style="endArrow=classic;html=1;rounded=0;entryX=1;entryY=0.5;entryDx=0;entryDy=0;entryPerimeter=0;" parent="of-Or63fq2WvLNfduHY4-1" target="of-Or63fq2WvLNfduHY4-18" edge="1">
                    <mxGeometry width="50" height="50" relative="1" as="geometry">
                        <mxPoint x="239.99999999999997" y="155" as="sourcePoint"/>
                        <mxPoint x="240.49999999999997" y="185" as="targetPoint"/>
                        <Array as="points">
                            <mxPoint x="240" y="180"/>
                        </Array>
                    </mxGeometry>
                </mxCell>
                <mxCell id="of-Or63fq2WvLNfduHY4-22" value="" style="endArrow=classic;html=1;rounded=0;" parent="of-Or63fq2WvLNfduHY4-1" edge="1">
                    <mxGeometry width="50" height="50" relative="1" as="geometry">
                        <mxPoint x="214.70999999999998" y="205" as="sourcePoint"/>
                        <mxPoint x="215.20999999999998" y="235" as="targetPoint"/>
                    </mxGeometry>
                </mxCell>
                <mxCell id="of-Or63fq2WvLNfduHY4-23" value="&lt;font data-font-src=&quot;https://fonts.googleapis.com/css?family=Sarabun&quot; face=&quot;Sarabun&quot;&gt;ตัวเชื่อม&lt;/font&gt;" style="text;html=1;align=center;verticalAlign=middle;resizable=0;points=[];autosize=1;strokeColor=none;fillColor=none;" parent="of-Or63fq2WvLNfduHY4-1" vertex="1">
                    <mxGeometry x="220" y="190" width="60" height="30" as="geometry"/>
                </mxCell>
                <mxCell id="of-Or63fq2WvLNfduHY4-24" value="" style="endArrow=classic;html=1;rounded=0;" parent="of-Or63fq2WvLNfduHY4-1" edge="1">
                    <mxGeometry width="50" height="50" relative="1" as="geometry">
                        <mxPoint x="353.71" y="165" as="sourcePoint"/>
                        <mxPoint x="354.21" y="195" as="targetPoint"/>
                    </mxGeometry>
                </mxCell>
                <mxCell id="of-Or63fq2WvLNfduHY4-25" value="" style="verticalLabelPosition=bottom;verticalAlign=top;html=1;shape=offPageConnector;rounded=0;size=0.5;" parent="of-Or63fq2WvLNfduHY4-1" vertex="1">
                    <mxGeometry x="339" y="195" width="30" height="30" as="geometry"/>
                </mxCell>
                <mxCell id="of-Or63fq2WvLNfduHY4-26" value="" style="endArrow=classic;html=1;rounded=0;" parent="of-Or63fq2WvLNfduHY4-1" edge="1">
                    <mxGeometry width="50" height="50" relative="1" as="geometry">
                        <mxPoint x="405.71" y="195" as="sourcePoint"/>
                        <mxPoint x="406.21" y="225" as="targetPoint"/>
                    </mxGeometry>
                </mxCell>
                <mxCell id="of-Or63fq2WvLNfduHY4-27" value="" style="verticalLabelPosition=bottom;verticalAlign=top;html=1;shape=offPageConnector;rounded=0;size=0.5;" parent="of-Or63fq2WvLNfduHY4-1" vertex="1">
                    <mxGeometry x="391" y="165" width="30" height="30" as="geometry"/>
                </mxCell>
                <mxCell id="of-Or63fq2WvLNfduHY4-28" value="หน้าต่อไป" style="text;html=1;align=center;verticalAlign=middle;resizable=0;points=[];autosize=1;strokeColor=none;fillColor=none;fontFamily=Sarabun;fontSource=https%3A%2F%2Ffonts.googleapis.com%2Fcss%3Ffamily%3DSarabun;" parent="of-Or63fq2WvLNfduHY4-1" vertex="1">
                    <mxGeometry x="345" y="220" width="70" height="30" as="geometry"/>
                </mxCell>
                <mxCell id="of-Or63fq2WvLNfduHY4-29" value="ก" style="text;html=1;align=center;verticalAlign=middle;resizable=0;points=[];autosize=1;strokeColor=none;fillColor=none;fontFamily=Sarabun;fontSource=https%3A%2F%2Ffonts.googleapis.com%2Fcss%3Ffamily%3DSarabun;" parent="of-Or63fq2WvLNfduHY4-1" vertex="1">
                    <mxGeometry x="339" y="190" width="30" height="30" as="geometry"/>
                </mxCell>
                <mxCell id="of-Or63fq2WvLNfduHY4-30" value="ก" style="text;html=1;align=center;verticalAlign=middle;resizable=0;points=[];autosize=1;strokeColor=none;fillColor=none;fontFamily=Sarabun;fontSource=https%3A%2F%2Ffonts.googleapis.com%2Fcss%3Ffamily%3DSarabun;" parent="of-Or63fq2WvLNfduHY4-1" vertex="1">
                    <mxGeometry x="391" y="160" width="30" height="30" as="geometry"/>
                </mxCell>
                <mxCell id="of-Or63fq2WvLNfduHY4-31" value="แสดงผล/รับค่า" style="shape=parallelogram;perimeter=parallelogramPerimeter;whiteSpace=wrap;html=1;fixedSize=1;fontFamily=Sarabun;fontSource=https%3A%2F%2Ffonts.googleapis.com%2Fcss%3Ffamily%3DSarabun;" parent="of-Or63fq2WvLNfduHY4-1" vertex="1">
                    <mxGeometry x="450" y="210" width="120" height="30" as="geometry"/>
                </mxCell>
                <mxCell id="of-Or63fq2WvLNfduHY4-32" value="" style="endArrow=classic;html=1;rounded=0;" parent="of-Or63fq2WvLNfduHY4-1" edge="1">
                    <mxGeometry width="50" height="50" relative="1" as="geometry">
                        <mxPoint x="509.71" y="180" as="sourcePoint"/>
                        <mxPoint x="510.21" y="210" as="targetPoint"/>
                    </mxGeometry>
                </mxCell>
                <mxCell id="of-Or63fq2WvLNfduHY4-33" value="" style="endArrow=classic;html=1;rounded=0;" parent="of-Or63fq2WvLNfduHY4-1" edge="1">
                    <mxGeometry width="50" height="50" relative="1" as="geometry">
                        <mxPoint x="509.71" y="240" as="sourcePoint"/>
                        <mxPoint x="510.21" y="270" as="targetPoint"/>
                    </mxGeometry>
                </mxCell>
                <mxCell id="542" value="" style="edgeStyle=none;html=1;" parent="1" source="of-Or63fq2WvLNfduHY4-35" target="539" edge="1">
                    <mxGeometry relative="1" as="geometry"/>
                </mxCell>
                <mxCell id="of-Or63fq2WvLNfduHY4-35" value="&lt;font data-font-src=&quot;https://fonts.googleapis.com/css?family=Sarabun&quot; face=&quot;Sarabun&quot;&gt;เริ่มต้น&lt;/font&gt;" style="ellipse;whiteSpace=wrap;html=1;fontStyle=0" parent="1" vertex="1">
                    <mxGeometry x="-1505" y="-1910" width="130" height="30" as="geometry"/>
                </mxCell>
                <mxCell id="126" value="" style="edgeStyle=none;html=1;" parent="1" source="of-Or63fq2WvLNfduHY4-39" target="of-Or63fq2WvLNfduHY4-103" edge="1">
                    <mxGeometry relative="1" as="geometry"/>
                </mxCell>
                <mxCell id="of-Or63fq2WvLNfduHY4-39" value="กำหนดตัวแปร&lt;div&gt;&lt;span style=&quot;font-family: Sarabun; font-size: 14px; text-align: left; text-wrap-mode: nowrap;&quot;&gt;&amp;nbsp; &amp;nbsp; &amp;nbsp;coke=0, sun&lt;/span&gt;&lt;span style=&quot;font-family: Sarabun; font-size: 14px; text-align: left; text-wrap-mode: nowrap;&quot;&gt;=0,&lt;/span&gt;&lt;br style=&quot;font-family: Sarabun; font-size: 14px; text-align: left; text-wrap-mode: nowrap;&quot;&gt;&lt;span style=&quot;font-family: Sarabun; font-size: 14px; text-align: left; text-wrap-mode: nowrap;&quot;&gt;green=0, nut&lt;/span&gt;&lt;span style=&quot;font-family: Sarabun; font-size: 14px; text-align: left; text-wrap-mode: nowrap;&quot;&gt;=0,late&lt;/span&gt;&lt;span style=&quot;font-family: Sarabun; font-size: 14px; text-align: left; text-wrap-mode: nowrap;&quot;&gt;=0,&lt;/span&gt;&lt;br style=&quot;font-family: Sarabun; font-size: 14px; text-align: left; text-wrap-mode: nowrap;&quot;&gt;&lt;span style=&quot;font-family: Sarabun; font-size: 14px; text-align: left; text-wrap-mode: nowrap;&quot;&gt;ame=0, som&lt;/span&gt;&lt;span style=&quot;font-family: Sarabun; font-size: 14px; text-align: left; text-wrap-mode: nowrap;&quot;&gt;=&lt;/span&gt;&lt;span style=&quot;font-family: Sarabun; font-size: 14px; text-align: left; text-wrap-mode: nowrap; background-color: transparent; color: light-dark(rgb(0, 0, 0), rgb(255, 255, 255));&quot;&gt;0,sum=0&lt;/span&gt;&lt;/div&gt;" style="whiteSpace=wrap;html=1;fontStyle=0" parent="1" vertex="1">
                    <mxGeometry x="-1536" y="-1350" width="180" height="70" as="geometry"/>
                </mxCell>
                <mxCell id="WRIfh3sDyCiLUNuFMf4n-97" value="" style="edgeStyle=orthogonalEdgeStyle;rounded=0;orthogonalLoop=1;jettySize=auto;html=1;entryX=0.5;entryY=0;entryDx=0;entryDy=0;" parent="1" source="of-Or63fq2WvLNfduHY4-52" target="of-Or63fq2WvLNfduHY4-54" edge="1">
                    <mxGeometry relative="1" as="geometry">
                        <mxPoint x="-1445" y="-870" as="targetPoint"/>
                        <Array as="points">
                            <mxPoint x="-1448" y="-960"/>
                            <mxPoint x="-1448" y="-960"/>
                        </Array>
                    </mxGeometry>
                </mxCell>
                <mxCell id="of-Or63fq2WvLNfduHY4-52" value="&lt;div&gt;&lt;br&gt;&lt;/div&gt;&lt;div&gt;&lt;span style=&quot;background-color: transparent; color: light-dark(rgb(0, 0, 0), rgb(255, 255, 255));&quot;&gt;แสดงเมณูประเภทน้ำ&lt;/span&gt;&lt;/div&gt;&lt;div&gt;และประเภทขนม&lt;br&gt;&lt;div&gt;&lt;br&gt;&lt;/div&gt;&lt;/div&gt;" style="shape=parallelogram;perimeter=parallelogramPerimeter;whiteSpace=wrap;html=1;fixedSize=1;" parent="1" vertex="1">
                    <mxGeometry x="-1510" y="-1010" width="130" height="40" as="geometry"/>
                </mxCell>
                <mxCell id="of-Or63fq2WvLNfduHY4-61" value="" style="edgeStyle=orthogonalEdgeStyle;rounded=0;orthogonalLoop=1;jettySize=auto;html=1;entryX=0.5;entryY=0;entryDx=0;entryDy=0;exitX=0;exitY=0.5;exitDx=0;exitDy=0;" parent="1" source="of-Or63fq2WvLNfduHY4-54" target="355" edge="1">
                    <mxGeometry relative="1" as="geometry">
                        <mxPoint x="-1830" y="-840" as="targetPoint"/>
                        <Array as="points">
                            <mxPoint x="-1671" y="-875"/>
                        </Array>
                    </mxGeometry>
                </mxCell>
                <mxCell id="of-Or63fq2WvLNfduHY4-64" value="ประเภทขนม" style="edgeLabel;html=1;align=center;verticalAlign=middle;resizable=0;points=[];" parent="of-Or63fq2WvLNfduHY4-61" vertex="1" connectable="0">
                    <mxGeometry x="-0.0852" y="1" relative="1" as="geometry">
                        <mxPoint as="offset"/>
                    </mxGeometry>
                </mxCell>
                <mxCell id="of-Or63fq2WvLNfduHY4-63" value="" style="edgeStyle=orthogonalEdgeStyle;rounded=0;orthogonalLoop=1;jettySize=auto;html=1;exitX=1;exitY=0.5;exitDx=0;exitDy=0;entryX=0.5;entryY=0;entryDx=0;entryDy=0;" parent="1" source="of-Or63fq2WvLNfduHY4-54" target="362" edge="1">
                    <mxGeometry relative="1" as="geometry">
                        <mxPoint x="-1250" y="-840" as="sourcePoint"/>
                        <mxPoint x="-1050" y="-856" as="targetPoint"/>
                        <Array as="points">
                            <mxPoint x="-1080" y="-875"/>
                        </Array>
                    </mxGeometry>
                </mxCell>
                <mxCell id="of-Or63fq2WvLNfduHY4-65" value="ประเภทน้ำ" style="edgeLabel;html=1;align=center;verticalAlign=middle;resizable=0;points=[];" parent="of-Or63fq2WvLNfduHY4-63" vertex="1" connectable="0">
                    <mxGeometry x="-0.2111" y="1" relative="1" as="geometry">
                        <mxPoint y="2" as="offset"/>
                    </mxGeometry>
                </mxCell>
                <mxCell id="of-Or63fq2WvLNfduHY4-54" value="เลือกประเภทน้ำ&lt;div&gt;หรือประเภทขนม&lt;/div&gt;" style="rhombus;whiteSpace=wrap;html=1;" parent="1" vertex="1">
                    <mxGeometry x="-1498" y="-920.0000000000001" width="100" height="90" as="geometry"/>
                </mxCell>
                <mxCell id="of-Or63fq2WvLNfduHY4-67" value="" style="edgeStyle=orthogonalEdgeStyle;rounded=0;orthogonalLoop=1;jettySize=auto;html=1;" parent="1" source="of-Or63fq2WvLNfduHY4-60" target="of-Or63fq2WvLNfduHY4-66" edge="1">
                    <mxGeometry relative="1" as="geometry"/>
                </mxCell>
                <mxCell id="of-Or63fq2WvLNfduHY4-60" value="&lt;font&gt;แสดง&lt;/font&gt;&lt;div&gt;&lt;font&gt;&lt;span style=&quot;font-family: Sarabun; text-align: left; text-wrap-mode: nowrap;&quot;&gt;- เมล็ดทานตะวัน 13 บาท&amp;nbsp;&lt;/span&gt;&lt;br style=&quot;font-family: Sarabun; text-align: left; text-wrap-mode: nowrap;&quot;&gt;&lt;span style=&quot;font-family: Sarabun; text-align: left; text-wrap-mode: nowrap;&quot;&gt;- ถั่วแปบ 20 บาท&lt;/span&gt;&lt;br style=&quot;font-family: Sarabun; text-align: left; text-wrap-mode: nowrap;&quot;&gt;&lt;span style=&quot;font-family: Sarabun; text-align: left; text-wrap-mode: nowrap;&quot;&gt;- จิ้นส้มหมก 15 บาท&lt;/span&gt;&lt;/font&gt;&lt;/div&gt;" style="shape=parallelogram;perimeter=parallelogramPerimeter;whiteSpace=wrap;html=1;fixedSize=1;fontSize=10;" parent="1" vertex="1">
                    <mxGeometry x="-1755.56" y="-730.01" width="170" height="57.19" as="geometry"/>
                </mxCell>
                <mxCell id="of-Or63fq2WvLNfduHY4-110" value="" style="edgeStyle=orthogonalEdgeStyle;rounded=0;orthogonalLoop=1;jettySize=auto;html=1;" parent="1" source="of-Or63fq2WvLNfduHY4-62" target="of-Or63fq2WvLNfduHY4-68" edge="1">
                    <mxGeometry relative="1" as="geometry"/>
                </mxCell>
                <mxCell id="of-Or63fq2WvLNfduHY4-62" value="&lt;font&gt;แสดง&lt;/font&gt;&lt;div&gt;&lt;span style=&quot;font-family: Sarabun; text-align: left; text-wrap-mode: nowrap;&quot;&gt;&amp;nbsp; &amp;nbsp; &amp;nbsp; &amp;nbsp; &amp;nbsp; &amp;nbsp; &amp;nbsp; &amp;nbsp; - โค้ก กระป๋องละ 10 บาท&lt;/span&gt;&lt;span style=&quot;font-family: Sarabun; text-align: left; white-space: pre;&quot;&gt;&#x9;&lt;/span&gt;&lt;span style=&quot;font-family: Sarabun; text-align: left; white-space: pre;&quot;&gt;&#x9;&lt;/span&gt;&lt;span style=&quot;font-family: Sarabun; text-align: left; white-space: pre;&quot;&gt;&#x9;&lt;/span&gt;&lt;span style=&quot;font-family: Sarabun; text-align: left; white-space: pre;&quot;&gt;&#x9;&lt;/span&gt;&lt;br style=&quot;font-family: Sarabun; text-align: left; text-wrap-mode: nowrap;&quot;&gt;&lt;span style=&quot;font-family: Sarabun; text-align: left; text-wrap-mode: nowrap;&quot;&gt;&amp;nbsp; &lt;span style=&quot;white-space: pre;&quot;&gt;&#x9;&lt;/span&gt;&lt;span style=&quot;white-space: pre;&quot;&gt;&#x9;&lt;/span&gt;- น้ำเขียว กระป๋องละ 12 บาท&lt;/span&gt;&lt;span style=&quot;font-family: Sarabun; text-align: left; white-space: pre;&quot;&gt;&#x9;&lt;/span&gt;&lt;span style=&quot;font-family: Sarabun; text-align: left; white-space: pre;&quot;&gt;&#x9;&lt;/span&gt;&lt;span style=&quot;font-family: Sarabun; text-align: left; white-space: pre;&quot;&gt;&#x9;&lt;/span&gt;&lt;br style=&quot;font-family: Sarabun; text-align: left; text-wrap-mode: nowrap;&quot;&gt;&lt;span style=&quot;font-family: Sarabun; text-align: left; text-wrap-mode: nowrap;&quot;&gt;&lt;span style=&quot;white-space: pre;&quot;&gt;&#x9;&lt;/span&gt;&lt;span style=&quot;white-space: pre;&quot;&gt;&#x9;&lt;/span&gt;- อเมริกาโน่ 30 บาท&lt;/span&gt;&lt;span style=&quot;font-family: Sarabun; text-align: left; white-space: pre;&quot;&gt;&#x9;&lt;/span&gt;&lt;span style=&quot;font-family: Sarabun; text-align: left; white-space: pre;&quot;&gt;&#x9;&lt;/span&gt;&lt;span style=&quot;font-family: Sarabun; text-align: left; white-space: pre;&quot;&gt;&#x9;&lt;/span&gt;&lt;span style=&quot;font-family: Sarabun; text-align: left; white-space: pre;&quot;&gt;&#x9;&lt;/span&gt;&lt;span style=&quot;font-family: Sarabun; text-align: left; white-space: pre;&quot;&gt;&#x9;&lt;/span&gt;&lt;/div&gt;&lt;div style=&quot;text-align: center;&quot;&gt;&lt;span style=&quot;background-color: transparent; color: light-dark(rgb(0, 0, 0), rgb(255, 255, 255)); text-align: left;&quot;&gt;&amp;nbsp; &amp;nbsp;&lt;/span&gt;&lt;span style=&quot;background-color: transparent; color: light-dark(rgb(0, 0, 0), rgb(255, 255, 255)); text-wrap-mode: nowrap; font-family: Sarabun; text-align: left;&quot;&gt;- ลาเต้ หวานเจี๊ยบ 35 บาท&lt;/span&gt;&lt;span style=&quot;background-color: transparent; color: light-dark(rgb(0, 0, 0), rgb(255, 255, 255)); font-family: Sarabun; text-align: left; white-space: pre;&quot;&gt;&#x9;&lt;/span&gt;&lt;/div&gt;" style="shape=parallelogram;perimeter=parallelogramPerimeter;whiteSpace=wrap;html=1;fixedSize=1;fontSize=10;" parent="1" vertex="1">
                    <mxGeometry x="-1170" y="-713.5900000000001" width="180" height="63.59" as="geometry"/>
                </mxCell>
                <mxCell id="of-Or63fq2WvLNfduHY4-115" value="" style="edgeStyle=orthogonalEdgeStyle;rounded=0;orthogonalLoop=1;jettySize=auto;html=1;entryX=0.5;entryY=0;entryDx=0;entryDy=0;" parent="1" source="of-Or63fq2WvLNfduHY4-66" target="of-Or63fq2WvLNfduHY4-114" edge="1">
                    <mxGeometry relative="1" as="geometry"/>
                </mxCell>
                <mxCell id="of-Or63fq2WvLNfduHY4-116" value="ใช่" style="edgeLabel;html=1;align=center;verticalAlign=middle;resizable=0;points=[];" parent="of-Or63fq2WvLNfduHY4-115" vertex="1" connectable="0">
                    <mxGeometry x="-0.2091" y="1" relative="1" as="geometry">
                        <mxPoint as="offset"/>
                    </mxGeometry>
                </mxCell>
                <mxCell id="of-Or63fq2WvLNfduHY4-118" value="" style="edgeStyle=orthogonalEdgeStyle;rounded=0;orthogonalLoop=1;jettySize=auto;html=1;entryX=0.5;entryY=0;entryDx=0;entryDy=0;" parent="1" source="of-Or63fq2WvLNfduHY4-66" target="of-Or63fq2WvLNfduHY4-117" edge="1">
                    <mxGeometry relative="1" as="geometry">
                        <Array as="points">
                            <mxPoint x="-1618" y="-610"/>
                            <mxPoint x="-1618" y="-584"/>
                        </Array>
                    </mxGeometry>
                </mxCell>
                <mxCell id="of-Or63fq2WvLNfduHY4-119" value="ไม่" style="edgeLabel;html=1;align=center;verticalAlign=middle;resizable=0;points=[];" parent="of-Or63fq2WvLNfduHY4-118" vertex="1" connectable="0">
                    <mxGeometry x="-0.3871" y="2" relative="1" as="geometry">
                        <mxPoint as="offset"/>
                    </mxGeometry>
                </mxCell>
                <mxCell id="of-Or63fq2WvLNfduHY4-66" value="&lt;span style=&quot;font-family: Sarabun; color: rgb(0, 0, 0);&quot;&gt;&lt;font style=&quot;font-size: 8px;&quot;&gt;selecksnack=1&lt;/font&gt;&lt;/span&gt;&lt;div style=&quot;&quot;&gt;&lt;span style=&quot;font-family: Sarabun; color: rgb(0, 0, 0);&quot;&gt;&lt;font style=&quot;font-size: 8px;&quot;&gt;หรือไม่&lt;/font&gt;&lt;/span&gt;&lt;/div&gt;" style="rhombus;whiteSpace=wrap;html=1;fontSize=10;" parent="1" vertex="1">
                    <mxGeometry x="-1710.56" y="-650.0049999999999" width="80" height="80" as="geometry"/>
                </mxCell>
                <mxCell id="of-Or63fq2WvLNfduHY4-108" value="" style="edgeStyle=orthogonalEdgeStyle;rounded=0;orthogonalLoop=1;jettySize=auto;html=1;entryX=0.5;entryY=0;entryDx=0;entryDy=0;" parent="1" source="of-Or63fq2WvLNfduHY4-68" target="WRIfh3sDyCiLUNuFMf4n-5" edge="1">
                    <mxGeometry relative="1" as="geometry">
                        <mxPoint x="-1080" y="-493.6" as="targetPoint"/>
                    </mxGeometry>
                </mxCell>
                <mxCell id="WRIfh3sDyCiLUNuFMf4n-4" value="ไม่" style="edgeLabel;html=1;align=center;verticalAlign=middle;resizable=0;points=[];" parent="of-Or63fq2WvLNfduHY4-108" vertex="1" connectable="0">
                    <mxGeometry x="-0.2114" y="4" relative="1" as="geometry">
                        <mxPoint x="-5" as="offset"/>
                    </mxGeometry>
                </mxCell>
                <mxCell id="WRIfh3sDyCiLUNuFMf4n-2" value="" style="edgeStyle=orthogonalEdgeStyle;rounded=0;orthogonalLoop=1;jettySize=auto;html=1;entryX=0.5;entryY=0;entryDx=0;entryDy=0;" parent="1" source="of-Or63fq2WvLNfduHY4-68" target="WRIfh3sDyCiLUNuFMf4n-1" edge="1">
                    <mxGeometry relative="1" as="geometry"/>
                </mxCell>
                <mxCell id="WRIfh3sDyCiLUNuFMf4n-3" value="ใช่" style="edgeLabel;html=1;align=center;verticalAlign=middle;resizable=0;points=[];" parent="WRIfh3sDyCiLUNuFMf4n-2" vertex="1" connectable="0">
                    <mxGeometry x="-0.1793" y="-1" relative="1" as="geometry">
                        <mxPoint as="offset"/>
                    </mxGeometry>
                </mxCell>
                <mxCell id="of-Or63fq2WvLNfduHY4-68" value="&lt;font style=&quot;font-size: 9px;&quot;&gt;เลือกโค้กกระป๋องหรือไม่&lt;/font&gt;" style="rhombus;whiteSpace=wrap;html=1;fontSize=10;" parent="1" vertex="1">
                    <mxGeometry x="-1120" y="-628.6050000000001" width="80" height="80" as="geometry"/>
                </mxCell>
                <mxCell id="348" value="" style="edgeStyle=none;html=1;" parent="1" source="of-Or63fq2WvLNfduHY4-103" target="347" edge="1">
                    <mxGeometry relative="1" as="geometry"/>
                </mxCell>
                <mxCell id="of-Or63fq2WvLNfduHY4-103" value="&lt;div&gt;&lt;br&gt;&lt;/div&gt;กำหนดตัวแปร&lt;div&gt;a=50,b=50,c=50,d=50,e=50,f=50,g=50&lt;/div&gt;&lt;div&gt;&lt;br&gt;&lt;/div&gt;" style="rounded=0;whiteSpace=wrap;html=1;" parent="1" vertex="1">
                    <mxGeometry x="-1555.5" y="-1240" width="215" height="40" as="geometry"/>
                </mxCell>
                <mxCell id="of-Or63fq2WvLNfduHY4-121" value="" style="edgeStyle=orthogonalEdgeStyle;rounded=0;orthogonalLoop=1;jettySize=auto;html=1;" parent="1" source="of-Or63fq2WvLNfduHY4-114" target="of-Or63fq2WvLNfduHY4-120" edge="1">
                    <mxGeometry relative="1" as="geometry"/>
                </mxCell>
                <mxCell id="of-Or63fq2WvLNfduHY4-125" value="ไม่" style="edgeLabel;html=1;align=center;verticalAlign=middle;resizable=0;points=[];" parent="of-Or63fq2WvLNfduHY4-121" vertex="1" connectable="0">
                    <mxGeometry x="0.1199" y="-2" relative="1" as="geometry">
                        <mxPoint as="offset"/>
                    </mxGeometry>
                </mxCell>
                <mxCell id="of-Or63fq2WvLNfduHY4-191" value="" style="edgeStyle=orthogonalEdgeStyle;rounded=0;orthogonalLoop=1;jettySize=auto;html=1;entryX=0.5;entryY=0;entryDx=0;entryDy=0;" parent="1" source="of-Or63fq2WvLNfduHY4-114" edge="1">
                    <mxGeometry relative="1" as="geometry">
                        <mxPoint x="-1982.56" y="-394.9999999999998" as="targetPoint"/>
                    </mxGeometry>
                </mxCell>
                <mxCell id="of-Or63fq2WvLNfduHY4-192" value="ใช่" style="edgeLabel;html=1;align=center;verticalAlign=middle;resizable=0;points=[];" parent="of-Or63fq2WvLNfduHY4-191" vertex="1" connectable="0">
                    <mxGeometry x="-0.1304" y="2" relative="1" as="geometry">
                        <mxPoint x="66" as="offset"/>
                    </mxGeometry>
                </mxCell>
                <mxCell id="of-Or63fq2WvLNfduHY4-114" value="s&amp;lt;=0 หรือไม่" style="rhombus;whiteSpace=wrap;html=1;fontSize=10;" parent="1" vertex="1">
                    <mxGeometry x="-1835.56" y="-590.0049999999999" width="80" height="80" as="geometry"/>
                </mxCell>
                <mxCell id="of-Or63fq2WvLNfduHY4-132" value="" style="edgeStyle=orthogonalEdgeStyle;rounded=0;orthogonalLoop=1;jettySize=auto;html=1;" parent="1" source="of-Or63fq2WvLNfduHY4-117" target="of-Or63fq2WvLNfduHY4-131" edge="1">
                    <mxGeometry relative="1" as="geometry"/>
                </mxCell>
                <mxCell id="of-Or63fq2WvLNfduHY4-159" value="ใช่" style="edgeLabel;html=1;align=center;verticalAlign=middle;resizable=0;points=[];" parent="of-Or63fq2WvLNfduHY4-132" vertex="1" connectable="0">
                    <mxGeometry x="0.1712" y="-1" relative="1" as="geometry">
                        <mxPoint as="offset"/>
                    </mxGeometry>
                </mxCell>
                <mxCell id="592" value="" style="edgeStyle=orthogonalEdgeStyle;html=1;entryX=0.5;entryY=0;entryDx=0;entryDy=0;rounded=0;" parent="1" source="of-Or63fq2WvLNfduHY4-117" target="of-Or63fq2WvLNfduHY4-167" edge="1">
                    <mxGeometry relative="1" as="geometry"/>
                </mxCell>
                <mxCell id="of-Or63fq2WvLNfduHY4-117" value="&lt;span style=&quot;font-family: Sarabun; color: rgb(0, 0, 0);&quot;&gt;&lt;font style=&quot;font-size: 8px;&quot;&gt;selecksnack=2&lt;/font&gt;&lt;/span&gt;&lt;div style=&quot;&quot;&gt;&lt;span style=&quot;font-family: Sarabun; color: rgb(0, 0, 0);&quot;&gt;&lt;font style=&quot;font-size: 8px;&quot;&gt;หรือไม่&lt;/font&gt;&lt;/span&gt;&lt;/div&gt;" style="rhombus;whiteSpace=wrap;html=1;fontSize=10;" parent="1" vertex="1">
                    <mxGeometry x="-1599" y="-570.0049999999999" width="80" height="80" as="geometry"/>
                </mxCell>
                <mxCell id="of-Or63fq2WvLNfduHY4-127" value="" style="edgeStyle=orthogonalEdgeStyle;rounded=0;orthogonalLoop=1;jettySize=auto;html=1;" parent="1" source="of-Or63fq2WvLNfduHY4-120" target="of-Or63fq2WvLNfduHY4-126" edge="1">
                    <mxGeometry relative="1" as="geometry"/>
                </mxCell>
                <mxCell id="of-Or63fq2WvLNfduHY4-120" value="sun=sun+1" style="whiteSpace=wrap;html=1;fontSize=10;" parent="1" vertex="1">
                    <mxGeometry x="-1860.06" y="-490.01" width="120" height="30" as="geometry"/>
                </mxCell>
                <mxCell id="427" value="" style="edgeStyle=none;html=1;" parent="1" source="of-Or63fq2WvLNfduHY4-122" target="426" edge="1">
                    <mxGeometry relative="1" as="geometry"/>
                </mxCell>
                <mxCell id="of-Or63fq2WvLNfduHY4-122" value="แสดง&lt;div&gt;สินค้าหมด&lt;/div&gt;" style="shape=parallelogram;perimeter=parallelogramPerimeter;whiteSpace=wrap;html=1;fixedSize=1;fontSize=10;" parent="1" vertex="1">
                    <mxGeometry x="-2160" y="-424.9899999999998" width="98" height="30" as="geometry"/>
                </mxCell>
                <mxCell id="358" value="" style="edgeStyle=none;html=1;" parent="1" source="of-Or63fq2WvLNfduHY4-126" edge="1">
                    <mxGeometry relative="1" as="geometry">
                        <mxPoint x="-1800" y="-120" as="targetPoint"/>
                    </mxGeometry>
                </mxCell>
                <mxCell id="of-Or63fq2WvLNfduHY4-126" value="s=s-1" style="whiteSpace=wrap;html=1;fontSize=10;" parent="1" vertex="1">
                    <mxGeometry x="-1860.06" y="-424.9999999999998" width="120" height="30" as="geometry"/>
                </mxCell>
                <mxCell id="of-Or63fq2WvLNfduHY4-137" value="" style="edgeStyle=orthogonalEdgeStyle;rounded=0;orthogonalLoop=1;jettySize=auto;html=1;entryX=0.5;entryY=0;entryDx=0;entryDy=0;" parent="1" source="of-Or63fq2WvLNfduHY4-131" target="of-Or63fq2WvLNfduHY4-135" edge="1">
                    <mxGeometry relative="1" as="geometry"/>
                </mxCell>
                <mxCell id="4r5OtbxDzH6CqMdZdlSV-17" value="ไม่" style="edgeLabel;html=1;align=center;verticalAlign=middle;resizable=0;points=[];" parent="of-Or63fq2WvLNfduHY4-137" vertex="1" connectable="0">
                    <mxGeometry x="0.1015" y="1" relative="1" as="geometry">
                        <mxPoint as="offset"/>
                    </mxGeometry>
                </mxCell>
                <mxCell id="of-Or63fq2WvLNfduHY4-187" value="" style="edgeStyle=orthogonalEdgeStyle;rounded=0;orthogonalLoop=1;jettySize=auto;html=1;entryX=1;entryY=1;entryDx=0;entryDy=0;" parent="1" source="of-Or63fq2WvLNfduHY4-131" target="of-Or63fq2WvLNfduHY4-193" edge="1">
                    <mxGeometry relative="1" as="geometry">
                        <mxPoint x="-1967.56" y="-379.9999999999998" as="targetPoint"/>
                        <Array as="points">
                            <mxPoint x="-1964" y="-380"/>
                        </Array>
                    </mxGeometry>
                </mxCell>
                <mxCell id="of-Or63fq2WvLNfduHY4-188" value="ใช่" style="edgeLabel;html=1;align=center;verticalAlign=middle;resizable=0;points=[];" parent="of-Or63fq2WvLNfduHY4-187" vertex="1" connectable="0">
                    <mxGeometry x="-0.6061" y="1" relative="1" as="geometry">
                        <mxPoint as="offset"/>
                    </mxGeometry>
                </mxCell>
                <mxCell id="of-Or63fq2WvLNfduHY4-131" value="nut&amp;lt;=0หรือไม่" style="rhombus;whiteSpace=wrap;html=1;fontSize=10;" parent="1" vertex="1">
                    <mxGeometry x="-1710.56" y="-419.9950000000001" width="80" height="80" as="geometry"/>
                </mxCell>
                <mxCell id="of-Or63fq2WvLNfduHY4-138" value="" style="edgeStyle=orthogonalEdgeStyle;rounded=0;orthogonalLoop=1;jettySize=auto;html=1;" parent="1" source="of-Or63fq2WvLNfduHY4-135" target="of-Or63fq2WvLNfduHY4-136" edge="1">
                    <mxGeometry relative="1" as="geometry"/>
                </mxCell>
                <mxCell id="of-Or63fq2WvLNfduHY4-135" value="nut=nut+1" style="whiteSpace=wrap;html=1;fontSize=10;" parent="1" vertex="1">
                    <mxGeometry x="-1730.56" y="-300.01" width="120" height="30" as="geometry"/>
                </mxCell>
                <mxCell id="of-Or63fq2WvLNfduHY4-177" value="" style="edgeStyle=orthogonalEdgeStyle;rounded=0;orthogonalLoop=1;jettySize=auto;html=1;entryX=0.5;entryY=0;entryDx=0;entryDy=0;exitX=0.5;exitY=1;exitDx=0;exitDy=0;" parent="1" source="of-Or63fq2WvLNfduHY4-136" edge="1">
                    <mxGeometry relative="1" as="geometry">
                        <mxPoint x="-1675.51652173913" y="-240.01" as="sourcePoint"/>
                        <mxPoint x="-1452.56" y="-120.01" as="targetPoint"/>
                        <Array as="points">
                            <mxPoint x="-1670.56" y="-150.01"/>
                            <mxPoint x="-1452.56" y="-150.01"/>
                        </Array>
                    </mxGeometry>
                </mxCell>
                <mxCell id="of-Or63fq2WvLNfduHY4-136" value="n=n+1" style="whiteSpace=wrap;html=1;fontSize=10;" parent="1" vertex="1">
                    <mxGeometry x="-1730.56" y="-250.01" width="120" height="30" as="geometry"/>
                </mxCell>
                <mxCell id="of-Or63fq2WvLNfduHY4-156" value="" style="edgeStyle=orthogonalEdgeStyle;rounded=0;orthogonalLoop=1;jettySize=auto;html=1;" parent="1" source="of-Or63fq2WvLNfduHY4-153" target="of-Or63fq2WvLNfduHY4-155" edge="1">
                    <mxGeometry relative="1" as="geometry"/>
                </mxCell>
                <mxCell id="of-Or63fq2WvLNfduHY4-153" value="som=som+1" style="whiteSpace=wrap;html=1;fontSize=10;" parent="1" vertex="1">
                    <mxGeometry x="-1523.5" y="-328.6" width="120" height="30" as="geometry"/>
                </mxCell>
                <mxCell id="WRIfh3sDyCiLUNuFMf4n-93" value="" style="edgeStyle=orthogonalEdgeStyle;rounded=0;orthogonalLoop=1;jettySize=auto;html=1;entryX=0;entryY=0.5;entryDx=0;entryDy=0;" parent="1" source="of-Or63fq2WvLNfduHY4-155" target="of-Or63fq2WvLNfduHY4-184" edge="1">
                    <mxGeometry relative="1" as="geometry">
                        <mxPoint x="-1464.934368670762" y="-90.13563132923788" as="targetPoint"/>
                        <Array as="points">
                            <mxPoint x="-1470" y="-132"/>
                        </Array>
                    </mxGeometry>
                </mxCell>
                <mxCell id="of-Or63fq2WvLNfduHY4-155" value="s=s+1" style="whiteSpace=wrap;html=1;fontSize=10;" parent="1" vertex="1">
                    <mxGeometry x="-1523.5" y="-258.6" width="120" height="30" as="geometry"/>
                </mxCell>
                <mxCell id="of-Or63fq2WvLNfduHY4-167" value="&lt;span style=&quot;font-family: Sarabun; color: rgb(0, 0, 0);&quot;&gt;&lt;font style=&quot;font-size: 8px;&quot;&gt;selecksnack=3&lt;/font&gt;&lt;/span&gt;&lt;div style=&quot;&quot;&gt;&lt;span style=&quot;font-family: Sarabun; color: rgb(0, 0, 0);&quot;&gt;&lt;font style=&quot;font-size: 8px;&quot;&gt;หรือไม่&lt;/font&gt;&lt;/span&gt;&lt;/div&gt;" style="rhombus;whiteSpace=wrap;html=1;fontSize=10;" parent="1" vertex="1">
                    <mxGeometry x="-1465" y="-515.01" width="80" height="80" as="geometry"/>
                </mxCell>
                <mxCell id="368" value="" style="edgeStyle=none;html=1;" parent="1" source="of-Or63fq2WvLNfduHY4-184" target="367" edge="1">
                    <mxGeometry relative="1" as="geometry"/>
                </mxCell>
                <mxCell id="of-Or63fq2WvLNfduHY4-184" value="" style="ellipse;whiteSpace=wrap;html=1;aspect=fixed;" parent="1" vertex="1">
                    <mxGeometry x="-1462.5" y="-150" width="35" height="35" as="geometry"/>
                </mxCell>
                <mxCell id="of-Or63fq2WvLNfduHY4-196" value="" style="edgeStyle=orthogonalEdgeStyle;rounded=0;orthogonalLoop=1;jettySize=auto;html=1;" parent="1" source="of-Or63fq2WvLNfduHY4-193" target="of-Or63fq2WvLNfduHY4-122" edge="1">
                    <mxGeometry relative="1" as="geometry"/>
                </mxCell>
                <mxCell id="of-Or63fq2WvLNfduHY4-193" value="" style="ellipse;whiteSpace=wrap;html=1;aspect=fixed;" parent="1" vertex="1">
                    <mxGeometry x="-1990" y="-424.9899999999998" width="30" height="30" as="geometry"/>
                </mxCell>
                <mxCell id="4r5OtbxDzH6CqMdZdlSV-14" value="" style="edgeStyle=orthogonalEdgeStyle;rounded=0;orthogonalLoop=1;jettySize=auto;html=1;entryX=0.5;entryY=0;entryDx=0;entryDy=0;" parent="1" source="of-Or63fq2WvLNfduHY4-204" target="4r5OtbxDzH6CqMdZdlSV-13" edge="1">
                    <mxGeometry relative="1" as="geometry"/>
                </mxCell>
                <mxCell id="4r5OtbxDzH6CqMdZdlSV-15" value="ใช่" style="edgeLabel;html=1;align=center;verticalAlign=middle;resizable=0;points=[];" parent="4r5OtbxDzH6CqMdZdlSV-14" vertex="1" connectable="0">
                    <mxGeometry x="-0.3818" relative="1" as="geometry">
                        <mxPoint as="offset"/>
                    </mxGeometry>
                </mxCell>
                <mxCell id="4r5OtbxDzH6CqMdZdlSV-123" value="" style="edgeStyle=orthogonalEdgeStyle;rounded=0;orthogonalLoop=1;jettySize=auto;html=1;entryX=0.5;entryY=0;entryDx=0;entryDy=0;" parent="1" source="of-Or63fq2WvLNfduHY4-204" target="4r5OtbxDzH6CqMdZdlSV-122" edge="1">
                    <mxGeometry relative="1" as="geometry"/>
                </mxCell>
                <mxCell id="4r5OtbxDzH6CqMdZdlSV-126" value="ไม่" style="edgeLabel;html=1;align=center;verticalAlign=middle;resizable=0;points=[];" parent="4r5OtbxDzH6CqMdZdlSV-123" vertex="1" connectable="0">
                    <mxGeometry x="-0.2948" y="-1" relative="1" as="geometry">
                        <mxPoint as="offset"/>
                    </mxGeometry>
                </mxCell>
                <mxCell id="of-Or63fq2WvLNfduHY4-204" value="&lt;font style=&quot;font-size: 9px;&quot;&gt;ต้องการ&lt;/font&gt;&lt;div&gt;&lt;font style=&quot;font-size: 9px;&quot;&gt;ยกเลิกสินค้า&lt;/font&gt;&lt;/div&gt;" style="rhombus;whiteSpace=wrap;html=1;" parent="1" vertex="1">
                    <mxGeometry x="-1588" y="4620" width="93" height="90" as="geometry"/>
                </mxCell>
                <mxCell id="WRIfh3sDyCiLUNuFMf4n-9" value="" style="edgeStyle=orthogonalEdgeStyle;rounded=0;orthogonalLoop=1;jettySize=auto;html=1;" parent="1" source="WRIfh3sDyCiLUNuFMf4n-1" target="WRIfh3sDyCiLUNuFMf4n-8" edge="1">
                    <mxGeometry relative="1" as="geometry"/>
                </mxCell>
                <mxCell id="WRIfh3sDyCiLUNuFMf4n-10" value="ไม่" style="edgeLabel;html=1;align=center;verticalAlign=middle;resizable=0;points=[];" parent="WRIfh3sDyCiLUNuFMf4n-9" vertex="1" connectable="0">
                    <mxGeometry x="0.2146" y="1" relative="1" as="geometry">
                        <mxPoint as="offset"/>
                    </mxGeometry>
                </mxCell>
                <mxCell id="WRIfh3sDyCiLUNuFMf4n-14" value="" style="edgeStyle=orthogonalEdgeStyle;rounded=0;orthogonalLoop=1;jettySize=auto;html=1;entryX=0;entryY=0.5;entryDx=0;entryDy=0;" parent="1" source="WRIfh3sDyCiLUNuFMf4n-1" target="WRIfh3sDyCiLUNuFMf4n-68" edge="1">
                    <mxGeometry relative="1" as="geometry">
                        <mxPoint x="-885" y="-518.6050000000001" as="targetPoint"/>
                    </mxGeometry>
                </mxCell>
                <mxCell id="WRIfh3sDyCiLUNuFMf4n-1" value="d&amp;lt;=0หรือไม่" style="rhombus;whiteSpace=wrap;html=1;fontSize=10;" parent="1" vertex="1">
                    <mxGeometry x="-1240" y="-558.6050000000001" width="80" height="80" as="geometry"/>
                </mxCell>
                <mxCell id="WRIfh3sDyCiLUNuFMf4n-16" value="" style="edgeStyle=orthogonalEdgeStyle;rounded=0;orthogonalLoop=1;jettySize=auto;html=1;" parent="1" source="WRIfh3sDyCiLUNuFMf4n-5" target="WRIfh3sDyCiLUNuFMf4n-15" edge="1">
                    <mxGeometry relative="1" as="geometry"/>
                </mxCell>
                <mxCell id="WRIfh3sDyCiLUNuFMf4n-17" value="ใช่" style="edgeLabel;html=1;align=center;verticalAlign=middle;resizable=0;points=[];" parent="WRIfh3sDyCiLUNuFMf4n-16" vertex="1" connectable="0">
                    <mxGeometry x="-0.063" y="-2" relative="1" as="geometry">
                        <mxPoint as="offset"/>
                    </mxGeometry>
                </mxCell>
                <mxCell id="WRIfh3sDyCiLUNuFMf4n-29" value="" style="edgeStyle=orthogonalEdgeStyle;rounded=0;orthogonalLoop=1;jettySize=auto;html=1;entryX=0.5;entryY=0;entryDx=0;entryDy=0;" parent="1" source="WRIfh3sDyCiLUNuFMf4n-5" target="WRIfh3sDyCiLUNuFMf4n-28" edge="1">
                    <mxGeometry relative="1" as="geometry"/>
                </mxCell>
                <mxCell id="WRIfh3sDyCiLUNuFMf4n-30" value="ไม่" style="edgeLabel;html=1;align=center;verticalAlign=middle;resizable=0;points=[];" parent="WRIfh3sDyCiLUNuFMf4n-29" vertex="1" connectable="0">
                    <mxGeometry x="0.1083" relative="1" as="geometry">
                        <mxPoint as="offset"/>
                    </mxGeometry>
                </mxCell>
                <mxCell id="WRIfh3sDyCiLUNuFMf4n-5" value="เลือกน้ำเขียว&lt;div&gt;กระป๋องหรือไม่&lt;/div&gt;" style="rhombus;whiteSpace=wrap;html=1;fontSize=9;" parent="1" vertex="1">
                    <mxGeometry x="-1120" y="-508.6" width="80" height="80" as="geometry"/>
                </mxCell>
                <mxCell id="WRIfh3sDyCiLUNuFMf4n-12" value="" style="edgeStyle=orthogonalEdgeStyle;rounded=0;orthogonalLoop=1;jettySize=auto;html=1;" parent="1" source="WRIfh3sDyCiLUNuFMf4n-8" target="WRIfh3sDyCiLUNuFMf4n-11" edge="1">
                    <mxGeometry relative="1" as="geometry"/>
                </mxCell>
                <mxCell id="WRIfh3sDyCiLUNuFMf4n-8" value="โค้ก=โค้ก+1" style="whiteSpace=wrap;html=1;fontSize=10;" parent="1" vertex="1">
                    <mxGeometry x="-1260" y="-448.6" width="120" height="30" as="geometry"/>
                </mxCell>
                <mxCell id="WRIfh3sDyCiLUNuFMf4n-84" value="" style="edgeStyle=orthogonalEdgeStyle;rounded=0;orthogonalLoop=1;jettySize=auto;html=1;entryX=1;entryY=0.5;entryDx=0;entryDy=0;exitX=0.5;exitY=1;exitDx=0;exitDy=0;" parent="1" source="WRIfh3sDyCiLUNuFMf4n-11" target="of-Or63fq2WvLNfduHY4-184" edge="1">
                    <mxGeometry relative="1" as="geometry">
                        <mxPoint x="-1205" y="-150" as="targetPoint"/>
                    </mxGeometry>
                </mxCell>
                <mxCell id="WRIfh3sDyCiLUNuFMf4n-11" value="d=d-1" style="whiteSpace=wrap;html=1;fontSize=10;" parent="1" vertex="1">
                    <mxGeometry x="-1260" y="-398.6" width="120" height="30" as="geometry"/>
                </mxCell>
                <mxCell id="WRIfh3sDyCiLUNuFMf4n-32" value="" style="edgeStyle=orthogonalEdgeStyle;rounded=0;orthogonalLoop=1;jettySize=auto;html=1;entryX=0.5;entryY=0;entryDx=0;entryDy=0;" parent="1" source="WRIfh3sDyCiLUNuFMf4n-15" target="WRIfh3sDyCiLUNuFMf4n-33" edge="1">
                    <mxGeometry relative="1" as="geometry">
                        <mxPoint x="-1079.9999999999995" y="-258.6" as="targetPoint"/>
                    </mxGeometry>
                </mxCell>
                <mxCell id="WRIfh3sDyCiLUNuFMf4n-43" value="ไม่" style="edgeLabel;html=1;align=center;verticalAlign=middle;resizable=0;points=[];" parent="WRIfh3sDyCiLUNuFMf4n-32" vertex="1" connectable="0">
                    <mxGeometry x="0.5322" relative="1" as="geometry">
                        <mxPoint y="-8" as="offset"/>
                    </mxGeometry>
                </mxCell>
                <mxCell id="WRIfh3sDyCiLUNuFMf4n-42" value="" style="edgeStyle=orthogonalEdgeStyle;rounded=0;orthogonalLoop=1;jettySize=auto;html=1;exitX=1;exitY=0.5;exitDx=0;exitDy=0;entryX=0.5;entryY=1;entryDx=0;entryDy=0;" parent="1" source="WRIfh3sDyCiLUNuFMf4n-15" target="WRIfh3sDyCiLUNuFMf4n-68" edge="1">
                    <mxGeometry relative="1" as="geometry">
                        <mxPoint x="-1025" y="-328.6" as="sourcePoint"/>
                        <mxPoint x="-605" y="-358.6" as="targetPoint"/>
                        <Array as="points">
                            <mxPoint x="-710" y="-358.6"/>
                        </Array>
                    </mxGeometry>
                </mxCell>
                <mxCell id="WRIfh3sDyCiLUNuFMf4n-63" value="ใช่" style="edgeLabel;html=1;align=center;verticalAlign=middle;resizable=0;points=[];" parent="WRIfh3sDyCiLUNuFMf4n-42" vertex="1" connectable="0">
                    <mxGeometry x="-0.7935" y="-3" relative="1" as="geometry">
                        <mxPoint as="offset"/>
                    </mxGeometry>
                </mxCell>
                <mxCell id="WRIfh3sDyCiLUNuFMf4n-15" value="&lt;font size=&quot;1&quot;&gt;e&amp;lt;=0&lt;/font&gt;&lt;div&gt;&lt;font size=&quot;1&quot;&gt;หรือไม่&lt;/font&gt;&lt;/div&gt;" style="rhombus;whiteSpace=wrap;html=1;fontSize=9;" parent="1" vertex="1">
                    <mxGeometry x="-1120" y="-398.6" width="80" height="80" as="geometry"/>
                </mxCell>
                <mxCell id="WRIfh3sDyCiLUNuFMf4n-38" value="" style="edgeStyle=orthogonalEdgeStyle;rounded=0;orthogonalLoop=1;jettySize=auto;html=1;entryX=0.5;entryY=0;entryDx=0;entryDy=0;" parent="1" source="WRIfh3sDyCiLUNuFMf4n-28" target="WRIfh3sDyCiLUNuFMf4n-41" edge="1">
                    <mxGeometry relative="1" as="geometry">
                        <mxPoint x="-935" y="-378.6" as="targetPoint"/>
                    </mxGeometry>
                </mxCell>
                <mxCell id="WRIfh3sDyCiLUNuFMf4n-40" value="อเมริกาโน่" style="edgeLabel;html=1;align=center;verticalAlign=middle;resizable=0;points=[];" parent="WRIfh3sDyCiLUNuFMf4n-38" vertex="1" connectable="0">
                    <mxGeometry x="0.2233" y="-3" relative="1" as="geometry">
                        <mxPoint as="offset"/>
                    </mxGeometry>
                </mxCell>
                <mxCell id="WRIfh3sDyCiLUNuFMf4n-55" value="" style="edgeStyle=orthogonalEdgeStyle;rounded=0;orthogonalLoop=1;jettySize=auto;html=1;entryX=0.5;entryY=0;entryDx=0;entryDy=0;" parent="1" source="WRIfh3sDyCiLUNuFMf4n-28" target="WRIfh3sDyCiLUNuFMf4n-54" edge="1">
                    <mxGeometry relative="1" as="geometry"/>
                </mxCell>
                <mxCell id="WRIfh3sDyCiLUNuFMf4n-56" value="&lt;font style=&quot;font-size: 10px;&quot;&gt;ลาเต้&lt;/font&gt;&lt;div&gt;&lt;font style=&quot;font-size: 10px;&quot;&gt;หวานเจี๊ยบ&lt;/font&gt;&lt;/div&gt;" style="edgeLabel;html=1;align=center;verticalAlign=middle;resizable=0;points=[];" parent="WRIfh3sDyCiLUNuFMf4n-55" vertex="1" connectable="0">
                    <mxGeometry x="-0.2557" y="-2" relative="1" as="geometry">
                        <mxPoint as="offset"/>
                    </mxGeometry>
                </mxCell>
                <mxCell id="WRIfh3sDyCiLUNuFMf4n-28" value="&lt;div&gt;&lt;br&gt;&lt;/div&gt;เลือกอเมกาโน่&lt;div&gt;หรือลาเต้หวาน&lt;/div&gt;&lt;div&gt;เจี๊ยบ&lt;/div&gt;" style="rhombus;whiteSpace=wrap;html=1;fontSize=9;" parent="1" vertex="1">
                    <mxGeometry x="-975" y="-448.6" width="80" height="80" as="geometry"/>
                </mxCell>
                <mxCell id="WRIfh3sDyCiLUNuFMf4n-36" value="" style="edgeStyle=orthogonalEdgeStyle;rounded=0;orthogonalLoop=1;jettySize=auto;html=1;" parent="1" source="WRIfh3sDyCiLUNuFMf4n-33" target="WRIfh3sDyCiLUNuFMf4n-35" edge="1">
                    <mxGeometry relative="1" as="geometry"/>
                </mxCell>
                <mxCell id="WRIfh3sDyCiLUNuFMf4n-33" value="น้ำเขียว=น้ำเขียว+1" style="whiteSpace=wrap;html=1;fontSize=10;" parent="1" vertex="1">
                    <mxGeometry x="-1140" y="-278.6" width="120" height="30" as="geometry"/>
                </mxCell>
                <mxCell id="WRIfh3sDyCiLUNuFMf4n-78" value="" style="edgeStyle=orthogonalEdgeStyle;rounded=0;orthogonalLoop=1;jettySize=auto;html=1;entryX=1;entryY=1;entryDx=0;entryDy=0;" parent="1" source="WRIfh3sDyCiLUNuFMf4n-35" target="of-Or63fq2WvLNfduHY4-184" edge="1">
                    <mxGeometry relative="1" as="geometry">
                        <mxPoint x="-1085" y="-205" as="targetPoint"/>
                        <Array as="points">
                            <mxPoint x="-1085" y="-80"/>
                            <mxPoint x="-1433" y="-80"/>
                        </Array>
                    </mxGeometry>
                </mxCell>
                <mxCell id="WRIfh3sDyCiLUNuFMf4n-35" value="e=e-1" style="whiteSpace=wrap;html=1;fontSize=10;" parent="1" vertex="1">
                    <mxGeometry x="-1140" y="-228.60000000000002" width="120" height="30" as="geometry"/>
                </mxCell>
                <mxCell id="WRIfh3sDyCiLUNuFMf4n-48" value="" style="edgeStyle=orthogonalEdgeStyle;rounded=0;orthogonalLoop=1;jettySize=auto;html=1;entryX=0.5;entryY=0;entryDx=0;entryDy=0;" parent="1" source="WRIfh3sDyCiLUNuFMf4n-41" target="WRIfh3sDyCiLUNuFMf4n-47" edge="1">
                    <mxGeometry relative="1" as="geometry"/>
                </mxCell>
                <mxCell id="WRIfh3sDyCiLUNuFMf4n-49" value="ไม่" style="edgeLabel;html=1;align=center;verticalAlign=middle;resizable=0;points=[];" parent="WRIfh3sDyCiLUNuFMf4n-48" vertex="1" connectable="0">
                    <mxGeometry x="-0.3093" y="-1" relative="1" as="geometry">
                        <mxPoint as="offset"/>
                    </mxGeometry>
                </mxCell>
                <mxCell id="WRIfh3sDyCiLUNuFMf4n-53" value="" style="edgeStyle=orthogonalEdgeStyle;rounded=0;orthogonalLoop=1;jettySize=auto;html=1;entryX=1;entryY=1;entryDx=0;entryDy=0;" parent="1" source="WRIfh3sDyCiLUNuFMf4n-41" target="WRIfh3sDyCiLUNuFMf4n-68" edge="1">
                    <mxGeometry relative="1" as="geometry">
                        <mxPoint x="-625" y="-288.6" as="targetPoint"/>
                    </mxGeometry>
                </mxCell>
                <mxCell id="WRIfh3sDyCiLUNuFMf4n-64" value="ใช่" style="edgeLabel;html=1;align=center;verticalAlign=middle;resizable=0;points=[];" parent="WRIfh3sDyCiLUNuFMf4n-53" vertex="1" connectable="0">
                    <mxGeometry x="-0.7845" y="2" relative="1" as="geometry">
                        <mxPoint as="offset"/>
                    </mxGeometry>
                </mxCell>
                <mxCell id="WRIfh3sDyCiLUNuFMf4n-41" value="&lt;font size=&quot;1&quot;&gt;f&amp;lt;=0&lt;/font&gt;&lt;div&gt;&lt;font size=&quot;1&quot;&gt;หรือไม่&lt;/font&gt;&lt;/div&gt;" style="rhombus;whiteSpace=wrap;html=1;fontSize=9;" parent="1" vertex="1">
                    <mxGeometry x="-975" y="-328.6" width="80" height="80" as="geometry"/>
                </mxCell>
                <mxCell id="WRIfh3sDyCiLUNuFMf4n-62" value="" style="edgeStyle=orthogonalEdgeStyle;rounded=0;orthogonalLoop=1;jettySize=auto;html=1;" parent="1" source="WRIfh3sDyCiLUNuFMf4n-47" target="WRIfh3sDyCiLUNuFMf4n-50" edge="1">
                    <mxGeometry relative="1" as="geometry"/>
                </mxCell>
                <mxCell id="WRIfh3sDyCiLUNuFMf4n-47" value="อเมริ=อเมริ+1" style="whiteSpace=wrap;html=1;fontSize=10;" parent="1" vertex="1">
                    <mxGeometry x="-995" y="-208.60000000000002" width="120" height="30" as="geometry"/>
                </mxCell>
                <mxCell id="WRIfh3sDyCiLUNuFMf4n-80" value="" style="edgeStyle=orthogonalEdgeStyle;rounded=0;orthogonalLoop=1;jettySize=auto;html=1;entryX=1;entryY=1;entryDx=0;entryDy=0;" parent="1" source="WRIfh3sDyCiLUNuFMf4n-50" target="of-Or63fq2WvLNfduHY4-184" edge="1">
                    <mxGeometry relative="1" as="geometry">
                        <mxPoint x="-940" y="-135" as="targetPoint"/>
                        <Array as="points">
                            <mxPoint x="-940" y="-120"/>
                            <mxPoint x="-1343" y="-120"/>
                        </Array>
                    </mxGeometry>
                </mxCell>
                <mxCell id="WRIfh3sDyCiLUNuFMf4n-50" value="f=f-1" style="whiteSpace=wrap;html=1;fontSize=10;" parent="1" vertex="1">
                    <mxGeometry x="-995" y="-158.60000000000002" width="120" height="30" as="geometry"/>
                </mxCell>
                <mxCell id="WRIfh3sDyCiLUNuFMf4n-58" value="" style="edgeStyle=orthogonalEdgeStyle;rounded=0;orthogonalLoop=1;jettySize=auto;html=1;entryX=0.5;entryY=0;entryDx=0;entryDy=0;" parent="1" source="WRIfh3sDyCiLUNuFMf4n-54" target="WRIfh3sDyCiLUNuFMf4n-59" edge="1">
                    <mxGeometry relative="1" as="geometry">
                        <mxPoint x="-795" y="-408.6" as="targetPoint"/>
                    </mxGeometry>
                </mxCell>
                <mxCell id="WRIfh3sDyCiLUNuFMf4n-61" value="ไม่" style="edgeLabel;html=1;align=center;verticalAlign=middle;resizable=0;points=[];" parent="WRIfh3sDyCiLUNuFMf4n-58" vertex="1" connectable="0">
                    <mxGeometry x="0.4399" y="1" relative="1" as="geometry">
                        <mxPoint x="-2" y="-5" as="offset"/>
                    </mxGeometry>
                </mxCell>
                <mxCell id="WRIfh3sDyCiLUNuFMf4n-66" value="" style="edgeStyle=orthogonalEdgeStyle;rounded=0;orthogonalLoop=1;jettySize=auto;html=1;entryX=0.975;entryY=0.732;entryDx=0;entryDy=0;entryPerimeter=0;" parent="1" source="WRIfh3sDyCiLUNuFMf4n-54" target="WRIfh3sDyCiLUNuFMf4n-68" edge="1">
                    <mxGeometry relative="1" as="geometry">
                        <mxPoint x="-655" y="-508.6" as="targetPoint"/>
                    </mxGeometry>
                </mxCell>
                <mxCell id="WRIfh3sDyCiLUNuFMf4n-67" value="ใช่" style="edgeLabel;html=1;align=center;verticalAlign=middle;resizable=0;points=[];" parent="WRIfh3sDyCiLUNuFMf4n-66" vertex="1" connectable="0">
                    <mxGeometry x="-0.4261" y="-4" relative="1" as="geometry">
                        <mxPoint x="-53" y="-4" as="offset"/>
                    </mxGeometry>
                </mxCell>
                <mxCell id="WRIfh3sDyCiLUNuFMf4n-54" value="g&amp;lt;=0&lt;div&gt;หรือไม่&lt;/div&gt;" style="rhombus;whiteSpace=wrap;html=1;fontSize=9;" parent="1" vertex="1">
                    <mxGeometry x="-835" y="-353.5899999999998" width="70" height="60" as="geometry"/>
                </mxCell>
                <mxCell id="WRIfh3sDyCiLUNuFMf4n-82" value="" style="edgeStyle=orthogonalEdgeStyle;rounded=0;orthogonalLoop=1;jettySize=auto;html=1;entryX=1;entryY=0;entryDx=0;entryDy=0;exitX=0.5;exitY=1;exitDx=0;exitDy=0;" parent="1" source="WRIfh3sDyCiLUNuFMf4n-113" edge="1">
                    <mxGeometry relative="1" as="geometry">
                        <mxPoint x="-805" y="-329" as="sourcePoint"/>
                        <mxPoint x="-1432.625631329166" y="-143.87436867083352" as="targetPoint"/>
                        <Array as="points">
                            <mxPoint x="-805" y="-260"/>
                            <mxPoint x="-805" y="-144"/>
                        </Array>
                    </mxGeometry>
                </mxCell>
                <mxCell id="WRIfh3sDyCiLUNuFMf4n-114" value="" style="edgeStyle=orthogonalEdgeStyle;rounded=0;orthogonalLoop=1;jettySize=auto;html=1;" parent="1" source="WRIfh3sDyCiLUNuFMf4n-59" target="WRIfh3sDyCiLUNuFMf4n-113" edge="1">
                    <mxGeometry relative="1" as="geometry"/>
                </mxCell>
                <mxCell id="WRIfh3sDyCiLUNuFMf4n-59" value="ลาเต้=ลาเต้+1" style="whiteSpace=wrap;html=1;fontSize=10;" parent="1" vertex="1">
                    <mxGeometry x="-860" y="-258.6" width="120" height="30" as="geometry"/>
                </mxCell>
                <mxCell id="WRIfh3sDyCiLUNuFMf4n-70" value="" style="edgeStyle=orthogonalEdgeStyle;rounded=0;orthogonalLoop=1;jettySize=auto;html=1;entryX=0.5;entryY=1;entryDx=0;entryDy=0;" parent="1" source="WRIfh3sDyCiLUNuFMf4n-68" target="WRIfh3sDyCiLUNuFMf4n-71" edge="1">
                    <mxGeometry relative="1" as="geometry">
                        <mxPoint x="-710" y="-598.6100000000002" as="targetPoint"/>
                    </mxGeometry>
                </mxCell>
                <mxCell id="WRIfh3sDyCiLUNuFMf4n-68" value="" style="ellipse;whiteSpace=wrap;html=1;aspect=fixed;" parent="1" vertex="1">
                    <mxGeometry x="-725" y="-533.6100000000002" width="30" height="30" as="geometry"/>
                </mxCell>
                <mxCell id="431" value="" style="edgeStyle=none;html=1;" parent="1" source="WRIfh3sDyCiLUNuFMf4n-71" target="430" edge="1">
                    <mxGeometry relative="1" as="geometry"/>
                </mxCell>
                <mxCell id="WRIfh3sDyCiLUNuFMf4n-71" value="แสดง&lt;div&gt;สินค้าหมด&lt;/div&gt;" style="shape=parallelogram;perimeter=parallelogramPerimeter;whiteSpace=wrap;html=1;fixedSize=1;fontSize=10;" parent="1" vertex="1">
                    <mxGeometry x="-759" y="-646.41" width="98" height="30" as="geometry"/>
                </mxCell>
                <mxCell id="WRIfh3sDyCiLUNuFMf4n-113" value="g=g-1" style="whiteSpace=wrap;html=1;fontSize=10;" parent="1" vertex="1">
                    <mxGeometry x="-860" y="-198.60000000000002" width="120" height="30" as="geometry"/>
                </mxCell>
                <mxCell id="4r5OtbxDzH6CqMdZdlSV-19" value="" style="edgeStyle=orthogonalEdgeStyle;rounded=0;orthogonalLoop=1;jettySize=auto;html=1;entryX=0.5;entryY=0;entryDx=0;entryDy=0;" parent="1" source="4r5OtbxDzH6CqMdZdlSV-13" target="4r5OtbxDzH6CqMdZdlSV-18" edge="1">
                    <mxGeometry relative="1" as="geometry"/>
                </mxCell>
                <mxCell id="4r5OtbxDzH6CqMdZdlSV-21" value="ใช่" style="edgeLabel;html=1;align=center;verticalAlign=middle;resizable=0;points=[];" parent="4r5OtbxDzH6CqMdZdlSV-19" vertex="1" connectable="0">
                    <mxGeometry x="-0.2087" relative="1" as="geometry">
                        <mxPoint as="offset"/>
                    </mxGeometry>
                </mxCell>
                <mxCell id="4r5OtbxDzH6CqMdZdlSV-23" value="" style="edgeStyle=orthogonalEdgeStyle;rounded=0;orthogonalLoop=1;jettySize=auto;html=1;entryX=0.5;entryY=0;entryDx=0;entryDy=0;" parent="1" source="4r5OtbxDzH6CqMdZdlSV-13" target="4r5OtbxDzH6CqMdZdlSV-22" edge="1">
                    <mxGeometry relative="1" as="geometry">
                        <Array as="points">
                            <mxPoint x="-1449" y="4825"/>
                            <mxPoint x="-1449" y="4850"/>
                        </Array>
                    </mxGeometry>
                </mxCell>
                <mxCell id="4r5OtbxDzH6CqMdZdlSV-27" value="ไม่" style="edgeLabel;html=1;align=center;verticalAlign=middle;resizable=0;points=[];" parent="4r5OtbxDzH6CqMdZdlSV-23" vertex="1" connectable="0">
                    <mxGeometry x="-0.3931" relative="1" as="geometry">
                        <mxPoint as="offset"/>
                    </mxGeometry>
                </mxCell>
                <mxCell id="4r5OtbxDzH6CqMdZdlSV-13" value="ยกเลิกเมล็ดทานตะวัน&lt;div&gt;หรือไม่&lt;/div&gt;" style="rhombus;whiteSpace=wrap;html=1;fontSize=11;" parent="1" vertex="1">
                    <mxGeometry x="-1589" y="4780" width="93" height="90" as="geometry"/>
                </mxCell>
                <mxCell id="4r5OtbxDzH6CqMdZdlSV-59" value="" style="edgeStyle=orthogonalEdgeStyle;rounded=0;orthogonalLoop=1;jettySize=auto;html=1;" parent="1" source="4r5OtbxDzH6CqMdZdlSV-18" target="4r5OtbxDzH6CqMdZdlSV-58" edge="1">
                    <mxGeometry relative="1" as="geometry"/>
                </mxCell>
                <mxCell id="4r5OtbxDzH6CqMdZdlSV-18" value="ทานตะวัน=ทานตะวัน-1" style="whiteSpace=wrap;html=1;fontSize=11;" parent="1" vertex="1">
                    <mxGeometry x="-1746" y="4850" width="110" height="30" as="geometry"/>
                </mxCell>
                <mxCell id="4r5OtbxDzH6CqMdZdlSV-26" value="" style="edgeStyle=orthogonalEdgeStyle;rounded=0;orthogonalLoop=1;jettySize=auto;html=1;entryX=0.5;entryY=0;entryDx=0;entryDy=0;" parent="1" source="4r5OtbxDzH6CqMdZdlSV-22" target="4r5OtbxDzH6CqMdZdlSV-25" edge="1">
                    <mxGeometry relative="1" as="geometry"/>
                </mxCell>
                <mxCell id="4r5OtbxDzH6CqMdZdlSV-28" value="ใช่" style="edgeLabel;html=1;align=center;verticalAlign=middle;resizable=0;points=[];" parent="4r5OtbxDzH6CqMdZdlSV-26" vertex="1" connectable="0">
                    <mxGeometry x="-0.2795" y="-1" relative="1" as="geometry">
                        <mxPoint as="offset"/>
                    </mxGeometry>
                </mxCell>
                <mxCell id="4r5OtbxDzH6CqMdZdlSV-30" value="" style="edgeStyle=orthogonalEdgeStyle;rounded=0;orthogonalLoop=1;jettySize=auto;html=1;entryX=0.5;entryY=0;entryDx=0;entryDy=0;" parent="1" source="4r5OtbxDzH6CqMdZdlSV-22" target="4r5OtbxDzH6CqMdZdlSV-29" edge="1">
                    <mxGeometry relative="1" as="geometry"/>
                </mxCell>
                <mxCell id="4r5OtbxDzH6CqMdZdlSV-31" value="ไม่" style="edgeLabel;html=1;align=center;verticalAlign=middle;resizable=0;points=[];" parent="4r5OtbxDzH6CqMdZdlSV-30" vertex="1" connectable="0">
                    <mxGeometry x="-0.3548" y="-1" relative="1" as="geometry">
                        <mxPoint as="offset"/>
                    </mxGeometry>
                </mxCell>
                <mxCell id="4r5OtbxDzH6CqMdZdlSV-22" value="ยกเลิกถั่วแปบ&lt;div&gt;หรือไม่&lt;/div&gt;" style="rhombus;whiteSpace=wrap;html=1;fontSize=11;" parent="1" vertex="1">
                    <mxGeometry x="-1495" y="4850" width="93" height="90" as="geometry"/>
                </mxCell>
                <mxCell id="4r5OtbxDzH6CqMdZdlSV-61" value="" style="edgeStyle=orthogonalEdgeStyle;rounded=0;orthogonalLoop=1;jettySize=auto;html=1;" parent="1" source="4r5OtbxDzH6CqMdZdlSV-25" target="4r5OtbxDzH6CqMdZdlSV-60" edge="1">
                    <mxGeometry relative="1" as="geometry"/>
                </mxCell>
                <mxCell id="4r5OtbxDzH6CqMdZdlSV-25" value="ถั่ว=ถั่ว-1" style="whiteSpace=wrap;html=1;fontSize=11;" parent="1" vertex="1">
                    <mxGeometry x="-1619" y="4920" width="100" height="30" as="geometry"/>
                </mxCell>
                <mxCell id="4r5OtbxDzH6CqMdZdlSV-37" value="" style="edgeStyle=orthogonalEdgeStyle;rounded=0;orthogonalLoop=1;jettySize=auto;html=1;entryX=0.5;entryY=0;entryDx=0;entryDy=0;" parent="1" source="4r5OtbxDzH6CqMdZdlSV-29" target="4r5OtbxDzH6CqMdZdlSV-36" edge="1">
                    <mxGeometry relative="1" as="geometry"/>
                </mxCell>
                <mxCell id="4r5OtbxDzH6CqMdZdlSV-38" value="ใช่" style="edgeLabel;html=1;align=center;verticalAlign=middle;resizable=0;points=[];" parent="4r5OtbxDzH6CqMdZdlSV-37" vertex="1" connectable="0">
                    <mxGeometry x="-0.3979" y="-1" relative="1" as="geometry">
                        <mxPoint as="offset"/>
                    </mxGeometry>
                </mxCell>
                <mxCell id="4r5OtbxDzH6CqMdZdlSV-40" value="" style="edgeStyle=orthogonalEdgeStyle;rounded=0;orthogonalLoop=1;jettySize=auto;html=1;entryX=0.5;entryY=0;entryDx=0;entryDy=0;" parent="1" source="4r5OtbxDzH6CqMdZdlSV-29" target="4r5OtbxDzH6CqMdZdlSV-39" edge="1">
                    <mxGeometry relative="1" as="geometry"/>
                </mxCell>
                <mxCell id="4r5OtbxDzH6CqMdZdlSV-44" value="ไม่" style="edgeLabel;html=1;align=center;verticalAlign=middle;resizable=0;points=[];" parent="4r5OtbxDzH6CqMdZdlSV-40" vertex="1" connectable="0">
                    <mxGeometry x="-0.4212" y="1" relative="1" as="geometry">
                        <mxPoint as="offset"/>
                    </mxGeometry>
                </mxCell>
                <mxCell id="4r5OtbxDzH6CqMdZdlSV-29" value="ยกเลิก&lt;div&gt;จิ้นส้มหมก&lt;div&gt;หรือไม่&lt;/div&gt;&lt;/div&gt;" style="rhombus;whiteSpace=wrap;html=1;fontSize=11;" parent="1" vertex="1">
                    <mxGeometry x="-1395" y="4920" width="93" height="90" as="geometry"/>
                </mxCell>
                <mxCell id="4r5OtbxDzH6CqMdZdlSV-34" value="" style="edgeStyle=orthogonalEdgeStyle;rounded=0;orthogonalLoop=1;jettySize=auto;html=1;exitX=0.5;exitY=1;exitDx=0;exitDy=0;" parent="1" source="4r5OtbxDzH6CqMdZdlSV-32" target="of-Or63fq2WvLNfduHY4-204" edge="1">
                    <mxGeometry relative="1" as="geometry"/>
                </mxCell>
                <mxCell id="4r5OtbxDzH6CqMdZdlSV-32" value="แสดง&lt;div&gt;&lt;div style=&quot;&quot;&gt;&lt;span style=&quot;background-color: transparent; color: light-dark(rgb(0, 0, 0), rgb(255, 255, 255));&quot;&gt;เมล็ดทานตะวัน:ทานตะวัน ชิ้น&lt;/span&gt;&lt;/div&gt;&lt;div style=&quot;&quot;&gt;&amp;nbsp;ถั่วแปบ:ถั่ว ชิ้น&lt;/div&gt;&lt;div style=&quot;&quot;&gt;&amp;nbsp;จิ้นส้มหมก:จิ้นส้ม ชิ้น&lt;/div&gt;&lt;div style=&quot;&quot;&gt;&lt;span style=&quot;background-color: transparent; color: light-dark(rgb(0, 0, 0), rgb(255, 255, 255));&quot;&gt;&amp;nbsp; &amp;nbsp; &amp;nbsp; &amp;nbsp; โค้กกระป๋อง:โค้ก ชิ้น&amp;nbsp; &amp;nbsp; &amp;nbsp; &amp;nbsp; &amp;nbsp; &amp;nbsp;&lt;/span&gt;&lt;/div&gt;&lt;div style=&quot;&quot;&gt;&lt;span style=&quot;background-color: transparent; color: light-dark(rgb(0, 0, 0), rgb(255, 255, 255));&quot;&gt;น้ำเขียวกระป๋อง:น้ำเขียว ชิ้น&amp;nbsp; &amp;nbsp;&lt;/span&gt;&lt;/div&gt;&lt;div style=&quot;&quot;&gt;&lt;span style=&quot;background-color: transparent; color: light-dark(rgb(0, 0, 0), rgb(255, 255, 255));&quot;&gt;&amp;nbsp;อเมริกาโน่:อเมริ ชิ้น&lt;/span&gt;&lt;/div&gt;&lt;div style=&quot;&quot;&gt;&lt;span style=&quot;background-color: transparent; color: light-dark(rgb(0, 0, 0), rgb(255, 255, 255));&quot;&gt;&amp;nbsp; &amp;nbsp; &amp;nbsp; &amp;nbsp; ลาเต้หวานเจี๊ยบ: ลาเต้ ชิ้น&amp;nbsp;&amp;nbsp;&lt;/span&gt;&lt;span style=&quot;background-color: transparent; color: light-dark(rgb(0, 0, 0), rgb(255, 255, 255));&quot;&gt;&amp;nbsp; &amp;nbsp; &amp;nbsp; &amp;nbsp; &amp;nbsp; &amp;nbsp;&lt;/span&gt;&lt;/div&gt;&lt;/div&gt;" style="shape=parallelogram;perimeter=parallelogramPerimeter;whiteSpace=wrap;html=1;fixedSize=1;align=center;" parent="1" vertex="1">
                    <mxGeometry x="-1386" y="4440" width="215" height="120" as="geometry"/>
                </mxCell>
                <mxCell id="4r5OtbxDzH6CqMdZdlSV-63" value="" style="edgeStyle=orthogonalEdgeStyle;rounded=0;orthogonalLoop=1;jettySize=auto;html=1;" parent="1" source="4r5OtbxDzH6CqMdZdlSV-36" target="4r5OtbxDzH6CqMdZdlSV-62" edge="1">
                    <mxGeometry relative="1" as="geometry"/>
                </mxCell>
                <mxCell id="4r5OtbxDzH6CqMdZdlSV-36" value="จิ้นส้ม=จิ้นส้ม-1" style="whiteSpace=wrap;html=1;fontSize=11;" parent="1" vertex="1">
                    <mxGeometry x="-1511" y="4990" width="100" height="30" as="geometry"/>
                </mxCell>
                <mxCell id="4r5OtbxDzH6CqMdZdlSV-42" value="" style="edgeStyle=orthogonalEdgeStyle;rounded=0;orthogonalLoop=1;jettySize=auto;html=1;entryX=0.5;entryY=0;entryDx=0;entryDy=0;" parent="1" source="4r5OtbxDzH6CqMdZdlSV-39" target="4r5OtbxDzH6CqMdZdlSV-41" edge="1">
                    <mxGeometry relative="1" as="geometry"/>
                </mxCell>
                <mxCell id="4r5OtbxDzH6CqMdZdlSV-43" value="ใช่" style="edgeLabel;html=1;align=center;verticalAlign=middle;resizable=0;points=[];" parent="4r5OtbxDzH6CqMdZdlSV-42" vertex="1" connectable="0">
                    <mxGeometry x="-0.3022" relative="1" as="geometry">
                        <mxPoint as="offset"/>
                    </mxGeometry>
                </mxCell>
                <mxCell id="4r5OtbxDzH6CqMdZdlSV-46" value="" style="edgeStyle=orthogonalEdgeStyle;rounded=0;orthogonalLoop=1;jettySize=auto;html=1;entryX=0.5;entryY=0;entryDx=0;entryDy=0;" parent="1" source="4r5OtbxDzH6CqMdZdlSV-39" target="4r5OtbxDzH6CqMdZdlSV-45" edge="1">
                    <mxGeometry relative="1" as="geometry"/>
                </mxCell>
                <mxCell id="4r5OtbxDzH6CqMdZdlSV-47" value="ไม่" style="edgeLabel;html=1;align=center;verticalAlign=middle;resizable=0;points=[];" parent="4r5OtbxDzH6CqMdZdlSV-46" vertex="1" connectable="0">
                    <mxGeometry x="-0.3604" y="-1" relative="1" as="geometry">
                        <mxPoint as="offset"/>
                    </mxGeometry>
                </mxCell>
                <mxCell id="4r5OtbxDzH6CqMdZdlSV-39" value="ยกเลิก&lt;div&gt;โค้กกระป๋อง&lt;br&gt;&lt;div&gt;หรือไม่&lt;/div&gt;&lt;/div&gt;" style="rhombus;whiteSpace=wrap;html=1;fontSize=11;" parent="1" vertex="1">
                    <mxGeometry x="-1292" y="4990" width="93" height="90" as="geometry"/>
                </mxCell>
                <mxCell id="4r5OtbxDzH6CqMdZdlSV-65" value="" style="edgeStyle=orthogonalEdgeStyle;rounded=0;orthogonalLoop=1;jettySize=auto;html=1;" parent="1" source="4r5OtbxDzH6CqMdZdlSV-41" target="4r5OtbxDzH6CqMdZdlSV-64" edge="1">
                    <mxGeometry relative="1" as="geometry"/>
                </mxCell>
                <mxCell id="4r5OtbxDzH6CqMdZdlSV-41" value="โค้ก=โค้ก-1" style="whiteSpace=wrap;html=1;fontSize=11;" parent="1" vertex="1">
                    <mxGeometry x="-1402" y="5060" width="100" height="30" as="geometry"/>
                </mxCell>
                <mxCell id="4r5OtbxDzH6CqMdZdlSV-50" value="" style="edgeStyle=orthogonalEdgeStyle;rounded=0;orthogonalLoop=1;jettySize=auto;html=1;entryX=0.5;entryY=0;entryDx=0;entryDy=0;" parent="1" source="4r5OtbxDzH6CqMdZdlSV-45" target="4r5OtbxDzH6CqMdZdlSV-49" edge="1">
                    <mxGeometry relative="1" as="geometry"/>
                </mxCell>
                <mxCell id="4r5OtbxDzH6CqMdZdlSV-51" value="ใช่" style="edgeLabel;html=1;align=center;verticalAlign=middle;resizable=0;points=[];" parent="4r5OtbxDzH6CqMdZdlSV-50" vertex="1" connectable="0">
                    <mxGeometry x="-0.2978" y="-2" relative="1" as="geometry">
                        <mxPoint as="offset"/>
                    </mxGeometry>
                </mxCell>
                <mxCell id="4r5OtbxDzH6CqMdZdlSV-53" value="" style="edgeStyle=orthogonalEdgeStyle;rounded=0;orthogonalLoop=1;jettySize=auto;html=1;entryX=0.5;entryY=0;entryDx=0;entryDy=0;" parent="1" source="4r5OtbxDzH6CqMdZdlSV-45" target="4r5OtbxDzH6CqMdZdlSV-52" edge="1">
                    <mxGeometry relative="1" as="geometry"/>
                </mxCell>
                <mxCell id="4r5OtbxDzH6CqMdZdlSV-54" value="ไม่" style="edgeLabel;html=1;align=center;verticalAlign=middle;resizable=0;points=[];" parent="4r5OtbxDzH6CqMdZdlSV-53" vertex="1" connectable="0">
                    <mxGeometry x="-0.4182" relative="1" as="geometry">
                        <mxPoint as="offset"/>
                    </mxGeometry>
                </mxCell>
                <mxCell id="4r5OtbxDzH6CqMdZdlSV-45" value="ยกเลิก&lt;div&gt;น้ำเขียวกระป๋อง&lt;br&gt;&lt;div&gt;หรือไม่&lt;/div&gt;&lt;/div&gt;" style="rhombus;whiteSpace=wrap;html=1;fontSize=11;" parent="1" vertex="1">
                    <mxGeometry x="-1189" y="5060" width="93" height="90" as="geometry"/>
                </mxCell>
                <mxCell id="4r5OtbxDzH6CqMdZdlSV-67" value="" style="edgeStyle=orthogonalEdgeStyle;rounded=0;orthogonalLoop=1;jettySize=auto;html=1;" parent="1" source="4r5OtbxDzH6CqMdZdlSV-49" target="4r5OtbxDzH6CqMdZdlSV-66" edge="1">
                    <mxGeometry relative="1" as="geometry"/>
                </mxCell>
                <mxCell id="4r5OtbxDzH6CqMdZdlSV-49" value="น้ำเขียว=น้ำเขียว-1" style="whiteSpace=wrap;html=1;fontSize=11;" parent="1" vertex="1">
                    <mxGeometry x="-1292" y="5140" width="100" height="30" as="geometry"/>
                </mxCell>
                <mxCell id="4r5OtbxDzH6CqMdZdlSV-56" value="" style="edgeStyle=orthogonalEdgeStyle;rounded=0;orthogonalLoop=1;jettySize=auto;html=1;entryX=0.5;entryY=0;entryDx=0;entryDy=0;exitX=0;exitY=0.5;exitDx=0;exitDy=0;" parent="1" source="4r5OtbxDzH6CqMdZdlSV-52" target="4r5OtbxDzH6CqMdZdlSV-55" edge="1">
                    <mxGeometry relative="1" as="geometry"/>
                </mxCell>
                <mxCell id="4r5OtbxDzH6CqMdZdlSV-57" value="ใช่" style="edgeLabel;html=1;align=center;verticalAlign=middle;resizable=0;points=[];" parent="4r5OtbxDzH6CqMdZdlSV-56" vertex="1" connectable="0">
                    <mxGeometry x="-0.3321" y="-1" relative="1" as="geometry">
                        <mxPoint as="offset"/>
                    </mxGeometry>
                </mxCell>
                <mxCell id="4r5OtbxDzH6CqMdZdlSV-109" value="" style="edgeStyle=orthogonalEdgeStyle;rounded=0;orthogonalLoop=1;jettySize=auto;html=1;entryX=0.5;entryY=0;entryDx=0;entryDy=0;" parent="1" source="4r5OtbxDzH6CqMdZdlSV-52" target="4r5OtbxDzH6CqMdZdlSV-108" edge="1">
                    <mxGeometry relative="1" as="geometry"/>
                </mxCell>
                <mxCell id="4r5OtbxDzH6CqMdZdlSV-110" value="ไม่" style="edgeLabel;html=1;align=center;verticalAlign=middle;resizable=0;points=[];" parent="4r5OtbxDzH6CqMdZdlSV-109" vertex="1" connectable="0">
                    <mxGeometry x="-0.4" y="2" relative="1" as="geometry">
                        <mxPoint x="-1" as="offset"/>
                    </mxGeometry>
                </mxCell>
                <mxCell id="4r5OtbxDzH6CqMdZdlSV-52" value="ยกเลิก&lt;div&gt;&lt;div&gt;อเมริกาโน&lt;/div&gt;&lt;div&gt;หรือไม่&lt;/div&gt;&lt;/div&gt;" style="rhombus;whiteSpace=wrap;html=1;fontSize=11;" parent="1" vertex="1">
                    <mxGeometry x="-1089" y="5130" width="93" height="90" as="geometry"/>
                </mxCell>
                <mxCell id="4r5OtbxDzH6CqMdZdlSV-69" value="" style="edgeStyle=orthogonalEdgeStyle;rounded=0;orthogonalLoop=1;jettySize=auto;html=1;" parent="1" source="4r5OtbxDzH6CqMdZdlSV-55" target="4r5OtbxDzH6CqMdZdlSV-68" edge="1">
                    <mxGeometry relative="1" as="geometry"/>
                </mxCell>
                <mxCell id="4r5OtbxDzH6CqMdZdlSV-55" value="อเมริ=อเมริ-1" style="whiteSpace=wrap;html=1;fontSize=11;" parent="1" vertex="1">
                    <mxGeometry x="-1171" y="5210" width="100" height="30" as="geometry"/>
                </mxCell>
                <mxCell id="4r5OtbxDzH6CqMdZdlSV-71" value="" style="edgeStyle=orthogonalEdgeStyle;rounded=0;orthogonalLoop=1;jettySize=auto;html=1;" parent="1" source="4r5OtbxDzH6CqMdZdlSV-58" target="4r5OtbxDzH6CqMdZdlSV-70" edge="1">
                    <mxGeometry relative="1" as="geometry"/>
                </mxCell>
                <mxCell id="4r5OtbxDzH6CqMdZdlSV-58" value="a=a+1" style="whiteSpace=wrap;html=1;fontSize=11;" parent="1" vertex="1">
                    <mxGeometry x="-1741" y="4900" width="100" height="30" as="geometry"/>
                </mxCell>
                <mxCell id="4r5OtbxDzH6CqMdZdlSV-73" value="" style="edgeStyle=orthogonalEdgeStyle;rounded=0;orthogonalLoop=1;jettySize=auto;html=1;entryX=1;entryY=0;entryDx=0;entryDy=0;" parent="1" source="4r5OtbxDzH6CqMdZdlSV-60" target="4r5OtbxDzH6CqMdZdlSV-70" edge="1">
                    <mxGeometry relative="1" as="geometry">
                        <mxPoint x="-1573.5" y="5120" as="targetPoint"/>
                        <Array as="points">
                            <mxPoint x="-1591" y="5275"/>
                        </Array>
                    </mxGeometry>
                </mxCell>
                <mxCell id="4r5OtbxDzH6CqMdZdlSV-60" value="b=b+1" style="whiteSpace=wrap;html=1;fontSize=11;" parent="1" vertex="1">
                    <mxGeometry x="-1623.5" y="4970" width="100" height="30" as="geometry"/>
                </mxCell>
                <mxCell id="4r5OtbxDzH6CqMdZdlSV-75" value="" style="edgeStyle=orthogonalEdgeStyle;rounded=0;orthogonalLoop=1;jettySize=auto;html=1;entryX=1;entryY=0.5;entryDx=0;entryDy=0;" parent="1" source="4r5OtbxDzH6CqMdZdlSV-62" target="4r5OtbxDzH6CqMdZdlSV-70" edge="1">
                    <mxGeometry relative="1" as="geometry">
                        <mxPoint x="-1461" y="5165" as="targetPoint"/>
                        <Array as="points">
                            <mxPoint x="-1471" y="5288"/>
                        </Array>
                    </mxGeometry>
                </mxCell>
                <mxCell id="4r5OtbxDzH6CqMdZdlSV-62" value="c=c+1" style="whiteSpace=wrap;html=1;fontSize=11;" parent="1" vertex="1">
                    <mxGeometry x="-1511" y="5040" width="100" height="30" as="geometry"/>
                </mxCell>
                <mxCell id="4r5OtbxDzH6CqMdZdlSV-77" value="" style="edgeStyle=orthogonalEdgeStyle;rounded=0;orthogonalLoop=1;jettySize=auto;html=1;entryX=1;entryY=1;entryDx=0;entryDy=0;" parent="1" source="4r5OtbxDzH6CqMdZdlSV-64" target="4r5OtbxDzH6CqMdZdlSV-70" edge="1">
                    <mxGeometry relative="1" as="geometry">
                        <mxPoint x="-1352" y="5235" as="targetPoint"/>
                        <Array as="points">
                            <mxPoint x="-1352" y="5300"/>
                        </Array>
                    </mxGeometry>
                </mxCell>
                <mxCell id="4r5OtbxDzH6CqMdZdlSV-64" value="d=d+1" style="whiteSpace=wrap;html=1;fontSize=11;" parent="1" vertex="1">
                    <mxGeometry x="-1402" y="5110" width="100" height="30" as="geometry"/>
                </mxCell>
                <mxCell id="4r5OtbxDzH6CqMdZdlSV-79" value="" style="edgeStyle=orthogonalEdgeStyle;rounded=0;orthogonalLoop=1;jettySize=auto;html=1;entryX=1;entryY=1;entryDx=0;entryDy=0;" parent="1" source="4r5OtbxDzH6CqMdZdlSV-66" target="4r5OtbxDzH6CqMdZdlSV-70" edge="1">
                    <mxGeometry relative="1" as="geometry">
                        <mxPoint x="-1268.5" y="5360" as="targetPoint"/>
                        <Array as="points">
                            <mxPoint x="-1242" y="5320"/>
                            <mxPoint x="-1679" y="5320"/>
                        </Array>
                    </mxGeometry>
                </mxCell>
                <mxCell id="4r5OtbxDzH6CqMdZdlSV-66" value="e=e+1" style="whiteSpace=wrap;html=1;fontSize=11;" parent="1" vertex="1">
                    <mxGeometry x="-1292" y="5200" width="100" height="30" as="geometry"/>
                </mxCell>
                <mxCell id="4r5OtbxDzH6CqMdZdlSV-81" value="" style="edgeStyle=orthogonalEdgeStyle;rounded=0;orthogonalLoop=1;jettySize=auto;html=1;entryX=0.5;entryY=1;entryDx=0;entryDy=0;" parent="1" source="4r5OtbxDzH6CqMdZdlSV-68" target="4r5OtbxDzH6CqMdZdlSV-70" edge="1">
                    <mxGeometry relative="1" as="geometry">
                        <mxPoint x="-1121" y="5395" as="targetPoint"/>
                        <Array as="points">
                            <mxPoint x="-1121" y="5350"/>
                            <mxPoint x="-1691" y="5350"/>
                        </Array>
                    </mxGeometry>
                </mxCell>
                <mxCell id="4r5OtbxDzH6CqMdZdlSV-68" value="f=f+1" style="whiteSpace=wrap;html=1;fontSize=11;" parent="1" vertex="1">
                    <mxGeometry x="-1171" y="5270" width="100" height="30" as="geometry"/>
                </mxCell>
                <mxCell id="4r5OtbxDzH6CqMdZdlSV-98" value="" style="edgeStyle=orthogonalEdgeStyle;rounded=0;orthogonalLoop=1;jettySize=auto;html=1;entryX=0.5;entryY=1;entryDx=0;entryDy=0;" parent="1" source="4r5OtbxDzH6CqMdZdlSV-70" target="4r5OtbxDzH6CqMdZdlSV-96" edge="1">
                    <mxGeometry relative="1" as="geometry">
                        <mxPoint x="-2111" y="4965" as="targetPoint"/>
                    </mxGeometry>
                </mxCell>
                <mxCell id="4r5OtbxDzH6CqMdZdlSV-70" value="" style="ellipse;whiteSpace=wrap;html=1;fontSize=11;" parent="1" vertex="1">
                    <mxGeometry x="-1708.5" y="5270" width="35" height="35" as="geometry"/>
                </mxCell>
                <mxCell id="4r5OtbxDzH6CqMdZdlSV-88" value="" style="edgeStyle=orthogonalEdgeStyle;rounded=0;orthogonalLoop=1;jettySize=auto;html=1;" parent="1" edge="1">
                    <mxGeometry relative="1" as="geometry">
                        <mxPoint x="-2061" y="4600" as="sourcePoint"/>
                        <mxPoint x="-2061" y="4600" as="targetPoint"/>
                    </mxGeometry>
                </mxCell>
                <mxCell id="4r5OtbxDzH6CqMdZdlSV-100" value="" style="edgeStyle=orthogonalEdgeStyle;rounded=0;orthogonalLoop=1;jettySize=auto;html=1;exitDx=0;exitDy=0;" parent="1" edge="1">
                    <mxGeometry relative="1" as="geometry">
                        <mxPoint x="-1276" y="4420" as="sourcePoint"/>
                        <mxPoint x="-1277" y="4420" as="targetPoint"/>
                        <Array as="points"/>
                    </mxGeometry>
                </mxCell>
                <mxCell id="4r5OtbxDzH6CqMdZdlSV-96" value="&lt;font&gt;แสดง&lt;/font&gt;&lt;div style=&quot;text-align: left;&quot;&gt;&lt;font face=&quot;Sarabun&quot;&gt;&lt;span style=&quot;text-wrap-mode: nowrap;&quot;&gt;ท่านยกเลิกสินค้าสำเร็จ&lt;/span&gt;&lt;/font&gt;&lt;/div&gt;" style="shape=parallelogram;perimeter=parallelogramPerimeter;whiteSpace=wrap;html=1;fixedSize=1;fontSize=10;" parent="1" vertex="1">
                    <mxGeometry x="-2171" y="4850" width="170" height="57.19" as="geometry"/>
                </mxCell>
                <mxCell id="4r5OtbxDzH6CqMdZdlSV-113" value="" style="edgeStyle=orthogonalEdgeStyle;rounded=0;orthogonalLoop=1;jettySize=auto;html=1;" parent="1" source="4r5OtbxDzH6CqMdZdlSV-108" target="4r5OtbxDzH6CqMdZdlSV-112" edge="1">
                    <mxGeometry relative="1" as="geometry">
                        <Array as="points">
                            <mxPoint x="-1001" y="5245"/>
                        </Array>
                    </mxGeometry>
                </mxCell>
                <mxCell id="4r5OtbxDzH6CqMdZdlSV-120" value="ใช่" style="edgeLabel;html=1;align=center;verticalAlign=middle;resizable=0;points=[];" parent="4r5OtbxDzH6CqMdZdlSV-113" vertex="1" connectable="0">
                    <mxGeometry x="-0.517" relative="1" as="geometry">
                        <mxPoint as="offset"/>
                    </mxGeometry>
                </mxCell>
                <mxCell id="5" value="" style="edgeStyle=orthogonalEdgeStyle;html=1;entryX=0.5;entryY=0;entryDx=0;entryDy=0;rounded=0;curved=0;" parent="1" source="4r5OtbxDzH6CqMdZdlSV-108" target="2" edge="1">
                    <mxGeometry relative="1" as="geometry"/>
                </mxCell>
                <mxCell id="6" value="ไม่" style="edgeLabel;html=1;align=center;verticalAlign=middle;resizable=0;points=[];" parent="5" vertex="1" connectable="0">
                    <mxGeometry x="-0.3531" y="-2" relative="1" as="geometry">
                        <mxPoint as="offset"/>
                    </mxGeometry>
                </mxCell>
                <mxCell id="4r5OtbxDzH6CqMdZdlSV-108" value="ยกเลิก&lt;div&gt;&lt;div&gt;ลาเต้หวานเจี๊ยบ&lt;/div&gt;&lt;div&gt;หรือไม่&lt;/div&gt;&lt;/div&gt;" style="rhombus;whiteSpace=wrap;html=1;fontSize=11;" parent="1" vertex="1">
                    <mxGeometry x="-962.5" y="5200" width="93" height="90" as="geometry"/>
                </mxCell>
                <mxCell id="4r5OtbxDzH6CqMdZdlSV-115" value="" style="edgeStyle=orthogonalEdgeStyle;rounded=0;orthogonalLoop=1;jettySize=auto;html=1;" parent="1" source="4r5OtbxDzH6CqMdZdlSV-112" target="4r5OtbxDzH6CqMdZdlSV-114" edge="1">
                    <mxGeometry relative="1" as="geometry"/>
                </mxCell>
                <mxCell id="4r5OtbxDzH6CqMdZdlSV-112" value="ลาเต้=ลาเต้-1" style="whiteSpace=wrap;html=1;fontSize=11;" parent="1" vertex="1">
                    <mxGeometry x="-1056" y="5280" width="100" height="30" as="geometry"/>
                </mxCell>
                <mxCell id="4r5OtbxDzH6CqMdZdlSV-117" value="" style="edgeStyle=orthogonalEdgeStyle;rounded=0;orthogonalLoop=1;jettySize=auto;html=1;entryX=0;entryY=1;entryDx=0;entryDy=0;exitX=0.5;exitY=1;exitDx=0;exitDy=0;" parent="1" source="4r5OtbxDzH6CqMdZdlSV-114" target="4r5OtbxDzH6CqMdZdlSV-70" edge="1">
                    <mxGeometry relative="1" as="geometry">
                        <mxPoint x="-1055.9999999999998" y="5345.91" as="sourcePoint"/>
                        <mxPoint x="-1699.5400000000002" y="5305" as="targetPoint"/>
                        <Array as="points">
                            <mxPoint x="-1006" y="5370"/>
                            <mxPoint x="-1703" y="5370"/>
                        </Array>
                    </mxGeometry>
                </mxCell>
                <mxCell id="4r5OtbxDzH6CqMdZdlSV-114" value="g=g+1" style="whiteSpace=wrap;html=1;fontSize=11;" parent="1" vertex="1">
                    <mxGeometry x="-1056" y="5330" width="100" height="30" as="geometry"/>
                </mxCell>
                <mxCell id="119" value="" style="edgeStyle=orthogonalEdgeStyle;html=1;exitX=0.5;exitY=1;exitDx=0;exitDy=0;rounded=0;curved=0;" parent="1" source="4r5OtbxDzH6CqMdZdlSV-122" edge="1">
                    <mxGeometry relative="1" as="geometry">
                        <mxPoint x="-1371" y="4764" as="sourcePoint"/>
                        <mxPoint x="-811" y="5380" as="targetPoint"/>
                        <Array as="points">
                            <mxPoint x="-1366" y="4804"/>
                            <mxPoint x="-436" y="4804"/>
                            <mxPoint x="-436" y="5380"/>
                        </Array>
                    </mxGeometry>
                </mxCell>
                <mxCell id="120" value="ไม่" style="edgeLabel;html=1;align=center;verticalAlign=middle;resizable=0;points=[];" parent="119" vertex="1" connectable="0">
                    <mxGeometry x="-0.9803" y="-2" relative="1" as="geometry">
                        <mxPoint as="offset"/>
                    </mxGeometry>
                </mxCell>
                <mxCell id="4r5OtbxDzH6CqMdZdlSV-122" value="&lt;font style=&quot;font-size: 8px;&quot;&gt;ต้องการ&lt;/font&gt;&lt;div&gt;&lt;font style=&quot;font-size: 8px;&quot;&gt;เลือกสินค้าเพิ่มหรือไม่&lt;/font&gt;&lt;/div&gt;" style="rhombus;whiteSpace=wrap;html=1;" parent="1" vertex="1">
                    <mxGeometry x="-1402" y="4690" width="71.5" height="70" as="geometry"/>
                </mxCell>
                <mxCell id="8" value="" style="edgeStyle=none;html=1;" parent="1" source="2" edge="1">
                    <mxGeometry relative="1" as="geometry">
                        <mxPoint x="-641.4999999999995" y="5305" as="targetPoint"/>
                    </mxGeometry>
                </mxCell>
                <mxCell id="14" value="ใช่" style="edgeLabel;html=1;align=center;verticalAlign=middle;resizable=0;points=[];" parent="8" vertex="1" connectable="0">
                    <mxGeometry x="-0.4187" y="-3" relative="1" as="geometry">
                        <mxPoint as="offset"/>
                    </mxGeometry>
                </mxCell>
                <mxCell id="16" value="" style="edgeStyle=none;html=1;entryX=0.5;entryY=0;entryDx=0;entryDy=0;" parent="1" source="2" target="18" edge="1">
                    <mxGeometry relative="1" as="geometry">
                        <mxPoint x="-814.5" y="5445" as="targetPoint"/>
                    </mxGeometry>
                </mxCell>
                <mxCell id="17" value="ไม่" style="edgeLabel;html=1;align=center;verticalAlign=middle;resizable=0;points=[];" parent="16" vertex="1" connectable="0">
                    <mxGeometry x="-0.2615" y="-4" relative="1" as="geometry">
                        <mxPoint as="offset"/>
                    </mxGeometry>
                </mxCell>
                <mxCell id="2" value="&lt;font&gt;ต้องการ&lt;/font&gt;&lt;div&gt;&lt;font&gt;ยกเลิกสินค้า&lt;/font&gt;&lt;/div&gt;&lt;div&gt;&lt;font&gt;หรือไม่&lt;/font&gt;&lt;/div&gt;" style="rhombus;whiteSpace=wrap;html=1;fontSize=11;" parent="1" vertex="1">
                    <mxGeometry x="-861" y="5260" width="93" height="90" as="geometry"/>
                </mxCell>
                <mxCell id="10" value="" style="edgeStyle=none;html=1;" parent="1" edge="1">
                    <mxGeometry relative="1" as="geometry">
                        <mxPoint x="-641.4999999999995" y="5305" as="sourcePoint"/>
                        <mxPoint x="-631" y="4420" as="targetPoint"/>
                    </mxGeometry>
                </mxCell>
                <mxCell id="12" value="" style="edgeStyle=none;html=1;" parent="1" edge="1">
                    <mxGeometry relative="1" as="geometry">
                        <mxPoint x="-631" y="4420" as="sourcePoint"/>
                        <mxPoint x="-1276" y="4420" as="targetPoint"/>
                    </mxGeometry>
                </mxCell>
                <mxCell id="13" value="" style="edgeStyle=orthogonalEdgeStyle;rounded=0;orthogonalLoop=1;jettySize=auto;html=1;exitX=0.5;exitY=0;exitDx=0;exitDy=0;" parent="1" source="4r5OtbxDzH6CqMdZdlSV-96" edge="1">
                    <mxGeometry relative="1" as="geometry">
                        <mxPoint x="-2086" y="4850" as="sourcePoint"/>
                        <mxPoint x="-1276" y="4420" as="targetPoint"/>
                        <Array as="points">
                            <mxPoint x="-2086" y="4420"/>
                        </Array>
                    </mxGeometry>
                </mxCell>
                <mxCell id="25" value="" style="edgeStyle=orthogonalEdgeStyle;html=1;entryX=0.5;entryY=0;entryDx=0;entryDy=0;rounded=0;curved=0;" parent="1" source="18" target="24" edge="1">
                    <mxGeometry relative="1" as="geometry"/>
                </mxCell>
                <mxCell id="18" value="ราคารวม=(ทานตะวัน*13)+(ถั่วแปบ*20)+(จิ้นส้ม*15)+(โค้ก*10)+(น้ำเขียว+12)+(ลาเต้*35)+(อเมริ*30)" style="whiteSpace=wrap;html=1;fontSize=11;" parent="1" vertex="1">
                    <mxGeometry x="-892.88" y="5390" width="156.75" height="60" as="geometry"/>
                </mxCell>
                <mxCell id="27" value="" style="edgeStyle=orthogonalEdgeStyle;html=1;rounded=0;entryX=0.5;entryY=0;entryDx=0;entryDy=0;" parent="1" source="24" target="26" edge="1">
                    <mxGeometry relative="1" as="geometry"/>
                </mxCell>
                <mxCell id="24" value="แสดง&lt;div&gt;ราคาสินค้าทั้งหมด:ราคารวม บาท&lt;/div&gt;" style="shape=parallelogram;perimeter=parallelogramPerimeter;whiteSpace=wrap;html=1;fixedSize=1;fontSize=11;" parent="1" vertex="1">
                    <mxGeometry x="-1067.88" y="5490" width="176.88" height="50" as="geometry"/>
                </mxCell>
                <mxCell id="34" value="" style="edgeStyle=orthogonalEdgeStyle;html=1;rounded=0;curved=0;" parent="1" source="26" edge="1">
                    <mxGeometry relative="1" as="geometry">
                        <mxPoint x="-1461" y="8080" as="targetPoint"/>
                        <Array as="points">
                            <mxPoint x="-2051" y="5610"/>
                            <mxPoint x="-2051" y="8080"/>
                        </Array>
                    </mxGeometry>
                </mxCell>
                <mxCell id="37" value="ไม่" style="edgeLabel;html=1;align=center;verticalAlign=middle;resizable=0;points=[];" parent="34" vertex="1" connectable="0">
                    <mxGeometry x="-0.7977" y="4" relative="1" as="geometry">
                        <mxPoint x="-55" y="-2" as="offset"/>
                    </mxGeometry>
                </mxCell>
                <mxCell id="35" value="" style="edgeStyle=none;html=1;" parent="1" source="26" target="32" edge="1">
                    <mxGeometry relative="1" as="geometry"/>
                </mxCell>
                <mxCell id="36" value="ใช่" style="edgeLabel;html=1;align=center;verticalAlign=middle;resizable=0;points=[];" parent="35" vertex="1" connectable="0">
                    <mxGeometry x="-0.2632" y="1" relative="1" as="geometry">
                        <mxPoint as="offset"/>
                    </mxGeometry>
                </mxCell>
                <mxCell id="26" value="ชำระเงินหรือไม่" style="rhombus;whiteSpace=wrap;html=1;fontSize=11;" parent="1" vertex="1">
                    <mxGeometry x="-1271" y="5570" width="80" height="80" as="geometry"/>
                </mxCell>
                <mxCell id="303" value="" style="edgeStyle=none;html=1;entryX=0.5;entryY=0;entryDx=0;entryDy=0;" parent="1" source="32" target="234" edge="1">
                    <mxGeometry relative="1" as="geometry">
                        <mxPoint x="-1231" y="5835" as="targetPoint"/>
                    </mxGeometry>
                </mxCell>
                <mxCell id="32" value="&lt;div&gt;แสดง&lt;/div&gt;กรุณาชำระเงิน" style="shape=parallelogram;perimeter=parallelogramPerimeter;whiteSpace=wrap;html=1;fixedSize=1;fontSize=11;" parent="1" vertex="1">
                    <mxGeometry x="-1309.25" y="5680" width="156.5" height="50" as="geometry"/>
                </mxCell>
                <mxCell id="233" value="" style="edgeStyle=none;html=1;" parent="1" source="234" target="236" edge="1">
                    <mxGeometry relative="1" as="geometry"/>
                </mxCell>
                <mxCell id="234" value="&lt;b&gt;รับเงินจากลูกค้า&lt;/b&gt;&lt;div&gt;&lt;b&gt;r1000,r500,r100,r50,r20,r10&lt;/b&gt;&lt;/div&gt;&lt;div&gt;&lt;b&gt;,r5,r2,r1&lt;/b&gt;&lt;/div&gt;" style="whiteSpace=wrap;html=1;fontStyle=0" parent="1" vertex="1">
                    <mxGeometry x="-1321" y="5800.01" width="180" height="45.39" as="geometry"/>
                </mxCell>
                <mxCell id="235" value="" style="edgeStyle=none;html=1;" parent="1" source="236" target="243" edge="1">
                    <mxGeometry relative="1" as="geometry"/>
                </mxCell>
                <mxCell id="236" value="cash= (r1000*1000)+(r500*500)+(r100*100)+(r50*50)+(r20*20)+(r10*10)+(r2*2)+(r1*1)" style="whiteSpace=wrap;html=1;fontStyle=0" parent="1" vertex="1">
                    <mxGeometry x="-1321" y="5880.01" width="180" height="45.39" as="geometry"/>
                </mxCell>
                <mxCell id="241" value="" style="edgeStyle=none;html=1;" parent="1" source="243" target="247" edge="1">
                    <mxGeometry relative="1" as="geometry"/>
                </mxCell>
                <mxCell id="242" value="ไม่" style="edgeLabel;html=1;align=center;verticalAlign=middle;resizable=0;points=[];" parent="241" vertex="1" connectable="0">
                    <mxGeometry x="-0.3215" y="1" relative="1" as="geometry">
                        <mxPoint as="offset"/>
                    </mxGeometry>
                </mxCell>
                <mxCell id="243" value="cash&amp;lt;=ราคารวม" style="rhombus;whiteSpace=wrap;html=1;fontStyle=0;" parent="1" vertex="1">
                    <mxGeometry x="-1271" y="5960.015" width="80" height="80" as="geometry"/>
                </mxCell>
                <mxCell id="244" value="" style="edgeStyle=none;html=1;" parent="1" source="245" target="254" edge="1">
                    <mxGeometry relative="1" as="geometry"/>
                </mxCell>
                <mxCell id="245" value="&lt;div&gt;รับเงินเข้าตู้&lt;/div&gt;s1000=s1000+r1000,&lt;span style=&quot;background-color: transparent;&quot;&gt;s500=s500+r500&lt;/span&gt;&lt;div&gt;s,100=s100+r100&lt;span style=&quot;background-color: transparent;&quot;&gt;,s50=s50+r50&lt;/span&gt;&lt;span style=&quot;background-color: transparent;&quot;&gt;,s20=s20+r20&lt;/span&gt;&lt;/div&gt;&lt;div&gt;,s10=s10+r10&lt;span style=&quot;background-color: transparent;&quot;&gt;,s5=s5+r5&lt;/span&gt;&lt;span style=&quot;background-color: transparent;&quot;&gt;,s2=s2+r2&lt;/span&gt;&lt;span style=&quot;background-color: transparent;&quot;&gt;,s1=s1+r1&lt;/span&gt;&lt;/div&gt;" style="whiteSpace=wrap;html=1;fontStyle=0;" parent="1" vertex="1">
                    <mxGeometry x="-1579.25" y="6040.02" width="250" height="60" as="geometry"/>
                </mxCell>
                <mxCell id="246" value="" style="edgeStyle=none;html=1;" parent="1" source="247" target="249" edge="1">
                    <mxGeometry relative="1" as="geometry"/>
                </mxCell>
                <mxCell id="247" value="จำนวนเงินของ&lt;div&gt;ท่านไม่พอ&lt;/div&gt;" style="shape=parallelogram;perimeter=parallelogramPerimeter;whiteSpace=wrap;html=1;fixedSize=1;fontStyle=0;" parent="1" vertex="1">
                    <mxGeometry x="-1141" y="5985.0199999999995" width="110" height="29.99" as="geometry"/>
                </mxCell>
                <mxCell id="248" value="" style="edgeStyle=none;html=1;" parent="1" source="249" target="251" edge="1">
                    <mxGeometry relative="1" as="geometry"/>
                </mxCell>
                <mxCell id="249" value="&lt;div&gt;&lt;b&gt;แสดง&lt;/b&gt;&lt;/div&gt;&lt;div&gt;&lt;b&gt;r1000,r500,r100,r50,r20,r10&lt;/b&gt;&lt;/div&gt;&lt;div&gt;&lt;b&gt;,r5,r2,r1&lt;/b&gt;&lt;/div&gt;" style="shape=parallelogram;perimeter=parallelogramPerimeter;whiteSpace=wrap;html=1;fixedSize=1;fontStyle=0;" parent="1" vertex="1">
                    <mxGeometry x="-976" y="5977.5199999999995" width="185" height="44.99" as="geometry"/>
                </mxCell>
                <mxCell id="324" value="" style="edgeStyle=none;html=1;entryX=0.5;entryY=1;entryDx=0;entryDy=0;" parent="1" source="251" target="325" edge="1">
                    <mxGeometry relative="1" as="geometry">
                        <mxPoint x="-883.5" y="5804.995" as="targetPoint"/>
                    </mxGeometry>
                </mxCell>
                <mxCell id="251" value="ทอนเงิน" style="whiteSpace=wrap;html=1;fontStyle=0;" parent="1" vertex="1">
                    <mxGeometry x="-931" y="5860.01" width="95" height="30.03" as="geometry"/>
                </mxCell>
                <mxCell id="308" value="" style="edgeStyle=none;html=1;" parent="1" source="254" target="307" edge="1">
                    <mxGeometry relative="1" as="geometry"/>
                </mxCell>
                <mxCell id="254" value="&lt;span style=&quot;color: rgb(63, 63, 63); font-weight: 700;&quot;&gt;change&lt;/span&gt;=cash-ราคารวม" style="whiteSpace=wrap;html=1;fontStyle=0;" parent="1" vertex="1">
                    <mxGeometry x="-1539.5" y="6140.02" width="170" height="50" as="geometry"/>
                </mxCell>
                <mxCell id="255" value="" style="edgeStyle=none;html=1;" parent="1" source="256" target="258" edge="1">
                    <mxGeometry relative="1" as="geometry"/>
                </mxCell>
                <mxCell id="256" value="b1000=&lt;span style=&quot;color: rgb(63, 63, 63); font-weight: 700;&quot;&gt;ch&lt;/span&gt;/1000&lt;div&gt;m=&lt;span style=&quot;color: rgb(63, 63, 63); font-weight: 700; background-color: transparent;&quot;&gt;change&lt;/span&gt;&lt;span style=&quot;background-color: transparent;&quot;&gt;%1000&lt;/span&gt;&lt;/div&gt;" style="whiteSpace=wrap;html=1;fontStyle=0;" parent="1" vertex="1">
                    <mxGeometry x="-1539.5" y="6370" width="170" height="50" as="geometry"/>
                </mxCell>
                <mxCell id="257" value="" style="edgeStyle=none;html=1;" parent="1" source="258" target="260" edge="1">
                    <mxGeometry relative="1" as="geometry"/>
                </mxCell>
                <mxCell id="258" value="b500=m/500&lt;div&gt;m=m%500&lt;/div&gt;" style="whiteSpace=wrap;html=1;fontStyle=0;" parent="1" vertex="1">
                    <mxGeometry x="-1539.5" y="6440" width="170" height="50" as="geometry"/>
                </mxCell>
                <mxCell id="259" value="" style="edgeStyle=none;html=1;" parent="1" source="260" target="262" edge="1">
                    <mxGeometry relative="1" as="geometry"/>
                </mxCell>
                <mxCell id="260" value="b100=m/100&lt;div&gt;m=m%100&lt;/div&gt;" style="whiteSpace=wrap;html=1;fontStyle=0;" parent="1" vertex="1">
                    <mxGeometry x="-1539.5" y="6530" width="170" height="50" as="geometry"/>
                </mxCell>
                <mxCell id="261" value="" style="edgeStyle=none;html=1;" parent="1" source="262" target="264" edge="1">
                    <mxGeometry relative="1" as="geometry"/>
                </mxCell>
                <mxCell id="262" value="b50=m/50&lt;div&gt;m%=50&lt;/div&gt;" style="whiteSpace=wrap;html=1;fontStyle=0;" parent="1" vertex="1">
                    <mxGeometry x="-1539.5" y="6620" width="170" height="50" as="geometry"/>
                </mxCell>
                <mxCell id="263" value="" style="edgeStyle=none;html=1;" parent="1" source="264" target="266" edge="1">
                    <mxGeometry relative="1" as="geometry"/>
                </mxCell>
                <mxCell id="264" value="b50=m/50&lt;div&gt;m=m%50&lt;/div&gt;" style="whiteSpace=wrap;html=1;fontStyle=0;" parent="1" vertex="1">
                    <mxGeometry x="-1539.5" y="6710" width="170" height="50" as="geometry"/>
                </mxCell>
                <mxCell id="265" value="" style="edgeStyle=none;html=1;" parent="1" source="266" target="268" edge="1">
                    <mxGeometry relative="1" as="geometry"/>
                </mxCell>
                <mxCell id="266" value="b20=m/20&lt;div&gt;m=m%20&lt;/div&gt;" style="whiteSpace=wrap;html=1;fontStyle=0;" parent="1" vertex="1">
                    <mxGeometry x="-1539.5" y="6800" width="170" height="50" as="geometry"/>
                </mxCell>
                <mxCell id="267" value="" style="edgeStyle=none;html=1;" parent="1" source="268" target="270" edge="1">
                    <mxGeometry relative="1" as="geometry"/>
                </mxCell>
                <mxCell id="268" value="c10=m/10&lt;div&gt;m=m%10&lt;/div&gt;" style="whiteSpace=wrap;html=1;fontStyle=0;" parent="1" vertex="1">
                    <mxGeometry x="-1539.5" y="6890" width="170" height="50" as="geometry"/>
                </mxCell>
                <mxCell id="269" value="" style="edgeStyle=none;html=1;" parent="1" source="270" target="272" edge="1">
                    <mxGeometry relative="1" as="geometry"/>
                </mxCell>
                <mxCell id="270" value="c5=m/5&lt;div&gt;m=m%5&lt;/div&gt;" style="whiteSpace=wrap;html=1;fontStyle=0;" parent="1" vertex="1">
                    <mxGeometry x="-1539.5" y="6980" width="170" height="50" as="geometry"/>
                </mxCell>
                <mxCell id="271" value="" style="edgeStyle=none;html=1;" parent="1" source="272" target="274" edge="1">
                    <mxGeometry relative="1" as="geometry"/>
                </mxCell>
                <mxCell id="272" value="c2=m/2&lt;div&gt;m=m%2&lt;/div&gt;" style="whiteSpace=wrap;html=1;fontStyle=0;" parent="1" vertex="1">
                    <mxGeometry x="-1539.5" y="7070" width="170" height="50" as="geometry"/>
                </mxCell>
                <mxCell id="273" value="" style="edgeStyle=none;html=1;" parent="1" source="274" target="278" edge="1">
                    <mxGeometry relative="1" as="geometry"/>
                </mxCell>
                <mxCell id="274" value="c1=m" style="whiteSpace=wrap;html=1;fontStyle=0;" parent="1" vertex="1">
                    <mxGeometry x="-1539.5" y="7150" width="170" height="50" as="geometry"/>
                </mxCell>
                <mxCell id="275" value="" style="edgeStyle=none;html=1;" parent="1" source="276" target="280" edge="1">
                    <mxGeometry relative="1" as="geometry"/>
                </mxCell>
                <mxCell id="276" value="&lt;b&gt;แสดง&lt;/b&gt;&lt;br&gt;&lt;div style=&quot;font-weight: 700;&quot;&gt;&lt;span style=&quot;color: rgb(0, 0, 0);&quot;&gt;b1000,b500,b100,b50&lt;/span&gt;&lt;div&gt;,b20,&lt;span style=&quot;background-color: transparent;&quot;&gt;c10,c5,c2,c1,&lt;/span&gt;&lt;/div&gt;&lt;/div&gt;" style="shape=parallelogram;perimeter=parallelogramPerimeter;whiteSpace=wrap;html=1;fixedSize=1;fontStyle=0;" parent="1" vertex="1">
                    <mxGeometry x="-1544.5" y="7380" width="175" height="60" as="geometry"/>
                </mxCell>
                <mxCell id="277" value="" style="edgeStyle=none;html=1;" parent="1" source="278" target="276" edge="1">
                    <mxGeometry relative="1" as="geometry"/>
                </mxCell>
                <mxCell id="278" value="&lt;div&gt;&lt;br&gt;&lt;/div&gt;&lt;div&gt;&lt;br&gt;&lt;/div&gt;&lt;div&gt;หักเงินออกจากตู้&lt;/div&gt;s1000=s1000-b1000&lt;div&gt;,s500=s500-b500&lt;/div&gt;&lt;div&gt;,s100=s100-b100&lt;/div&gt;&lt;div&gt;,s50=s50-b50,s20=s20-b20,s10=s10-c10,s5=s5-c5,s2=s2-c2,s1=s1-c1&lt;/div&gt;&lt;div&gt;&lt;br&gt;&lt;/div&gt;&lt;div&gt;&lt;br&gt;&lt;/div&gt;" style="whiteSpace=wrap;html=1;fontStyle=0;" parent="1" vertex="1">
                    <mxGeometry x="-1539.5" y="7240" width="170" height="100" as="geometry"/>
                </mxCell>
                <mxCell id="293" value="" style="edgeStyle=none;html=1;" parent="1" source="280" target="292" edge="1">
                    <mxGeometry relative="1" as="geometry"/>
                </mxCell>
                <mxCell id="280" value="ทอนเงินลูกค้า" style="whiteSpace=wrap;html=1;fontStyle=0;" parent="1" vertex="1">
                    <mxGeometry x="-1517" y="7480" width="120" height="60" as="geometry"/>
                </mxCell>
                <mxCell id="290" value="" style="edgeStyle=none;html=1;" parent="1" source="282" target="283" edge="1">
                    <mxGeometry relative="1" as="geometry"/>
                </mxCell>
                <mxCell id="282" value="กำหนดตัวแปร&lt;div&gt;&lt;span style=&quot;color: rgb(0, 0, 0);&quot;&gt;b1000,b500,b100,b50&lt;/span&gt;&lt;div&gt;,b20,&lt;span style=&quot;background-color: transparent;&quot;&gt;c10,c5,c2,c1,cash,change&lt;/span&gt;&lt;span style=&quot;font-family: monospace; font-size: 0px; font-weight: 400; text-align: start; text-wrap-mode: nowrap; background-color: transparent;&quot;&gt;%3CmxGraphModel%3E%3Croot%3E%3CmxCell%20id%3D%220%22%2F%3E%3CmxCell%20id%3D%221%22%20parent%3D%220%22%2F%3E%3CmxCell%20id%3D%222%22%20value%3D%22%26lt%3Bb%26gt%3B%E0%B8%81%E0%B8%B3%E0%B8%AB%E0%B8%99%E0%B8%94%E0%B8%95%E0%B8%B1%E0%B8%A7%E0%B9%81%E0%B8%9B%E0%B8%A3%26lt%3B%2Fb%26gt%3B%26lt%3Bdiv%26gt%3B%26lt%3Bspan%20style%3D%26quot%3Bcolor%3A%20rgb(0%2C%200%2C%200)%3B%26quot%3B%26gt%3B%26lt%3Bb%26gt%3Br1000%2Cr500%2Cr100%2C%26lt%3B%2Fb%26gt%3B%26lt%3B%2Fspan%26gt%3B%26lt%3Bb%20style%3D%26quot%3Bbackground-color%3A%20transparent%3B%26quot%3B%26gt%3Br50%26lt%3B%2Fb%26gt%3B%26lt%3Bb%20style%3D%26quot%3Bbackground-color%3A%20transparent%3B%26quot%3B%26gt%3B%2Cr20%2Cr%26lt%3Bspan%20style%3D%26quot%3Bbackground-color%3A%20transparent%3B%26quot%3B%26gt%3B10%2C%26lt%3B%2Fspan%26gt%3B%26lt%3B%2Fb%26gt%3B%26lt%3B%2Fdiv%26gt%3B%26lt%3Bdiv%26gt%3B%26lt%3Bdiv%26gt%3B%26lt%3Bspan%20style%3D%26quot%3Bbackground-color%3A%20transparent%3B%26quot%3B%26gt%3B%26lt%3Bb%26gt%3Br5%2Cr2%2Cr1%26lt%3B%2Fb%26gt%3B%26lt%3B%2Fspan%26gt%3B%26lt%3B%2Fdiv%26gt%3B%26lt%3B%2Fdiv%26gt%3B%22%20style%3D%22whiteSpace%3Dwrap%3Bhtml%3D1%3BfontStyle%3D0%22%20vertex%3D%221%22%20parent%3D%221%22%3E%3CmxGeometry%20x%3D%22-1299.5%22%20y%3D%221548%22%20width%3D%22180%22%20height%3D%2245.39%22%20as%3D%22geometry%22%2F%3E%3C%2FmxCell%3E%3C%2Froot%3E%3C%2FmxGraphModel%3E&lt;/span&gt;&lt;span style=&quot;font-family: monospace; font-size: 0px; font-weight: 400; text-align: start; text-wrap-mode: nowrap; background-color: transparent;&quot;&gt;%3CmxGraphModel%3E%3Croot%3E%3CmxCell%20id%3D%220%22%2F%3E%3CmxCell%20id%3D%221%22%20parent%3D%220%22%2F%3E%3CmxCell%20id%3D%222%22%20value%3D%22%26lt%3Bb%26gt%3B%E0%B8%81%E0%B8%B3%E0%B8%AB%E0%B8%99%E0%B8%94%E0%B8%95%E0%B8%B1%E0%B8%A7%E0%B9%81%E0%B8%9B%E0%B8%A3%26lt%3B%2Fb%26gt%3B%26lt%3Bdiv%26gt%3B%26lt%3Bspan%20style%3D%26quot%3Bcolor%3A%20rgb(0%2C%200%2C%200)%3B%26quot%3B%26gt%3B%26lt%3Bb%26gt%3Br1000%2Cr500%2Cr100%2C%26lt%3B%2Fb%26gt%3B%26lt%3B%2Fspan%26gt%3B%26lt%3Bb%20style%3D%26quot%3Bbackground-color%3A%20transparent%3B%26quot%3B%26gt%3Br50%26lt%3B%2Fb%26gt%3B%26lt%3Bb%20style%3D%26quot%3Bbackground-color%3A%20transparent%3B%26quot%3B%26gt%3B%2Cr20%2Cr%26lt%3Bspan%20style%3D%26quot%3Bbackground-color%3A%20transparent%3B%26quot%3B%26gt%3B10%2C%26lt%3B%2Fspan%26gt%3B%26lt%3B%2Fb%26gt%3B%26lt%3B%2Fdiv%26gt%3B%26lt%3Bdiv%26gt%3B%26lt%3Bdiv%26gt%3B%26lt%3Bspan%20style%3D%26quot%3Bbackground-color%3A%20transparent%3B%26quot%3B%26gt%3B%26lt%3Bb%26gt%3Br5%2Cr2%2Cr1%26lt%3B%2Fb%26gt%3B%26lt%3B%2Fspan%26gt%3B%26lt%3B%2Fdiv%26gt%3B%26lt%3B%2Fdiv%26gt%3B%22%20style%3D%22whiteSpace%3Dwrap%3Bhtml%3D1%3BfontStyle%3D0%22%20vertex%3D%221%22%20parent%3D%221%22%3E%3CmxGeometry%20x%3D%22-1299.5%22%20y%3D%221548%22%20width%3D%22180%22%20height%3D%2245.39%22%20as%3D%22geometry%22%2F%3E%3C%2FmxCell%3E%3C%2Froot%3E%3C%2FmxGraphModel%3E&lt;/span&gt;&lt;span style=&quot;font-family: monospace; font-size: 0px; font-weight: 400; text-align: start; text-wrap-mode: nowrap; background-color: transparent;&quot;&gt;%3CmxGraphModel%3E%3Croot%3E%3CmxCell%20id%3D%220%22%2F%3E%3CmxCell%20id%3D%221%22%20parent%3D%220%22%2F%3E%3CmxCell%20id%3D%222%22%20value%3D%22%26lt%3Bb%26gt%3B%E0%B8%81%E0%B8%B3%E0%B8%AB%E0%B8%99%E0%B8%94%E0%B8%95%E0%B8%B1%E0%B8%A7%E0%B9%81%E0%B8%9B%E0%B8%A3%26lt%3B%2Fb%26gt%3B%26lt%3Bdiv%26gt%3B%26lt%3Bspan%20style%3D%26quot%3Bcolor%3A%20rgb(0%2C%200%2C%200)%3B%26quot%3B%26gt%3B%26lt%3Bb%26gt%3Br1000%2Cr500%2Cr100%2C%26lt%3B%2Fb%26gt%3B%26lt%3B%2Fspan%26gt%3B%26lt%3Bb%20style%3D%26quot%3Bbackground-color%3A%20transparent%3B%26quot%3B%26gt%3Br50%26lt%3B%2Fb%26gt%3B%26lt%3Bb%20style%3D%26quot%3Bbackground-color%3A%20transparent%3B%26quot%3B%26gt%3B%2Cr20%2Cr%26lt%3Bspan%20style%3D%26quot%3Bbackground-color%3A%20transparent%3B%26quot%3B%26gt%3B10%2C%26lt%3B%2Fspan%26gt%3B%26lt%3B%2Fb%26gt%3B%26lt%3B%2Fdiv%26gt%3B%26lt%3Bdiv%26gt%3B%26lt%3Bdiv%26gt%3B%26lt%3Bspan%20style%3D%26quot%3Bbackground-color%3A%20transparent%3B%26quot%3B%26gt%3B%26lt%3Bb%26gt%3Br5%2Cr2%2Cr1%26lt%3B%2Fb%26gt%3B%26lt%3B%2Fspan%26gt%3B%26lt%3B%2Fdiv%26gt%3B%26lt%3B%2Fdiv%26gt%3B%22%20style%3D%22whiteSpace%3Dwrap%3Bhtml%3D1%3BfontStyle%3D0%22%20vertex%3D%221%22%20parent%3D%221%22%3E%3CmxGeometry%20x%3D%22-1299.5%22%20y%3D%221548%22%20width%3D%22180%22%20height%3D%2245.39%22%20as%3D%22geometry%22%2F%3E%3C%2FmxCell%3E%3C%2Froot%3E%3C%2FmxGraphModel%3E&lt;/span&gt;&lt;span style=&quot;background-color: transparent; font-family: monospace; font-size: 0px; font-weight: 400; text-align: start; text-wrap-mode: nowrap;&quot;&gt;%3CmxGraphModel%3E%3Croot%3E%3CmxCell%20id%3D%220%22%2F%3E%3CmxCell%20id%3D%221%22%20parent%3D%220%22%2F%3E%3CmxCell%20id%3D%222%22%20value%3D%22%26lt%3Bb%26gt%3B%E0%B8%81%E0%B8%B3%E0%B8%AB%E0%B8%99%E0%B8%94%E0%B8%95%E0%B8%B1%E0%B8%A7%E0%B9%81%E0%B8%9B%E0%B8%A3%26lt%3B%2Fb%26gt%3B%26lt%3Bdiv%26gt%3B%26lt%3Bspan%20style%3D%26quot%3Bcolor%3A%20rgb(0%2C%200%2C%200)%3B%26quot%3B%26gt%3B%26lt%3Bb%26gt%3Br1000%2Cr500%2Cr100%2C%26lt%3B%2Fb%26gt%3B%26lt%3B%2Fspan%26gt%3B%26lt%3Bb%20style%3D%26quot%3Bbackground-color%3A%20transparent%3B%26quot%3B%26gt%3Br50%26lt%3B%2Fb%26gt%3B%26lt%3Bb%20style%3D%26quot%3Bbackground-color%3A%20transparent%3B%26quot%3B%26gt%3B%2Cr20%2Cr%26lt%3Bspan%20style%3D%26quot%3Bbackground-color%3A%20transparent%3B%26quot%3B%26gt%3B10%2C%26lt%3B%2Fspan%26gt%3B%26lt%3B%2Fb%26gt%3B%26lt%3B%2Fdiv%26gt%3B%26lt%3Bdiv%26gt%3B%26lt%3Bdiv%26gt%3B%26lt%3Bspan%20style%3D%26quot%3Bbackground-color%3A%20transparent%3B%26quot%3B%26gt%3B%26lt%3Bb%26gt%3Br5%2Cr2%2Cr1%26lt%3B%2Fb%26gt%3B%26lt%3B%2Fspan%26gt%3B%26lt%3B%2Fdiv%26gt%3B%26lt%3B%2Fdiv%26gt%3B%22%20style%3D%22whiteSpace%3Dwrap%3Bhtml%3D1%3BfontStyle%3D0%22%20vertex%3D%221%22%20parent%3D%221%22%3E%3CmxGeometry%20x%3D%22-1299.5%22%20y%3D%221548%22%20width%3D%22180%22%20height%3D%2245.39%22%20as%3D%22geometry%22%2F%3E%3C%2FmxCell%3E%3C%2Froot%3E%3C%2FmxGraphModel%3E&lt;/span&gt;&lt;/div&gt;&lt;/div&gt;" style="whiteSpace=wrap;html=1;fontStyle=1" parent="1" vertex="1">
                    <mxGeometry x="-1535" y="-1610" width="180" height="70" as="geometry"/>
                </mxCell>
                <mxCell id="291" value="" style="edgeStyle=none;html=1;" parent="1" source="283" target="of-Or63fq2WvLNfduHY4-39" edge="1">
                    <mxGeometry relative="1" as="geometry"/>
                </mxCell>
                <mxCell id="283" value="&lt;b&gt;กำหนดตัวแปร&lt;/b&gt;&lt;div&gt;&lt;span style=&quot;color: rgb(0, 0, 0);&quot;&gt;&lt;b&gt;s1000=20,s500=20,s100=20,&lt;/b&gt;&lt;/span&gt;&lt;/div&gt;&lt;div&gt;&lt;span style=&quot;color: rgb(0, 0, 0);&quot;&gt;&lt;b&gt;s50=20&lt;/b&gt;&lt;/span&gt;&lt;div&gt;&lt;b&gt;,s20=20,s&lt;span style=&quot;background-color: transparent;&quot;&gt;10=20,&lt;/span&gt;&lt;/b&gt;&lt;/div&gt;&lt;div&gt;&lt;span style=&quot;background-color: transparent;&quot;&gt;&lt;b&gt;s5=20,s2=20,s1=100,ยอดเงิน&lt;/b&gt;&lt;/span&gt;&lt;/div&gt;&lt;/div&gt;" style="whiteSpace=wrap;html=1;fontStyle=0" parent="1" vertex="1">
                    <mxGeometry x="-1535" y="-1480" width="180" height="75.39" as="geometry"/>
                </mxCell>
                <mxCell id="334" value="" style="edgeStyle=none;html=1;" parent="1" source="292" target="333" edge="1">
                    <mxGeometry relative="1" as="geometry"/>
                </mxCell>
                <mxCell id="292" value="ทานทำรายการสำเร็จ" style="shape=parallelogram;perimeter=parallelogramPerimeter;whiteSpace=wrap;html=1;fixedSize=1;fontStyle=0;" parent="1" vertex="1">
                    <mxGeometry x="-1523.5" y="7590" width="134.5" height="60" as="geometry"/>
                </mxCell>
                <mxCell id="301" value="" style="edgeStyle=orthogonalEdgeStyle;html=1;entryX=0.5;entryY=0;entryDx=0;entryDy=0;exitX=0;exitY=0.5;exitDx=0;exitDy=0;rounded=0;curved=0;" parent="1" source="243" target="245" edge="1">
                    <mxGeometry relative="1" as="geometry">
                        <mxPoint x="-1385" y="6050.005" as="sourcePoint"/>
                        <mxPoint x="-1362" y="6159.995" as="targetPoint"/>
                    </mxGeometry>
                </mxCell>
                <mxCell id="322" value="ใช่" style="edgeLabel;html=1;align=center;verticalAlign=middle;resizable=0;points=[];" parent="301" vertex="1" connectable="0">
                    <mxGeometry x="-0.0762" relative="1" as="geometry">
                        <mxPoint as="offset"/>
                    </mxGeometry>
                </mxCell>
                <mxCell id="309" value="" style="edgeStyle=none;html=1;" parent="1" source="307" target="256" edge="1">
                    <mxGeometry relative="1" as="geometry"/>
                </mxCell>
                <mxCell id="310" value="ไม่" style="edgeLabel;html=1;align=center;verticalAlign=middle;resizable=0;points=[];" parent="309" vertex="1" connectable="0">
                    <mxGeometry x="-0.1455" y="-1" relative="1" as="geometry">
                        <mxPoint as="offset"/>
                    </mxGeometry>
                </mxCell>
                <mxCell id="312" value="" style="edgeStyle=none;html=1;exitX=0;exitY=0.5;exitDx=0;exitDy=0;" parent="1" source="307" edge="1">
                    <mxGeometry relative="1" as="geometry">
                        <mxPoint x="-1490" y="6264.85" as="sourcePoint"/>
                        <mxPoint x="-1669" y="6270" as="targetPoint"/>
                    </mxGeometry>
                </mxCell>
                <mxCell id="313" value="ใช่" style="edgeLabel;html=1;align=center;verticalAlign=middle;resizable=0;points=[];" parent="312" vertex="1" connectable="0">
                    <mxGeometry x="-0.2647" relative="1" as="geometry">
                        <mxPoint as="offset"/>
                    </mxGeometry>
                </mxCell>
                <mxCell id="307" value="change=ราคารวม" style="rhombus;whiteSpace=wrap;html=1;fontStyle=0;" parent="1" vertex="1">
                    <mxGeometry x="-1507.5" y="6235" width="105.5" height="70" as="geometry"/>
                </mxCell>
                <mxCell id="315" value="" style="edgeStyle=none;html=1;" parent="1" edge="1">
                    <mxGeometry relative="1" as="geometry">
                        <mxPoint x="-1669" y="6270" as="sourcePoint"/>
                        <mxPoint x="-1667" y="7559.999999999999" as="targetPoint"/>
                    </mxGeometry>
                </mxCell>
                <mxCell id="317" value="" style="edgeStyle=none;html=1;" parent="1" edge="1">
                    <mxGeometry relative="1" as="geometry">
                        <mxPoint x="-1667" y="7559.999999999999" as="sourcePoint"/>
                        <mxPoint x="-1459" y="7560" as="targetPoint"/>
                    </mxGeometry>
                </mxCell>
                <mxCell id="318" value="&lt;font face=&quot;Sarabun&quot;&gt;จบ&lt;/font&gt;" style="ellipse;whiteSpace=wrap;html=1;fontStyle=0" parent="1" vertex="1">
                    <mxGeometry x="-1523.5" y="8100" width="130" height="30" as="geometry"/>
                </mxCell>
                <mxCell id="327" value="" style="edgeStyle=none;html=1;" parent="1" source="325" edge="1">
                    <mxGeometry relative="1" as="geometry">
                        <mxPoint x="-1231" y="5760" as="targetPoint"/>
                    </mxGeometry>
                </mxCell>
                <mxCell id="328" value="ใช่" style="edgeLabel;html=1;align=center;verticalAlign=middle;resizable=0;points=[];" parent="327" vertex="1" connectable="0">
                    <mxGeometry x="-0.4959" y="2" relative="1" as="geometry">
                        <mxPoint as="offset"/>
                    </mxGeometry>
                </mxCell>
                <mxCell id="330" value="" style="edgeStyle=orthogonalEdgeStyle;html=1;rounded=0;curved=0;" parent="1" edge="1">
                    <mxGeometry relative="1" as="geometry">
                        <mxPoint x="-848.5100000000002" y="5760" as="sourcePoint"/>
                        <mxPoint x="-1461" y="8080" as="targetPoint"/>
                        <Array as="points">
                            <mxPoint x="-701" y="5760"/>
                            <mxPoint x="-701" y="8080"/>
                        </Array>
                    </mxGeometry>
                </mxCell>
                <mxCell id="331" value="ไม่" style="edgeLabel;html=1;align=center;verticalAlign=middle;resizable=0;points=[];" parent="330" vertex="1" connectable="0">
                    <mxGeometry x="-0.9197" y="3" relative="1" as="geometry">
                        <mxPoint x="-1" as="offset"/>
                    </mxGeometry>
                </mxCell>
                <mxCell id="325" value="ชำระเงินหรือไม่" style="rhombus;whiteSpace=wrap;html=1;fontSize=11;" parent="1" vertex="1">
                    <mxGeometry x="-923.5" y="5720.01" width="80" height="80" as="geometry"/>
                </mxCell>
                <mxCell id="337" value="" style="edgeStyle=none;html=1;" parent="1" source="333" target="336" edge="1">
                    <mxGeometry relative="1" as="geometry"/>
                </mxCell>
                <mxCell id="333" value="ยอดเงิน=(s1000*1000)+(s500*500)+(s100*100)+(s50*50)+(s20*20)+(c10*10)+(c5*5)+(c2*2)+(c1)" style="whiteSpace=wrap;html=1;fontStyle=0;" parent="1" vertex="1">
                    <mxGeometry x="-1561" y="7680" width="207.5" height="60" as="geometry"/>
                </mxCell>
                <mxCell id="339" value="" style="edgeStyle=none;html=1;entryX=0.5;entryY=0;entryDx=0;entryDy=0;" parent="1" source="336" target="340" edge="1">
                    <mxGeometry relative="1" as="geometry">
                        <mxPoint x="-1460" y="7870" as="targetPoint"/>
                    </mxGeometry>
                </mxCell>
                <mxCell id="336" value="แสดง&lt;div&gt;ยออดเงิน&lt;/div&gt;" style="shape=parallelogram;perimeter=parallelogramPerimeter;whiteSpace=wrap;html=1;fixedSize=1;fontStyle=0;" parent="1" vertex="1">
                    <mxGeometry x="-1528" y="7770" width="136.75" height="60" as="geometry"/>
                </mxCell>
                <mxCell id="341" value="" style="edgeStyle=none;html=1;" parent="1" source="340" target="318" edge="1">
                    <mxGeometry relative="1" as="geometry"/>
                </mxCell>
                <mxCell id="340" value="แสดงจำนวนสินค้าที่เหลือ&lt;div&gt;&lt;div style=&quot;&quot;&gt;&lt;span style=&quot;background-color: transparent; color: light-dark(rgb(0, 0, 0), rgb(255, 255, 255));&quot;&gt;เมล็ดทานตะวัน:a ชิ้น&lt;/span&gt;&lt;/div&gt;&lt;div style=&quot;&quot;&gt;&amp;nbsp;ถั่วแปบ:b ชิ้น&lt;/div&gt;&lt;div style=&quot;&quot;&gt;&amp;nbsp;จิ้นส้มหมก:c ชิ้น&lt;/div&gt;&lt;div style=&quot;&quot;&gt;&lt;span style=&quot;background-color: transparent; color: light-dark(rgb(0, 0, 0), rgb(255, 255, 255));&quot;&gt;&amp;nbsp; &amp;nbsp; &amp;nbsp; &amp;nbsp; โค้กกระป๋อง:d ชิ้น&amp;nbsp; &amp;nbsp; &amp;nbsp; &amp;nbsp; &amp;nbsp; &amp;nbsp;&lt;/span&gt;&lt;/div&gt;&lt;div style=&quot;&quot;&gt;&lt;span style=&quot;background-color: transparent; color: light-dark(rgb(0, 0, 0), rgb(255, 255, 255));&quot;&gt;น้ำเขียวกระป๋อง:e ชิ้น&amp;nbsp; &amp;nbsp;&lt;/span&gt;&lt;/div&gt;&lt;div style=&quot;&quot;&gt;&lt;span style=&quot;background-color: transparent; color: light-dark(rgb(0, 0, 0), rgb(255, 255, 255));&quot;&gt;&amp;nbsp;อเมริกาโน่:f ชิ้น&lt;/span&gt;&lt;/div&gt;&lt;div style=&quot;&quot;&gt;&lt;span style=&quot;background-color: transparent; color: light-dark(rgb(0, 0, 0), rgb(255, 255, 255));&quot;&gt;&amp;nbsp; &amp;nbsp; &amp;nbsp; &amp;nbsp; ลาเต้หวานเจี๊ยบ: g ชิ้น&amp;nbsp;&amp;nbsp;&lt;/span&gt;&lt;span style=&quot;background-color: transparent; color: light-dark(rgb(0, 0, 0), rgb(255, 255, 255));&quot;&gt;&amp;nbsp; &amp;nbsp; &amp;nbsp; &amp;nbsp; &amp;nbsp; &amp;nbsp;&lt;/span&gt;&lt;/div&gt;&lt;/div&gt;" style="shape=parallelogram;perimeter=parallelogramPerimeter;whiteSpace=wrap;html=1;fixedSize=1;align=center;" parent="1" vertex="1">
                    <mxGeometry x="-1567.13" y="7880" width="215" height="120" as="geometry"/>
                </mxCell>
                <mxCell id="346" value="" style="edgeStyle=none;html=1;" parent="1" source="344" target="282" edge="1">
                    <mxGeometry relative="1" as="geometry"/>
                </mxCell>
                <mxCell id="344" value="Condition1=true,&lt;span style=&quot;color: rgb(0, 0, 0);&quot;&gt;Condition2=true,&lt;/span&gt;&lt;div&gt;&lt;span style=&quot;color: rgb(0, 0, 0);&quot;&gt;Condition3=true,&lt;/span&gt;&lt;span style=&quot;background-color: transparent; color: rgb(0, 0, 0);&quot;&gt;Condition4=true,&lt;/span&gt;&lt;span style=&quot;background-color: transparent; text-wrap-mode: nowrap; color: rgb(63, 63, 63); font-family: monospace; font-size: 0px; text-align: start;&quot;&gt;%&lt;/span&gt;&lt;span style=&quot;background-color: transparent; font-family: monospace; font-size: 0px; text-align: start; text-wrap-mode: nowrap;&quot;&gt;%3CmxGraphModel%3E%3Croot%3E%3CmxCell%20id%3D%220%22%2F%3E%3CmxCell%20id%3D%221%22%20parent%3D%220%22%2F%3E%3CmxCell%20id%3D%222%22%20value%3D%22Condition2%3Dfalse%22%20style%3D%22whiteSpace%3Dwrap%3Bhtml%3D1%3BfontSize%3D10%3B%22%20vertex%3D%221%22%20parent%3D%221%22%3E%3CmxGeometry%20x%3D%22-2171%22%20y%3D%22-640%22%20width%3D%22120%22%20height%3D%2238.59%22%20as%3D%22geometry%22%2F%3E%3C%2FmxCell%3E%3C%2Froot%3E%3C%2FmxGraphModel%3E&lt;/span&gt;&lt;/div&gt;" style="rounded=0;whiteSpace=wrap;html=1;fontFamily=Sarabun;fontSource=https%3A%2F%2Ffonts.googleapis.com%2Fcss%3Ffamily%3DSarabun;" parent="1" vertex="1">
                    <mxGeometry x="-1550" y="-1729.99" width="216" height="60" as="geometry"/>
                </mxCell>
                <mxCell id="349" value="" style="edgeStyle=none;html=1;" parent="1" source="347" target="of-Or63fq2WvLNfduHY4-52" edge="1">
                    <mxGeometry relative="1" as="geometry"/>
                </mxCell>
                <mxCell id="350" value="true" style="edgeLabel;html=1;align=center;verticalAlign=middle;resizable=0;points=[];" parent="349" vertex="1" connectable="0">
                    <mxGeometry x="-0.2192" y="2" relative="1" as="geometry">
                        <mxPoint y="-1" as="offset"/>
                    </mxGeometry>
                </mxCell>
                <mxCell id="396" value="" style="edgeStyle=none;html=1;" parent="1" source="347" target="395" edge="1">
                    <mxGeometry relative="1" as="geometry"/>
                </mxCell>
                <mxCell id="347" value="Condition1" style="rhombus;whiteSpace=wrap;html=1;" parent="1" vertex="1">
                    <mxGeometry x="-1498" y="-1140" width="100" height="90" as="geometry"/>
                </mxCell>
                <mxCell id="361" value="" style="edgeStyle=none;html=1;" parent="1" source="355" edge="1">
                    <mxGeometry relative="1" as="geometry">
                        <mxPoint x="-1671" y="-730" as="targetPoint"/>
                    </mxGeometry>
                </mxCell>
                <mxCell id="365" value="true" style="edgeLabel;html=1;align=center;verticalAlign=middle;resizable=0;points=[];" parent="361" vertex="1" connectable="0">
                    <mxGeometry x="-0.447" y="-2" relative="1" as="geometry">
                        <mxPoint as="offset"/>
                    </mxGeometry>
                </mxCell>
                <mxCell id="402" value="" style="edgeStyle=none;html=1;" parent="1" source="355" target="401" edge="1">
                    <mxGeometry relative="1" as="geometry"/>
                </mxCell>
                <mxCell id="413" value="false" style="edgeLabel;html=1;align=center;verticalAlign=middle;resizable=0;points=[];" parent="402" vertex="1" connectable="0">
                    <mxGeometry x="-0.058" y="2" relative="1" as="geometry">
                        <mxPoint as="offset"/>
                    </mxGeometry>
                </mxCell>
                <mxCell id="355" value="Condition2" style="rhombus;whiteSpace=wrap;html=1;" parent="1" vertex="1">
                    <mxGeometry x="-1720.56" y="-850" width="100" height="90" as="geometry"/>
                </mxCell>
                <mxCell id="360" value="" style="edgeStyle=none;html=1;entryX=0;entryY=1;entryDx=0;entryDy=0;" parent="1" target="of-Or63fq2WvLNfduHY4-184" edge="1">
                    <mxGeometry relative="1" as="geometry">
                        <mxPoint x="-1803" y="-120" as="sourcePoint"/>
                        <mxPoint x="-1473.56" y="-102.51" as="targetPoint"/>
                    </mxGeometry>
                </mxCell>
                <mxCell id="363" value="" style="edgeStyle=none;html=1;" parent="1" source="362" target="of-Or63fq2WvLNfduHY4-62" edge="1">
                    <mxGeometry relative="1" as="geometry"/>
                </mxCell>
                <mxCell id="364" value="true" style="edgeLabel;html=1;align=center;verticalAlign=middle;resizable=0;points=[];" parent="363" vertex="1" connectable="0">
                    <mxGeometry x="-0.3299" y="1" relative="1" as="geometry">
                        <mxPoint as="offset"/>
                    </mxGeometry>
                </mxCell>
                <mxCell id="408" value="" style="edgeStyle=none;html=1;" parent="1" source="362" target="407" edge="1">
                    <mxGeometry relative="1" as="geometry"/>
                </mxCell>
                <mxCell id="415" value="false" style="edgeLabel;html=1;align=center;verticalAlign=middle;resizable=0;points=[];" parent="408" vertex="1" connectable="0">
                    <mxGeometry x="-0.1758" relative="1" as="geometry">
                        <mxPoint as="offset"/>
                    </mxGeometry>
                </mxCell>
                <mxCell id="362" value="Condition3" style="rhombus;whiteSpace=wrap;html=1;" parent="1" vertex="1">
                    <mxGeometry x="-1130" y="-840" width="100" height="90" as="geometry"/>
                </mxCell>
                <mxCell id="516" value="" style="edgeStyle=none;html=1;" parent="1" source="366" target="515" edge="1">
                    <mxGeometry relative="1" as="geometry"/>
                </mxCell>
                <mxCell id="366" value="แสดง&lt;div&gt;&lt;span style=&quot;background-color: transparent;&quot;&gt;&amp;nbsp; &amp;nbsp;&lt;span style=&quot;white-space: pre;&quot;&gt;&#x9;&lt;/span&gt;&lt;span style=&quot;white-space: pre;&quot;&gt;&#x9;&lt;/span&gt;สินค้าที่เลือก&amp;nbsp;&amp;nbsp;&lt;/span&gt;&lt;span style=&quot;background-color: transparent;&quot;&gt;&amp;nbsp; &amp;nbsp; &amp;nbsp; &amp;nbsp; &amp;nbsp; &amp;nbsp;&lt;/span&gt;&lt;/div&gt;" style="shape=parallelogram;perimeter=parallelogramPerimeter;whiteSpace=wrap;html=1;fixedSize=1;align=center;" parent="1" vertex="1">
                    <mxGeometry x="-1551" y="250" width="215" height="60" as="geometry"/>
                </mxCell>
                <mxCell id="377" value="" style="edgeStyle=none;html=1;" parent="1" source="367" target="376" edge="1">
                    <mxGeometry relative="1" as="geometry"/>
                </mxCell>
                <mxCell id="378" value="ใช่" style="edgeLabel;html=1;align=center;verticalAlign=middle;resizable=0;points=[];" parent="377" vertex="1" connectable="0">
                    <mxGeometry x="-0.1022" y="2" relative="1" as="geometry">
                        <mxPoint y="-1" as="offset"/>
                    </mxGeometry>
                </mxCell>
                <mxCell id="380" value="" style="edgeStyle=none;html=1;" parent="1" source="367" edge="1">
                    <mxGeometry relative="1" as="geometry">
                        <mxPoint x="-1285" y="-20" as="targetPoint"/>
                    </mxGeometry>
                </mxCell>
                <mxCell id="381" value="ไม่" style="edgeLabel;html=1;align=center;verticalAlign=middle;resizable=0;points=[];" parent="380" vertex="1" connectable="0">
                    <mxGeometry x="-0.1518" y="-4" relative="1" as="geometry">
                        <mxPoint x="1" as="offset"/>
                    </mxGeometry>
                </mxCell>
                <mxCell id="367" value="ต้องการเลือกสินค้า&lt;div&gt;เพิ่มหรือไม่&lt;/div&gt;" style="rhombus;whiteSpace=wrap;html=1;" parent="1" vertex="1">
                    <mxGeometry x="-1517.5" y="-60" width="143" height="80" as="geometry"/>
                </mxCell>
                <mxCell id="387" value="" style="edgeStyle=none;html=1;" parent="1" source="376" target="384" edge="1">
                    <mxGeometry relative="1" as="geometry"/>
                </mxCell>
                <mxCell id="376" value="Condition1=false" style="whiteSpace=wrap;html=1;" parent="1" vertex="1">
                    <mxGeometry x="-1505" y="60" width="120" height="40" as="geometry"/>
                </mxCell>
                <mxCell id="383" value="" style="edgeStyle=none;html=1;" parent="1" edge="1">
                    <mxGeometry relative="1" as="geometry">
                        <mxPoint x="-1285" y="-20" as="sourcePoint"/>
                        <mxPoint x="-1285" y="157.5" as="targetPoint"/>
                    </mxGeometry>
                </mxCell>
                <mxCell id="386" value="" style="edgeStyle=none;html=1;entryX=1;entryY=0.5;entryDx=0;entryDy=0;" parent="1" target="384" edge="1">
                    <mxGeometry relative="1" as="geometry">
                        <mxPoint x="-1285" y="157.5" as="sourcePoint"/>
                        <mxPoint x="-1385" y="157.5" as="targetPoint"/>
                    </mxGeometry>
                </mxCell>
                <mxCell id="389" value="" style="edgeStyle=none;html=1;" parent="1" source="384" target="388" edge="1">
                    <mxGeometry relative="1" as="geometry"/>
                </mxCell>
                <mxCell id="384" value="" style="ellipse;whiteSpace=wrap;html=1;aspect=fixed;" parent="1" vertex="1">
                    <mxGeometry x="-1461" y="140" width="35" height="35" as="geometry"/>
                </mxCell>
                <mxCell id="391" value="" style="edgeStyle=none;html=1;" parent="1" source="388" target="390" edge="1">
                    <mxGeometry relative="1" as="geometry"/>
                </mxCell>
                <mxCell id="388" value="" style="shape=waypoint;sketch=0;size=6;pointerEvents=1;points=[];fillColor=default;resizable=0;rotatable=0;perimeter=centerPerimeter;snapToPoint=1;" parent="1" vertex="1">
                    <mxGeometry x="-2420" y="147.5" width="20" height="20" as="geometry"/>
                </mxCell>
                <mxCell id="394" value="" style="edgeStyle=none;html=1;" parent="1" source="390" edge="1">
                    <mxGeometry relative="1" as="geometry">
                        <mxPoint x="-1451" y="-1160" as="targetPoint"/>
                    </mxGeometry>
                </mxCell>
                <mxCell id="390" value="" style="shape=waypoint;sketch=0;size=6;pointerEvents=1;points=[];fillColor=default;resizable=0;rotatable=0;perimeter=centerPerimeter;snapToPoint=1;" parent="1" vertex="1">
                    <mxGeometry x="-2420" y="-1170" width="20" height="20" as="geometry"/>
                </mxCell>
                <mxCell id="398" value="" style="edgeStyle=none;html=1;" parent="1" source="395" target="397" edge="1">
                    <mxGeometry relative="1" as="geometry"/>
                </mxCell>
                <mxCell id="395" value="" style="shape=waypoint;sketch=0;size=6;pointerEvents=1;points=[];fillColor=default;resizable=0;rotatable=0;perimeter=centerPerimeter;snapToPoint=1;" parent="1" vertex="1">
                    <mxGeometry x="-360" y="-1105" width="20" height="20" as="geometry"/>
                </mxCell>
                <mxCell id="400" value="" style="edgeStyle=orthogonalEdgeStyle;html=1;entryX=0.5;entryY=0;entryDx=0;entryDy=0;rounded=0;" parent="1" source="397" target="366" edge="1">
                    <mxGeometry relative="1" as="geometry">
                        <mxPoint x="-1443.5" y="200.00000000000045" as="targetPoint"/>
                    </mxGeometry>
                </mxCell>
                <mxCell id="397" value="" style="shape=waypoint;sketch=0;size=6;pointerEvents=1;points=[];fillColor=default;resizable=0;rotatable=0;perimeter=centerPerimeter;snapToPoint=1;" parent="1" vertex="1">
                    <mxGeometry x="-370" y="190" width="20" height="20" as="geometry"/>
                </mxCell>
                <mxCell id="404" value="" style="edgeStyle=none;html=1;" parent="1" source="401" target="403" edge="1">
                    <mxGeometry relative="1" as="geometry"/>
                </mxCell>
                <mxCell id="401" value="" style="shape=waypoint;sketch=0;size=6;pointerEvents=1;points=[];fillColor=default;resizable=0;rotatable=0;perimeter=centerPerimeter;snapToPoint=1;" parent="1" vertex="1">
                    <mxGeometry x="-1860.56" y="-815" width="20" height="20" as="geometry"/>
                </mxCell>
                <mxCell id="406" value="" style="edgeStyle=none;html=1;" parent="1" source="403" edge="1">
                    <mxGeometry relative="1" as="geometry">
                        <mxPoint x="-1450.5" y="-1180" as="targetPoint"/>
                    </mxGeometry>
                </mxCell>
                <mxCell id="403" value="" style="shape=waypoint;sketch=0;size=6;pointerEvents=1;points=[];fillColor=default;resizable=0;rotatable=0;perimeter=centerPerimeter;snapToPoint=1;" parent="1" vertex="1">
                    <mxGeometry x="-1860.56" y="-1190" width="20" height="20" as="geometry"/>
                </mxCell>
                <mxCell id="410" value="" style="edgeStyle=none;html=1;" parent="1" source="407" target="409" edge="1">
                    <mxGeometry relative="1" as="geometry"/>
                </mxCell>
                <mxCell id="407" value="" style="shape=waypoint;sketch=0;size=6;pointerEvents=1;points=[];fillColor=default;resizable=0;rotatable=0;perimeter=centerPerimeter;snapToPoint=1;" parent="1" vertex="1">
                    <mxGeometry x="-910" y="-805" width="20" height="20" as="geometry"/>
                </mxCell>
                <mxCell id="412" value="" style="edgeStyle=none;html=1;" parent="1" source="409" edge="1">
                    <mxGeometry relative="1" as="geometry">
                        <mxPoint x="-1442" y="-1180" as="targetPoint"/>
                    </mxGeometry>
                </mxCell>
                <mxCell id="409" value="" style="shape=waypoint;sketch=0;size=6;pointerEvents=1;points=[];fillColor=default;resizable=0;rotatable=0;perimeter=centerPerimeter;snapToPoint=1;" parent="1" vertex="1">
                    <mxGeometry x="-910" y="-1190" width="20" height="20" as="geometry"/>
                </mxCell>
                <mxCell id="425" value="" style="edgeStyle=none;html=1;" parent="1" source="422" edge="1">
                    <mxGeometry relative="1" as="geometry">
                        <mxPoint x="-1674" y="-860" as="targetPoint"/>
                    </mxGeometry>
                </mxCell>
                <mxCell id="422" value="" style="shape=waypoint;sketch=0;size=6;pointerEvents=1;points=[];fillColor=default;resizable=0;rotatable=0;perimeter=centerPerimeter;snapToPoint=1;fontSize=10;" parent="1" vertex="1">
                    <mxGeometry x="-2121" y="-869.9999999999998" width="20" height="20" as="geometry"/>
                </mxCell>
                <mxCell id="429" value="" style="edgeStyle=none;html=1;entryX=0.537;entryY=0.237;entryDx=0;entryDy=0;entryPerimeter=0;" parent="1" source="426" target="422" edge="1">
                    <mxGeometry relative="1" as="geometry">
                        <mxPoint x="-2111" y="-851.0050000000001" as="targetPoint"/>
                    </mxGeometry>
                </mxCell>
                <mxCell id="426" value="Condition2=false" style="whiteSpace=wrap;html=1;fontSize=10;" parent="1" vertex="1">
                    <mxGeometry x="-2171" y="-640" width="120" height="38.59" as="geometry"/>
                </mxCell>
                <mxCell id="433" value="" style="edgeStyle=none;html=1;" parent="1" source="430" target="432" edge="1">
                    <mxGeometry relative="1" as="geometry"/>
                </mxCell>
                <mxCell id="430" value="Condition3=false" style="whiteSpace=wrap;html=1;fontSize=10;" parent="1" vertex="1">
                    <mxGeometry x="-770" y="-760" width="120" height="38.59" as="geometry"/>
                </mxCell>
                <mxCell id="435" value="" style="edgeStyle=none;html=1;" parent="1" edge="1">
                    <mxGeometry relative="1" as="geometry">
                        <mxPoint x="-713" y="-859.2950000000001" as="sourcePoint"/>
                        <mxPoint x="-1078" y="-859.2950000000001" as="targetPoint"/>
                    </mxGeometry>
                </mxCell>
                <mxCell id="432" value="" style="shape=waypoint;sketch=0;size=6;pointerEvents=1;points=[];fillColor=default;resizable=0;rotatable=0;perimeter=centerPerimeter;snapToPoint=1;fontSize=10;" parent="1" vertex="1">
                    <mxGeometry x="-720" y="-869.295" width="20" height="20" as="geometry"/>
                </mxCell>
                <mxCell id="440" value="" style="edgeStyle=orthogonalEdgeStyle;rounded=0;orthogonalLoop=1;jettySize=auto;html=1;entryX=1;entryY=0.5;entryDx=0;entryDy=0;" parent="1" source="442" target="522" edge="1">
                    <mxGeometry relative="1" as="geometry">
                        <mxPoint x="-1650" y="550" as="targetPoint"/>
                    </mxGeometry>
                </mxCell>
                <mxCell id="441" value="ไม่" style="edgeLabel;html=1;align=center;verticalAlign=middle;resizable=0;points=[];" parent="440" vertex="1" connectable="0">
                    <mxGeometry x="-0.2948" y="-1" relative="1" as="geometry">
                        <mxPoint as="offset"/>
                    </mxGeometry>
                </mxCell>
                <mxCell id="545" value="" style="edgeStyle=none;html=1;" parent="1" source="442" target="543" edge="1">
                    <mxGeometry relative="1" as="geometry"/>
                </mxCell>
                <mxCell id="442" value="&lt;font style=&quot;font-size: 9px;&quot;&gt;&lt;b&gt;ต้องการ&lt;/b&gt;&lt;/font&gt;&lt;div&gt;&lt;font style=&quot;font-size: 9px;&quot;&gt;&lt;b&gt;ยกเลิกสินค้าหรือไม่&lt;/b&gt;&lt;/font&gt;&lt;/div&gt;" style="rhombus;whiteSpace=wrap;html=1;" parent="1" vertex="1">
                    <mxGeometry x="-1497.56" y="500" width="101" height="100" as="geometry"/>
                </mxCell>
                <mxCell id="443" value="" style="edgeStyle=orthogonalEdgeStyle;rounded=0;orthogonalLoop=1;jettySize=auto;html=1;entryX=0.5;entryY=0;entryDx=0;entryDy=0;" parent="1" source="447" target="548" edge="1">
                    <mxGeometry relative="1" as="geometry">
                        <mxPoint x="-1610" y="945" as="targetPoint"/>
                    </mxGeometry>
                </mxCell>
                <mxCell id="444" value="ใช่" style="edgeLabel;html=1;align=center;verticalAlign=middle;resizable=0;points=[];" parent="443" vertex="1" connectable="0">
                    <mxGeometry x="-0.2087" relative="1" as="geometry">
                        <mxPoint as="offset"/>
                    </mxGeometry>
                </mxCell>
                <mxCell id="445" value="" style="edgeStyle=orthogonalEdgeStyle;rounded=0;orthogonalLoop=1;jettySize=auto;html=1;entryX=0.5;entryY=0;entryDx=0;entryDy=0;" parent="1" source="447" target="454" edge="1">
                    <mxGeometry relative="1" as="geometry">
                        <Array as="points">
                            <mxPoint x="-1356.5" y="945"/>
                            <mxPoint x="-1356.5" y="970"/>
                        </Array>
                    </mxGeometry>
                </mxCell>
                <mxCell id="446" value="ไม่" style="edgeLabel;html=1;align=center;verticalAlign=middle;resizable=0;points=[];" parent="445" vertex="1" connectable="0">
                    <mxGeometry x="-0.3931" relative="1" as="geometry">
                        <mxPoint as="offset"/>
                    </mxGeometry>
                </mxCell>
                <mxCell id="447" value="&lt;span style=&quot;color: rgb(0, 0, 0); font-family: Sarabun; font-size: 12px;&quot;&gt;selecksnack=1&lt;/span&gt;&lt;div&gt;&lt;span style=&quot;color: rgb(0, 0, 0); font-family: Sarabun; font-size: 12px;&quot;&gt;หรือไม่&lt;/span&gt;&lt;/div&gt;" style="rhombus;whiteSpace=wrap;html=1;fontSize=11;" parent="1" vertex="1">
                    <mxGeometry x="-1496.5" y="900" width="93" height="90" as="geometry"/>
                </mxCell>
                <mxCell id="452" value="" style="edgeStyle=orthogonalEdgeStyle;rounded=0;orthogonalLoop=1;jettySize=auto;html=1;entryX=0.5;entryY=0;entryDx=0;entryDy=0;" parent="1" source="454" target="461" edge="1">
                    <mxGeometry relative="1" as="geometry"/>
                </mxCell>
                <mxCell id="453" value="ไม่" style="edgeLabel;html=1;align=center;verticalAlign=middle;resizable=0;points=[];" parent="452" vertex="1" connectable="0">
                    <mxGeometry x="-0.3548" y="-1" relative="1" as="geometry">
                        <mxPoint as="offset"/>
                    </mxGeometry>
                </mxCell>
                <mxCell id="570" value="" style="edgeStyle=orthogonalEdgeStyle;html=1;entryX=0.5;entryY=0;entryDx=0;entryDy=0;rounded=0;" parent="1" source="454" target="551" edge="1">
                    <mxGeometry relative="1" as="geometry"/>
                </mxCell>
                <mxCell id="572" value="ใช่" style="edgeLabel;html=1;align=center;verticalAlign=middle;resizable=0;points=[];" parent="570" vertex="1" connectable="0">
                    <mxGeometry x="-0.3333" y="1" relative="1" as="geometry">
                        <mxPoint as="offset"/>
                    </mxGeometry>
                </mxCell>
                <mxCell id="454" value="&lt;span style=&quot;color: rgb(0, 0, 0); font-family: Sarabun; font-size: 12px;&quot;&gt;selecksnack=2&lt;/span&gt;&lt;div&gt;&lt;span style=&quot;color: rgb(0, 0, 0); font-family: Sarabun; font-size: 12px;&quot;&gt;หรือไม่&lt;/span&gt;&lt;/div&gt;" style="rhombus;whiteSpace=wrap;html=1;fontSize=11;" parent="1" vertex="1">
                    <mxGeometry x="-1403.5" y="965" width="93" height="90" as="geometry"/>
                </mxCell>
                <mxCell id="455" value="" style="edgeStyle=orthogonalEdgeStyle;rounded=0;orthogonalLoop=1;jettySize=auto;html=1;" parent="1" source="456" target="489" edge="1">
                    <mxGeometry relative="1" as="geometry"/>
                </mxCell>
                <mxCell id="456" value="nut=nut-1" style="whiteSpace=wrap;html=1;fontSize=11;" parent="1" vertex="1">
                    <mxGeometry x="-1528" y="1140" width="100" height="30" as="geometry"/>
                </mxCell>
                <mxCell id="459" value="" style="edgeStyle=orthogonalEdgeStyle;rounded=0;orthogonalLoop=1;jettySize=auto;html=1;entryX=0.5;entryY=0;entryDx=0;entryDy=0;" parent="1" source="461" target="469" edge="1">
                    <mxGeometry relative="1" as="geometry"/>
                </mxCell>
                <mxCell id="460" value="ไม่" style="edgeLabel;html=1;align=center;verticalAlign=middle;resizable=0;points=[];" parent="459" vertex="1" connectable="0">
                    <mxGeometry x="-0.4212" y="1" relative="1" as="geometry">
                        <mxPoint as="offset"/>
                    </mxGeometry>
                </mxCell>
                <mxCell id="567" value="" style="edgeStyle=orthogonalEdgeStyle;html=1;entryX=0.5;entryY=0;entryDx=0;entryDy=0;rounded=0;" parent="1" source="461" target="552" edge="1">
                    <mxGeometry relative="1" as="geometry"/>
                </mxCell>
                <mxCell id="573" value="ใช่" style="edgeLabel;html=1;align=center;verticalAlign=middle;resizable=0;points=[];" parent="567" vertex="1" connectable="0">
                    <mxGeometry x="-0.2678" y="1" relative="1" as="geometry">
                        <mxPoint as="offset"/>
                    </mxGeometry>
                </mxCell>
                <mxCell id="461" value="&lt;span style=&quot;color: rgb(0, 0, 0); font-family: Sarabun; font-size: 12px;&quot;&gt;selecksnack=3&lt;/span&gt;&lt;div&gt;&lt;span style=&quot;color: rgb(0, 0, 0); font-family: Sarabun; font-size: 12px;&quot;&gt;หรือไม่&lt;/span&gt;&lt;/div&gt;" style="rhombus;whiteSpace=wrap;html=1;fontSize=11;" parent="1" vertex="1">
                    <mxGeometry x="-1302.5" y="1030" width="93" height="90" as="geometry"/>
                </mxCell>
                <mxCell id="463" value="" style="edgeStyle=orthogonalEdgeStyle;rounded=0;orthogonalLoop=1;jettySize=auto;html=1;" parent="1" source="464" target="491" edge="1">
                    <mxGeometry relative="1" as="geometry"/>
                </mxCell>
                <mxCell id="464" value="som=som-1" style="whiteSpace=wrap;html=1;fontSize=11;" parent="1" vertex="1">
                    <mxGeometry x="-1418.5" y="1190" width="100" height="30" as="geometry"/>
                </mxCell>
                <mxCell id="467" value="" style="edgeStyle=orthogonalEdgeStyle;rounded=0;orthogonalLoop=1;jettySize=auto;html=1;entryX=0.5;entryY=0;entryDx=0;entryDy=0;" parent="1" source="469" target="476" edge="1">
                    <mxGeometry relative="1" as="geometry"/>
                </mxCell>
                <mxCell id="468" value="ไม่" style="edgeLabel;html=1;align=center;verticalAlign=middle;resizable=0;points=[];" parent="467" vertex="1" connectable="0">
                    <mxGeometry x="-0.3604" y="-1" relative="1" as="geometry">
                        <mxPoint as="offset"/>
                    </mxGeometry>
                </mxCell>
                <mxCell id="565" value="" style="edgeStyle=orthogonalEdgeStyle;html=1;entryX=0.5;entryY=0;entryDx=0;entryDy=0;rounded=0;" parent="1" source="469" target="553" edge="1">
                    <mxGeometry relative="1" as="geometry"/>
                </mxCell>
                <mxCell id="574" value="ใช่" style="edgeLabel;html=1;align=center;verticalAlign=middle;resizable=0;points=[];" parent="565" vertex="1" connectable="0">
                    <mxGeometry x="-0.3963" y="2" relative="1" as="geometry">
                        <mxPoint as="offset"/>
                    </mxGeometry>
                </mxCell>
                <mxCell id="469" value="&lt;span style=&quot;color: rgb(0, 0, 0); font-family: Sarabun; font-size: 12px;&quot;&gt;selecksnack=4&lt;/span&gt;&lt;div&gt;&lt;span style=&quot;color: rgb(0, 0, 0); font-family: Sarabun; font-size: 12px;&quot;&gt;หรือไม่&lt;/span&gt;&lt;/div&gt;" style="rhombus;whiteSpace=wrap;html=1;fontSize=11;" parent="1" vertex="1">
                    <mxGeometry x="-1199.5" y="1100" width="93" height="90" as="geometry"/>
                </mxCell>
                <mxCell id="470" value="" style="edgeStyle=orthogonalEdgeStyle;rounded=0;orthogonalLoop=1;jettySize=auto;html=1;" parent="1" source="471" target="493" edge="1">
                    <mxGeometry relative="1" as="geometry"/>
                </mxCell>
                <mxCell id="471" value="coke=coke-1" style="whiteSpace=wrap;html=1;fontSize=11;" parent="1" vertex="1">
                    <mxGeometry x="-1309.5" y="1290" width="100" height="30" as="geometry"/>
                </mxCell>
                <mxCell id="474" value="" style="edgeStyle=orthogonalEdgeStyle;rounded=0;orthogonalLoop=1;jettySize=auto;html=1;entryX=0.5;entryY=0;entryDx=0;entryDy=0;" parent="1" source="476" target="483" edge="1">
                    <mxGeometry relative="1" as="geometry"/>
                </mxCell>
                <mxCell id="475" value="ไม่" style="edgeLabel;html=1;align=center;verticalAlign=middle;resizable=0;points=[];" parent="474" vertex="1" connectable="0">
                    <mxGeometry x="-0.4182" relative="1" as="geometry">
                        <mxPoint as="offset"/>
                    </mxGeometry>
                </mxCell>
                <mxCell id="563" value="" style="edgeStyle=orthogonalEdgeStyle;html=1;entryX=0.5;entryY=0;entryDx=0;entryDy=0;rounded=0;curved=0;" parent="1" source="476" target="555" edge="1">
                    <mxGeometry relative="1" as="geometry"/>
                </mxCell>
                <mxCell id="575" value="ใช่" style="edgeLabel;html=1;align=center;verticalAlign=middle;resizable=0;points=[];" parent="563" vertex="1" connectable="0">
                    <mxGeometry x="-0.2318" y="1" relative="1" as="geometry">
                        <mxPoint as="offset"/>
                    </mxGeometry>
                </mxCell>
                <mxCell id="476" value="&lt;span style=&quot;color: rgb(0, 0, 0); font-family: Sarabun; font-size: 12px;&quot;&gt;selecksnack=5&lt;/span&gt;&lt;div&gt;&lt;span style=&quot;color: rgb(0, 0, 0); font-family: Sarabun; font-size: 12px;&quot;&gt;หรือไม่&lt;/span&gt;&lt;/div&gt;" style="rhombus;whiteSpace=wrap;html=1;fontSize=11;" parent="1" vertex="1">
                    <mxGeometry x="-1096" y="1170" width="93" height="90" as="geometry"/>
                </mxCell>
                <mxCell id="477" value="" style="edgeStyle=orthogonalEdgeStyle;rounded=0;orthogonalLoop=1;jettySize=auto;html=1;" parent="1" source="478" target="495" edge="1">
                    <mxGeometry relative="1" as="geometry"/>
                </mxCell>
                <mxCell id="478" value="green=green-1" style="whiteSpace=wrap;html=1;fontSize=11;" parent="1" vertex="1">
                    <mxGeometry x="-1199.5" y="1310" width="100" height="30" as="geometry"/>
                </mxCell>
                <mxCell id="481" value="" style="edgeStyle=orthogonalEdgeStyle;rounded=0;orthogonalLoop=1;jettySize=auto;html=1;entryX=0.5;entryY=0;entryDx=0;entryDy=0;" parent="1" source="483" target="505" edge="1">
                    <mxGeometry relative="1" as="geometry"/>
                </mxCell>
                <mxCell id="482" value="ไม่" style="edgeLabel;html=1;align=center;verticalAlign=middle;resizable=0;points=[];" parent="481" vertex="1" connectable="0">
                    <mxGeometry x="-0.4" y="2" relative="1" as="geometry">
                        <mxPoint x="-1" as="offset"/>
                    </mxGeometry>
                </mxCell>
                <mxCell id="561" value="" style="edgeStyle=orthogonalEdgeStyle;html=1;entryX=0.5;entryY=0;entryDx=0;entryDy=0;rounded=0;" parent="1" source="483" target="556" edge="1">
                    <mxGeometry relative="1" as="geometry"/>
                </mxCell>
                <mxCell id="576" value="ใช่" style="edgeLabel;html=1;align=center;verticalAlign=middle;resizable=0;points=[];" parent="561" vertex="1" connectable="0">
                    <mxGeometry x="-0.0941" relative="1" as="geometry">
                        <mxPoint as="offset"/>
                    </mxGeometry>
                </mxCell>
                <mxCell id="483" value="&lt;span style=&quot;color: rgb(0, 0, 0); font-family: Sarabun; font-size: 12px;&quot;&gt;selecksnack=6&lt;/span&gt;&lt;div&gt;&lt;span style=&quot;color: rgb(0, 0, 0); font-family: Sarabun; font-size: 12px;&quot;&gt;หรือไม่&lt;/span&gt;&lt;/div&gt;" style="rhombus;whiteSpace=wrap;html=1;fontSize=11;" parent="1" vertex="1">
                    <mxGeometry x="-990" y="1240" width="93" height="90" as="geometry"/>
                </mxCell>
                <mxCell id="484" value="" style="edgeStyle=orthogonalEdgeStyle;rounded=0;orthogonalLoop=1;jettySize=auto;html=1;" parent="1" source="485" target="497" edge="1">
                    <mxGeometry relative="1" as="geometry"/>
                </mxCell>
                <mxCell id="485" value="ame=ame-1" style="whiteSpace=wrap;html=1;fontSize=11;" parent="1" vertex="1">
                    <mxGeometry x="-1078.5" y="1370" width="100" height="30" as="geometry"/>
                </mxCell>
                <mxCell id="486" value="" style="edgeStyle=orthogonalEdgeStyle;rounded=0;orthogonalLoop=1;jettySize=auto;html=1;" parent="1" source="487" target="499" edge="1">
                    <mxGeometry relative="1" as="geometry"/>
                </mxCell>
                <mxCell id="487" value="s=s+1" style="whiteSpace=wrap;html=1;fontSize=11;" parent="1" vertex="1">
                    <mxGeometry x="-1648.5" y="1140" width="100" height="30" as="geometry"/>
                </mxCell>
                <mxCell id="488" value="" style="edgeStyle=orthogonalEdgeStyle;rounded=0;orthogonalLoop=1;jettySize=auto;html=1;entryX=1;entryY=0;entryDx=0;entryDy=0;" parent="1" source="489" target="499" edge="1">
                    <mxGeometry relative="1" as="geometry">
                        <mxPoint x="-1481" y="1240" as="targetPoint"/>
                        <Array as="points">
                            <mxPoint x="-1481" y="1395"/>
                        </Array>
                    </mxGeometry>
                </mxCell>
                <mxCell id="489" value="n=n+1" style="whiteSpace=wrap;html=1;fontSize=11;" parent="1" vertex="1">
                    <mxGeometry x="-1528" y="1220" width="100" height="30" as="geometry"/>
                </mxCell>
                <mxCell id="490" value="" style="edgeStyle=orthogonalEdgeStyle;rounded=0;orthogonalLoop=1;jettySize=auto;html=1;entryX=1;entryY=0.5;entryDx=0;entryDy=0;" parent="1" source="491" target="499" edge="1">
                    <mxGeometry relative="1" as="geometry">
                        <mxPoint x="-1368.5" y="1285" as="targetPoint"/>
                        <Array as="points">
                            <mxPoint x="-1368" y="1408"/>
                        </Array>
                    </mxGeometry>
                </mxCell>
                <mxCell id="491" value="so=so+1" style="whiteSpace=wrap;html=1;fontSize=11;" parent="1" vertex="1">
                    <mxGeometry x="-1418.5" y="1240" width="100" height="30" as="geometry"/>
                </mxCell>
                <mxCell id="492" value="" style="edgeStyle=orthogonalEdgeStyle;rounded=0;orthogonalLoop=1;jettySize=auto;html=1;entryX=1;entryY=1;entryDx=0;entryDy=0;" parent="1" source="493" target="499" edge="1">
                    <mxGeometry relative="1" as="geometry">
                        <mxPoint x="-1259.5" y="1355" as="targetPoint"/>
                        <Array as="points">
                            <mxPoint x="-1259.5" y="1420"/>
                        </Array>
                    </mxGeometry>
                </mxCell>
                <mxCell id="493" value="c=c+1" style="whiteSpace=wrap;html=1;fontSize=11;" parent="1" vertex="1">
                    <mxGeometry x="-1309.25" y="1350" width="100" height="30" as="geometry"/>
                </mxCell>
                <mxCell id="494" value="" style="edgeStyle=orthogonalEdgeStyle;rounded=0;orthogonalLoop=1;jettySize=auto;html=1;entryX=1;entryY=1;entryDx=0;entryDy=0;" parent="1" source="495" target="499" edge="1">
                    <mxGeometry relative="1" as="geometry">
                        <mxPoint x="-1176" y="1480" as="targetPoint"/>
                        <Array as="points">
                            <mxPoint x="-1149.5" y="1440"/>
                            <mxPoint x="-1586.5" y="1440"/>
                        </Array>
                    </mxGeometry>
                </mxCell>
                <mxCell id="495" value="g=g+1" style="whiteSpace=wrap;html=1;fontSize=11;" parent="1" vertex="1">
                    <mxGeometry x="-1199.5" y="1385" width="100" height="30" as="geometry"/>
                </mxCell>
                <mxCell id="496" value="" style="edgeStyle=orthogonalEdgeStyle;rounded=0;orthogonalLoop=1;jettySize=auto;html=1;entryX=0.5;entryY=1;entryDx=0;entryDy=0;" parent="1" source="497" target="499" edge="1">
                    <mxGeometry relative="1" as="geometry">
                        <mxPoint x="-1028.5" y="1515" as="targetPoint"/>
                        <Array as="points">
                            <mxPoint x="-1028.5" y="1470"/>
                            <mxPoint x="-1598.5" y="1470"/>
                        </Array>
                    </mxGeometry>
                </mxCell>
                <mxCell id="497" value="a=a+1" style="whiteSpace=wrap;html=1;fontSize=11;" parent="1" vertex="1">
                    <mxGeometry x="-1078.5" y="1420" width="100" height="30" as="geometry"/>
                </mxCell>
                <mxCell id="519" value="" style="edgeStyle=none;html=1;" parent="1" source="499" target="518" edge="1">
                    <mxGeometry relative="1" as="geometry"/>
                </mxCell>
                <mxCell id="499" value="" style="ellipse;whiteSpace=wrap;html=1;fontSize=11;" parent="1" vertex="1">
                    <mxGeometry x="-1616" y="1390" width="35" height="35" as="geometry"/>
                </mxCell>
                <mxCell id="500" value="" style="edgeStyle=orthogonalEdgeStyle;rounded=0;orthogonalLoop=1;jettySize=auto;html=1;" parent="1" edge="1">
                    <mxGeometry relative="1" as="geometry">
                        <mxPoint x="-1965" y="490" as="sourcePoint"/>
                        <mxPoint x="-1965" y="490" as="targetPoint"/>
                    </mxGeometry>
                </mxCell>
                <mxCell id="534" value="" style="edgeStyle=none;html=1;" parent="1" source="505" target="533" edge="1">
                    <mxGeometry relative="1" as="geometry"/>
                </mxCell>
                <mxCell id="535" value="ไม่" style="edgeLabel;html=1;align=center;verticalAlign=middle;resizable=0;points=[];" parent="534" vertex="1" connectable="0">
                    <mxGeometry x="0.0332" y="-3" relative="1" as="geometry">
                        <mxPoint y="-3" as="offset"/>
                    </mxGeometry>
                </mxCell>
                <mxCell id="559" value="" style="edgeStyle=orthogonalEdgeStyle;html=1;entryX=0.5;entryY=0;entryDx=0;entryDy=0;rounded=0;" parent="1" source="505" target="558" edge="1">
                    <mxGeometry relative="1" as="geometry"/>
                </mxCell>
                <mxCell id="577" value="ใช่" style="edgeLabel;html=1;align=center;verticalAlign=middle;resizable=0;points=[];" parent="559" vertex="1" connectable="0">
                    <mxGeometry x="-0.0673" relative="1" as="geometry">
                        <mxPoint as="offset"/>
                    </mxGeometry>
                </mxCell>
                <mxCell id="505" value="&lt;span style=&quot;color: rgb(0, 0, 0); font-family: Sarabun; font-size: 12px;&quot;&gt;selecksnack=7&lt;/span&gt;&lt;div&gt;&lt;span style=&quot;color: rgb(0, 0, 0); font-family: Sarabun; font-size: 12px;&quot;&gt;หรือไม่&lt;/span&gt;&lt;/div&gt;" style="rhombus;whiteSpace=wrap;html=1;fontSize=11;" parent="1" vertex="1">
                    <mxGeometry x="-870" y="1320" width="93" height="90" as="geometry"/>
                </mxCell>
                <mxCell id="506" value="" style="edgeStyle=orthogonalEdgeStyle;rounded=0;orthogonalLoop=1;jettySize=auto;html=1;" parent="1" source="507" target="509" edge="1">
                    <mxGeometry relative="1" as="geometry"/>
                </mxCell>
                <mxCell id="507" value="late=late-1" style="whiteSpace=wrap;html=1;fontSize=11;" parent="1" vertex="1">
                    <mxGeometry x="-963.5" y="1450" width="100" height="30" as="geometry"/>
                </mxCell>
                <mxCell id="508" value="" style="edgeStyle=orthogonalEdgeStyle;rounded=0;orthogonalLoop=1;jettySize=auto;html=1;entryX=0;entryY=1;entryDx=0;entryDy=0;exitX=0;exitY=0.5;exitDx=0;exitDy=0;" parent="1" source="509" target="499" edge="1">
                    <mxGeometry relative="1" as="geometry">
                        <mxPoint x="-963.4999999999998" y="1465.9099999999994" as="sourcePoint"/>
                        <mxPoint x="-1607.0400000000002" y="1425" as="targetPoint"/>
                        <Array as="points">
                            <mxPoint x="-963" y="1530"/>
                            <mxPoint x="-1611" y="1530"/>
                        </Array>
                    </mxGeometry>
                </mxCell>
                <mxCell id="509" value="l=l+1" style="whiteSpace=wrap;html=1;fontSize=11;" parent="1" vertex="1">
                    <mxGeometry x="-963.5" y="1510" width="100" height="30" as="geometry"/>
                </mxCell>
                <mxCell id="527" value="" style="edgeStyle=none;html=1;" parent="1" source="515" target="442" edge="1">
                    <mxGeometry relative="1" as="geometry"/>
                </mxCell>
                <mxCell id="532" value="true" style="edgeLabel;html=1;align=center;verticalAlign=middle;resizable=0;points=[];" parent="527" vertex="1" connectable="0">
                    <mxGeometry x="-0.0794" y="3" relative="1" as="geometry">
                        <mxPoint as="offset"/>
                    </mxGeometry>
                </mxCell>
                <mxCell id="589" value="" style="edgeStyle=none;html=1;" parent="1" source="515" target="588" edge="1">
                    <mxGeometry relative="1" as="geometry"/>
                </mxCell>
                <mxCell id="590" value="false" style="edgeLabel;html=1;align=center;verticalAlign=middle;resizable=0;points=[];" parent="589" vertex="1" connectable="0">
                    <mxGeometry x="-0.1846" y="-6" relative="1" as="geometry">
                        <mxPoint y="-6" as="offset"/>
                    </mxGeometry>
                </mxCell>
                <mxCell id="515" value="Condition4" style="rhombus;whiteSpace=wrap;html=1;" parent="1" vertex="1">
                    <mxGeometry x="-1493.5" y="360" width="100" height="90" as="geometry"/>
                </mxCell>
                <mxCell id="581" value="" style="edgeStyle=none;html=1;" parent="1" source="517" target="579" edge="1">
                    <mxGeometry relative="1" as="geometry"/>
                </mxCell>
                <mxCell id="517" value="แสดง&lt;div&gt;ยกเลิกสินค้าสำเร็จ&lt;/div&gt;" style="shape=parallelogram;perimeter=parallelogramPerimeter;whiteSpace=wrap;html=1;fixedSize=1;fontSize=10;" parent="1" vertex="1">
                    <mxGeometry x="-2163.5" y="1140" width="130" height="50" as="geometry"/>
                </mxCell>
                <mxCell id="521" value="" style="edgeStyle=none;html=1;entryX=0.5;entryY=1;entryDx=0;entryDy=0;" parent="1" source="518" target="517" edge="1">
                    <mxGeometry relative="1" as="geometry">
                        <mxPoint x="-2103.5" y="1305" as="targetPoint"/>
                    </mxGeometry>
                </mxCell>
                <mxCell id="518" value="" style="shape=waypoint;sketch=0;size=6;pointerEvents=1;points=[];fillColor=default;resizable=0;rotatable=0;perimeter=centerPerimeter;snapToPoint=1;fontSize=11;" parent="1" vertex="1">
                    <mxGeometry x="-2113.5" y="1395" width="20" height="20" as="geometry"/>
                </mxCell>
                <mxCell id="531" value="" style="edgeStyle=orthogonalEdgeStyle;html=1;rounded=0;curved=0;exitX=0.5;exitY=0;exitDx=0;exitDy=0;" parent="1" source="522" edge="1">
                    <mxGeometry relative="1" as="geometry">
                        <mxPoint x="-1450" y="350" as="targetPoint"/>
                        <Array as="points">
                            <mxPoint x="-1733" y="350"/>
                        </Array>
                    </mxGeometry>
                </mxCell>
                <mxCell id="522" value="Condition1=false" style="whiteSpace=wrap;html=1;" parent="1" vertex="1">
                    <mxGeometry x="-1793.5" y="530" width="120" height="40" as="geometry"/>
                </mxCell>
                <mxCell id="537" value="" style="edgeStyle=orthogonalEdgeStyle;html=1;rounded=0;entryX=0;entryY=0.5;entryDx=0;entryDy=0;" parent="1" source="533" target="578" edge="1">
                    <mxGeometry relative="1" as="geometry">
                        <mxPoint x="-2240" y="1080" as="targetPoint"/>
                        <Array as="points">
                            <mxPoint x="-683" y="1610"/>
                            <mxPoint x="-2409" y="1610"/>
                            <mxPoint x="-2409" y="1075"/>
                        </Array>
                    </mxGeometry>
                </mxCell>
                <mxCell id="533" value="" style="shape=waypoint;sketch=0;size=6;pointerEvents=1;points=[];fillColor=default;resizable=0;rotatable=0;perimeter=centerPerimeter;snapToPoint=1;fontSize=11;" parent="1" vertex="1">
                    <mxGeometry x="-693.5" y="1355" width="20" height="20" as="geometry"/>
                </mxCell>
                <mxCell id="541" value="" style="edgeStyle=none;html=1;" parent="1" source="539" target="344" edge="1">
                    <mxGeometry relative="1" as="geometry"/>
                </mxCell>
                <mxCell id="539" value="selecksnack=0,seleckwalter=0" style="rounded=0;whiteSpace=wrap;html=1;fontFamily=Sarabun;fontSource=https%3A%2F%2Ffonts.googleapis.com%2Fcss%3Ffamily%3DSarabun;" parent="1" vertex="1">
                    <mxGeometry x="-1547.5" y="-1830" width="216" height="60" as="geometry"/>
                </mxCell>
                <mxCell id="544" value="" style="edgeStyle=none;html=1;" parent="1" source="543" target="447" edge="1">
                    <mxGeometry relative="1" as="geometry"/>
                </mxCell>
                <mxCell id="543" value="&lt;div style=&quot;&quot;&gt;&lt;span style=&quot;background-color: transparent;&quot;&gt;แสดง&lt;/span&gt;&lt;/div&gt;&lt;div style=&quot;&quot;&gt;&lt;span style=&quot;background-color: transparent;&quot;&gt;ยกเลิก&lt;/span&gt;&lt;/div&gt;&lt;div style=&quot;&quot;&gt;&lt;span style=&quot;background-color: transparent;&quot;&gt;เมล็ดทานตะวัน=1&lt;/span&gt;&lt;/div&gt;&lt;div style=&quot;&quot;&gt;ถั่วแปบ=2&lt;/div&gt;&lt;div style=&quot;&quot;&gt;จิ้นส้มหมก=3&lt;/div&gt;&lt;div style=&quot;&quot;&gt;โค้กกระป๋อง=4&lt;/div&gt;&lt;div style=&quot;&quot;&gt;น้ำเขียวกระป๋อง=5&lt;/div&gt;&lt;div style=&quot;&quot;&gt;อเมริกาโน่=6&lt;/div&gt;&lt;div style=&quot;&quot;&gt;ลาเต้หวานเจี๊ยบ=7&lt;/div&gt;&lt;div style=&quot;&quot;&gt;&lt;span style=&quot;background-color: transparent;&quot;&gt;&amp;nbsp;&amp;nbsp;&lt;/span&gt;&lt;span style=&quot;background-color: transparent;&quot;&gt;&amp;nbsp; &amp;nbsp; &amp;nbsp; &amp;nbsp; &amp;nbsp; &amp;nbsp;&lt;/span&gt;&lt;/div&gt;" style="shape=parallelogram;perimeter=parallelogramPerimeter;whiteSpace=wrap;html=1;fixedSize=1;align=center;" parent="1" vertex="1">
                    <mxGeometry x="-1559.25" y="680" width="221.5" height="140" as="geometry"/>
                </mxCell>
                <mxCell id="547" value="" style="edgeStyle=none;html=1;" parent="1" source="546" target="487" edge="1">
                    <mxGeometry relative="1" as="geometry"/>
                </mxCell>
                <mxCell id="546" value="sun=sun-1" style="whiteSpace=wrap;html=1;fontSize=11;" parent="1" vertex="1">
                    <mxGeometry x="-1648.5" y="1080" width="100" height="30" as="geometry"/>
                </mxCell>
                <mxCell id="549" value="" style="edgeStyle=none;html=1;" parent="1" source="548" target="546" edge="1">
                    <mxGeometry relative="1" as="geometry"/>
                </mxCell>
                <mxCell id="548" value="sun&amp;lt;=0" style="rhombus;whiteSpace=wrap;html=1;fontSize=11;" parent="1" vertex="1">
                    <mxGeometry x="-1632.75" y="980" width="68.5" height="60" as="geometry"/>
                </mxCell>
                <mxCell id="571" value="" style="edgeStyle=none;html=1;" parent="1" source="551" target="456" edge="1">
                    <mxGeometry relative="1" as="geometry"/>
                </mxCell>
                <mxCell id="551" value="sun&amp;lt;=0" style="rhombus;whiteSpace=wrap;html=1;fontSize=11;" parent="1" vertex="1">
                    <mxGeometry x="-1510" y="1040" width="68.5" height="60" as="geometry"/>
                </mxCell>
                <mxCell id="568" value="" style="edgeStyle=none;html=1;" parent="1" source="552" edge="1">
                    <mxGeometry relative="1" as="geometry">
                        <mxPoint x="-1366" y="1190" as="targetPoint"/>
                    </mxGeometry>
                </mxCell>
                <mxCell id="552" value="som&amp;lt;=0" style="rhombus;whiteSpace=wrap;html=1;fontSize=11;" parent="1" vertex="1">
                    <mxGeometry x="-1400" y="1090" width="68.5" height="60" as="geometry"/>
                </mxCell>
                <mxCell id="566" value="" style="edgeStyle=none;html=1;" parent="1" source="553" edge="1">
                    <mxGeometry relative="1" as="geometry">
                        <mxPoint x="-1259" y="1290" as="targetPoint"/>
                    </mxGeometry>
                </mxCell>
                <mxCell id="553" value="coke&amp;lt;=0" style="rhombus;whiteSpace=wrap;html=1;fontSize=11;" parent="1" vertex="1">
                    <mxGeometry x="-1290.25" y="1180" width="68.5" height="60" as="geometry"/>
                </mxCell>
                <mxCell id="564" value="" style="edgeStyle=none;html=1;entryX=0.5;entryY=0;entryDx=0;entryDy=0;" parent="1" source="555" target="478" edge="1">
                    <mxGeometry relative="1" as="geometry">
                        <mxPoint x="-1149" y="1310" as="targetPoint"/>
                    </mxGeometry>
                </mxCell>
                <mxCell id="555" value="green&amp;lt;=0" style="rhombus;whiteSpace=wrap;html=1;fontSize=11;" parent="1" vertex="1">
                    <mxGeometry x="-1183.75" y="1230" width="68.5" height="60" as="geometry"/>
                </mxCell>
                <mxCell id="562" value="" style="edgeStyle=none;html=1;entryX=0.5;entryY=0;entryDx=0;entryDy=0;" parent="1" source="556" target="485" edge="1">
                    <mxGeometry relative="1" as="geometry"/>
                </mxCell>
                <mxCell id="556" value="ame&amp;lt;=0" style="rhombus;whiteSpace=wrap;html=1;fontSize=11;" parent="1" vertex="1">
                    <mxGeometry x="-1064.5" y="1295" width="68.5" height="60" as="geometry"/>
                </mxCell>
                <mxCell id="560" value="" style="edgeStyle=none;html=1;" parent="1" source="558" edge="1">
                    <mxGeometry relative="1" as="geometry">
                        <mxPoint x="-913" y="1450" as="targetPoint"/>
                    </mxGeometry>
                </mxCell>
                <mxCell id="558" value="late&amp;lt;=0" style="rhombus;whiteSpace=wrap;html=1;fontSize=11;" parent="1" vertex="1">
                    <mxGeometry x="-947.75" y="1375" width="68.5" height="60" as="geometry"/>
                </mxCell>
                <mxCell id="580" value="" style="edgeStyle=none;html=1;" parent="1" source="578" target="579" edge="1">
                    <mxGeometry relative="1" as="geometry"/>
                </mxCell>
                <mxCell id="578" value="แสดง&lt;div&gt;กรุณาเลือกเลข1-7&lt;/div&gt;" style="shape=parallelogram;perimeter=parallelogramPerimeter;whiteSpace=wrap;html=1;fixedSize=1;fontSize=10;" parent="1" vertex="1">
                    <mxGeometry x="-2310" y="1057.5" width="130" height="50" as="geometry"/>
                </mxCell>
                <mxCell id="584" value="" style="edgeStyle=none;html=1;" parent="1" source="579" target="583" edge="1">
                    <mxGeometry relative="1" as="geometry"/>
                </mxCell>
                <mxCell id="579" value="" style="ellipse;whiteSpace=wrap;html=1;fontSize=11;" parent="1" vertex="1">
                    <mxGeometry x="-2116" y="1065" width="35" height="35" as="geometry"/>
                </mxCell>
                <mxCell id="586" value="" style="edgeStyle=none;html=1;" parent="1" source="583" edge="1">
                    <mxGeometry relative="1" as="geometry">
                        <mxPoint x="-1448.5" y="330" as="targetPoint"/>
                    </mxGeometry>
                </mxCell>
                <mxCell id="583" value="" style="shape=waypoint;sketch=0;size=6;pointerEvents=1;points=[];fillColor=default;resizable=0;rotatable=0;perimeter=centerPerimeter;snapToPoint=1;fontSize=11;" parent="1" vertex="1">
                    <mxGeometry x="-2101" y="320" width="20" height="20" as="geometry"/>
                </mxCell>
                <mxCell id="588" value="" style="shape=waypoint;sketch=0;size=6;pointerEvents=1;points=[];fillColor=default;resizable=0;rotatable=0;perimeter=centerPerimeter;snapToPoint=1;" parent="1" vertex="1">
                    <mxGeometry x="-1273.5" y="395" width="20" height="20" as="geometry"/>
                </mxCell>
                <mxCell id="593" value="som&amp;lt;=0หรือไม่" style="rhombus;whiteSpace=wrap;html=1;fontSize=10;" parent="1" vertex="1">
                    <mxGeometry x="-1523.5" y="-435.0150000000001" width="80" height="80" as="geometry"/>
                </mxCell>
            </root>
        </mxGraphModel>
    </diagram>
</mxfile>